{
.appVersion = "3091";
classes = (
{
code = "zero\012one\012two\012twostroke\012three\012four\012five\012Tonefive\012six\012seven\012eight\012nine\012zero.slash\012one.ss01\012three.1\012four.ss01\012six.ss01\012nine.ss01\012zero.tf\012one.tf\012two.tf\012three.tf\012four.tf\012five.tf\012six.tf\012seven.tf\012eight.tf\012nine.tf\012zero.tf.slash\012one.tf.ss01\012three.1.tf\012four.tf.ss01\012six.tf.ss01\012nine.tf.ss01\012";
name = Numeral;
},
{
code = "space\012nbspace\012narrownbspace\012mediumspace-math\012enquad\012emquad\012enspace\012emspace\012thirdemspace\012quarteremspace\012sixthemspace\012figurespace\012punctuationspace\012thinspace\012hairspace\012zerowidthspace\012";
name = Whitespace;
},
{
automatic = 1;

glyphs = (
{
color = (219,235,247,1);
glyphname = A;
lastChange = "2021-06-16 15:59:25 +0000";
layers = (
{
anchors = (
{
name = bottom;
position = "{836, 0}";
},
{
name = ogonek;
position = "{1612, 0}";
},
{
name = tonos;
position = "{692, 2048}";
},
{
name = top;
position = "{836, 2304}";
}
);
layerId = "B1F27B51-9973-4381-9301-4FE46FE1CA59";
paths = (
{
closed = 1;
nodes = (
"832 1968 LINE",
"840 1968 LINE",
"1544 0 LINE",
"1612 0 LINE",
"880 2048 LINE",
"792 2048 LINE",
"60 0 LINE",
"128 0 LINE"
);
},
{
closed = 1;
nodes = (
"360 692 LINE",
"1312 692 LINE",
"1312 756 LINE",
"360 756 LINE"
);
}
);
width = 1672;
},
{
anchors = (
{
name = bottom;
position = "{920, 0}";
},
{
name = ogonek;
position = "{1800, 0}";
},
{
name = tonos;
position = "{648, 2048}";
},
{
name = top;
position = "{920, 2304}";
}
);
guideLines = (
{
angle = 90;
position = "{2000, 1832}";
},
{
alignment = center;
angle = 90;
position = "{764, 144}";
}
);
layerId = "C698F293-3EC0-4A5A-A3A0-0FDB1F5CF265";
paths = (
{
closed = 1;
nodes = (
"912 1724 LINE",
"928 1724 LINE",
"1540 0 LINE",
"1800 0 LINE",
"1048 2048 LINE",
"792 2048 LINE",
"40 0 LINE",
"300 0 LINE"
);
},
{
closed = 1;
nodes = (
"396 580 LINE",
"1444 580 LINE",
"1444 800 LINE",
"396 800 LINE"
);
}
);
width = 1840;
},
{
anchors = (
{
name = bottom;
position = "{1120, 0}";
},
{
name = ogonek;
position = "{2176, 0}";
},
{
name = tonos;
position = "{632, 2048}";
},
{
name = top;
position = "{1120, 2304}";
}
);
background = {
components = (
{
name = V;
transform = "{1, 0, 0, 1, -1436, 0}";
}
);
};
guideLines = (
{
position = "{888, 1364}";
},
{
alignment = center;
angle = 90;
position = "{872, 964}";
}
);
layerId = "5C20EF92-B63D-42A8-8878-93C2863E0093";
paths = (
{
closed = 1;
nodes = (
"1112 1484 LINE",
"1128 1484 LINE",
"1576 0 LINE",
"2176 0 LINE",
"1500 2048 LINE",
"740 2048 LINE",
"64 0 LINE",
"664 0 LINE"
);
},
{
closed = 1;
nodes = (
"552 392 LINE",
"1680 392 LINE",
"1680 808 LINE",
"552 808 LINE"
);
}
);
width = 2240;
},
{
anchors = (
{
name = bottom;
position = "{1164, 0}";
},
{
name = ogonek;
position = "{2220, 0}";
},
{
name = right;
position = "{2256, 0}";
},
{
name = tonos;
position = "{756, 2048}";
},
{
name = top;
position = "{1164, 2180}";
}
);
associatedMasterId = "5C20EF92-B63D-42A8-8878-93C2863E0093";
guideLines = (
{
position = "{1084, 1364}";
},
{
alignment = center;
angle = 90;
position = "{1068, 964}";
}
);
layerId = "F5014171-28B6-4E82-981B-66BFC4193D11";
name = "Oct 2 18, 14:33";
paths = (
{
closed = 1;
nodes = (
"1156 1364 LINE",
"1172 1364 LINE",
"1656 0 LINE",
"2256 0 LINE",
"1464 2048 LINE",
"868 2048 LINE",
"72 0 LINE",
"672 0 LINE"
);
},
{
closed = 1;
nodes = (
"560 320 LINE",
"1768 320 LINE",
"1768 752 LINE",
"560 752 LINE"
);
}
);
width = 2328;
}
);
leftKerningGroup = A;
rightKerningGroup = A;
unicode = 0041;
userData = {
com.typemytype.robofont.guideline.magnetic.9EkLRXjahr = 5;
"interface.width-adjustments" = (
-16
);
};
},
{
glyphname = AE;
lastChange = "2021-06-16 15:59:25 +0000";
layers = (
{
anchors = (
{
name = top;
position = "{1696, 2304}";
}
);
layerId = "B1F27B51-9973-4381-9301-4FE46FE1CA59";
paths = (
{
closed = 1;
nodes = (
"132 0 LINE",
"1144 1984 LINE",
"1344 1984 LINE",
"1344 0 LINE",
"2464 0 LINE",
"2464 64 LINE",
"1408 64 LINE",
"1408 992 LINE",
"2376 992 LINE",
"2376 1056 LINE",
"1408 1056 LINE",
"1408 1984 LINE",
"2436 1984 LINE",
"2436 2048 LINE",
"1104 2048 LINE",
"60 0 LINE"
);
},
{
closed = 1;
nodes = (
"1380 692 LINE",
"1380 756 LINE",
"460 756 LINE",
"460 692 LINE"
);
}
);
width = 2636;
},
{
anchors = (
{
name = top;
position = "{1788, 2304}";
}
);
background = {
components = (
{
name = A;
},
{
name = E;
transform = "{1, 0, 0, 1, 1104, 0}";
}
);
};
layerId = "C698F293-3EC0-4A5A-A3A0-0FDB1F5CF265";
paths = (
{
closed = 1;
nodes = (
"312 0 LINE",
"1172 1828 LINE",
"1320 1828 LINE",
"1320 0 LINE",
"2572 0 LINE",
"2572 220 LINE",
"1568 220 LINE",
"1568 916 LINE",
"2492 916 LINE",
"2492 1136 LINE",
"1568 1136 LINE",
"1568 1828 LINE",
"2556 1828 LINE",
"2556 2048 LINE",
"1032 2048 LINE",
"40 0 LINE"
);
},
{
closed = 1;
nodes = (
"1444 580 LINE",
"1444 800 LINE",
"476 800 LINE",
"476 580 LINE"
);
}
);
width = 2724;
},
{
anchors = (
{
name = top;
position = "{1860, 2304}";
}
);
background = {
components = (
{
name = A;
transform = "{1, 0, 0, 1, 4, 0}";
},
{
name = E;
transform = "{1, 0, 0, 1, 1224, 0}";
}
);
};
guideLines = (
{
angle = 90;
position = "{1240, 2140}";
}
);
layerId = "5C20EF92-B63D-42A8-8878-93C2863E0093";
paths = (
{
closed = 1;
nodes = (
"676 0 LINE",
"1216 1484 LINE",
"1356 1484 LINE",
"1356 0 LINE",
"2828 0 LINE",
"2828 448 LINE",
"1912 448 LINE",
"1912 800 LINE",
"2756 800 LINE",
"2756 1248 LINE",
"1912 1248 LINE",
"1912 1600 LINE",
"2832 1600 LINE",
"2832 2048 LINE",
"864 2048 LINE",
"64 0 LINE"
);
},
{
closed = 1;
nodes = (
"1684 392 LINE",
"1684 808 LINE",
"556 808 LINE",
"556 392 LINE"
);
}
);
width = 2976;
}
);
leftKerningGroup = A;
leftMetricsKey = A;
rightKerningGroup = E;
rightMetricsKey = E;
unicode = 00C6;
userData = {
interface.gridadjust.original = "{'width': 2647, 'leftMargin': -30, 'rightMargin': 45}";
"interface.width-adjustments" = (
-16
);
};
},
{
color = (219,235,247,1);
glyphname = B;
lastChange = "2021-06-16 15:59:25 +0000";
layers = (
{
anchors = (
{
name = bottom;
position = "{844, 0}";
},
{
name = top;
position = "{820, 2304}";
}
);
guideLines = (
{
alignment = center;
angle = 180;
position = "{808, 1624}";
}
);
layerId = "B1F27B51-9973-4381-9301-4FE46FE1CA59";
paths = (
{
closed = 1;
nodes = (
"996 0 LINE SMOOTH",
"1348 0 OFFCURVE",
"1556 208 OFFCURVE",
"1556 524 CURVE SMOOTH",
"1556 809 OFFCURVE",
"1386 1017 OFFCURVE",
"1164 1036 CURVE",
"1164 1044 LINE",
"1362 1094 OFFCURVE",
"1476 1287 OFFCURVE",
"1476 1528 CURVE SMOOTH",
"1476 1851 OFFCURVE",
"1272 2048 OFFCURVE",
"928 2048 CURVE SMOOTH",
"288 2048 LINE",
"288 0 LINE"
);
},
{
closed = 1;
nodes = (
"352 1008 LINE",
"996 1008 LINE SMOOTH",
"1285 1008 OFFCURVE",
"1492 808 OFFCURVE",
"1492 524 CURVE SMOOTH",
"1492 248 OFFCURVE",
"1296 64 OFFCURVE",
"996 64 CURVE SMOOTH",
"352 64 LINE"
);
},
{
closed = 1;
nodes = (
"352 1984 LINE",
"928 1984 LINE SMOOTH",
"1226 1984 OFFCURVE",
"1412 1819 OFFCURVE",
"1412 1528 CURVE SMOOTH",
"1412 1284 OFFCURVE",
"1275 1072 OFFCURVE",
"996 1072 CURVE SMOOTH",
"352 1072 LINE"
);
}
);
width = 1740;
},
{
anchors = (
{
name = bottom;
position = "{856, 0}";
},
{
name = top;
position = "{844, 2304}";
}
);
guideLines = (
{
angle = 90;
position = "{860, 1772}";
},
{
angle = 90;
position = "{1548, 1340}";
}
);
layerId = "C698F293-3EC0-4A5A-A3A0-0FDB1F5CF265";
paths = (
{
closed = 1;
nodes = (
"956 0 LINE SMOOTH",
"1440 0 OFFCURVE",
"1640 236 OFFCURVE",
"1640 544 CURVE SMOOTH",
"1640 868 OFFCURVE",
"1416 1044 OFFCURVE",
"1228 1056 CURVE",
"1228 1076 LINE",
"1404 1124 OFFCURVE",
"1560 1240 OFFCURVE",
"1560 1504 CURVE SMOOTH",
"1560 1804 OFFCURVE",
"1360 2048 OFFCURVE",
"932 2048 CURVE SMOOTH",
"216 2048 LINE",
"216 0 LINE"
);
},
{
closed = 1;
nodes = (
"464 932 LINE",
"968 932 LINE SMOOTH",
"1236 932 OFFCURVE",
"1404 752 OFFCURVE",
"1404 544 CURVE SMOOTH",
"1404 364 OFFCURVE",
"1280 220 OFFCURVE",
"956 220 CURVE SMOOTH",
"464 220 LINE"
);
},
{
closed = 1;
nodes = (
"464 1828 LINE",
"932 1828 LINE SMOOTH",
"1204 1828 OFFCURVE",
"1324 1684 OFFCURVE",
"1324 1504 CURVE SMOOTH",
"1324 1288 OFFCURVE",
"1148 1148 OFFCURVE",
"924 1148 CURVE SMOOTH",
"464 1148 LINE"
);
}
);
width = 1768;
},
{
anchors = (
{
name = bottom;
position = "{912, 0}";
},
{
name = top;
position = "{916, 2304}";
}
);
guideLines = (
{
alignment = center;
angle = 90;
position = "{612, 716}";
}
);
layerId = "5C20EF92-B63D-42A8-8878-93C2863E0093";
paths = (
{
closed = 1;
nodes = (
"1096 0 LINE SMOOTH",
"1541 0 OFFCURVE",
"1816 243 OFFCURVE",
"1816 580 CURVE SMOOTH",
"1816 869 OFFCURVE",
"1603 1058 OFFCURVE",
"1340 1068 CURVE",
"1340 1088 LINE",
"1577 1135 OFFCURVE",
"1736 1310 OFFCURVE",
"1736 1536 CURVE SMOOTH",
"1736 1848 OFFCURVE",
"1488 2048 OFFCURVE",
"1020 2048 CURVE SMOOTH",
"132 2048 LINE",
"132 0 LINE"
);
},
{
closed = 1;
nodes = (
"688 876 LINE",
"956 876 LINE SMOOTH",
"1125 876 OFFCURVE",
"1228 796 OFFCURVE",
"1228 652 CURVE SMOOTH",
"1228 515 OFFCURVE",
"1135 444 OFFCURVE",
"948 444 CURVE SMOOTH",
"688 444 LINE"
);
},
{
closed = 1;
nodes = (
"688 1612 LINE",
"924 1612 LINE SMOOTH",
"1062 1612 OFFCURVE",
"1164 1542 OFFCURVE",
"1164 1416 CURVE SMOOTH",
"1164 1290 OFFCURVE",
"1062 1220 OFFCURVE",
"916 1220 CURVE SMOOTH",
"688 1220 LINE"
);
}
);
width = 1880;
}
);
leftKerningGroup = B;
leftMetricsKey = H;
rightKerningGroup = B;
unicode = 0042;
userData = {
com.typemytype.robofont.guideline.magnetic.olHMUUD5VH = 5;
com.typemytype.robofont.guideline.magnetic.rWKPWS6RQH = 5;
"interface.width-adjustments" = (
-16
);
};
},
{
glyphname = Bhook;
lastChange = "2021-06-16 15:59:25 +0000";
layers = (
{
components = (
{
alignment = -1;
name = B;
transform = "{1, 0, 0, 1, 276, 0}";
}
);
layerId = "B1F27B51-9973-4381-9301-4FE46FE1CA59";
paths = (
{
closed = 1;
nodes = (
"592 2048 LINE",
"412 2048 LINE SMOOTH",
"236 2048 OFFCURVE",
"141 1947 OFFCURVE",
"140 1760 CURVE SMOOTH",
"140 1688 LINE",
"204 1688 LINE",
"204 1724 LINE SMOOTH",
"204 1912 OFFCURVE",
"263 1984 OFFCURVE",
"416 1984 CURVE SMOOTH",
"592 1984 LINE {name = hr00;}"
);
}
);
width = 2016;
},
{
components = (
{
name = B;
transform = "{1, 0, 0, 1, 428, 0}";
}
);
layerId = "C698F293-3EC0-4A5A-A3A0-0FDB1F5CF265";
paths = (
{
closed = 1;
nodes = (
"712 2048 LINE",
"512 2048 LINE SMOOTH",
"248 2048 OFFCURVE",
"104 1864 OFFCURVE",
"104 1640 CURVE SMOOTH",
"104 1504 LINE",
"336 1504 LINE",
"336 1580 LINE SMOOTH",
"336 1708 OFFCURVE",
"356 1828 OFFCURVE",
"516 1828 CURVE SMOOTH",
"712 1828 LINE"
);
}
);
width = 2196;
},
{
components = (
{
name = B;
transform = "{1, 0, 0, 1, 680, 0}";
}
);
layerId = "5C20EF92-B63D-42A8-8878-93C2863E0093";
paths = (
{
closed = 1;
nodes = (
"1144 2048 LINE",
"780 2048 LINE SMOOTH",
"350 2048 OFFCURVE",
"74 1828 OFFCURVE",
"76 1440 CURVE SMOOTH",
"76 1196 LINE",
"564 1196 LINE",
"564 1344 LINE SMOOTH",
"562 1464 OFFCURVE",
"610 1604 OFFCURVE",
"780 1604 CURVE SMOOTH",
"1144 1604 LINE {name = hr00;}"
);
}
);
width = 2560;
}
);
leftKerningGroup = B;
leftMetricsKey = T;
rightKerningGroup = B;
rightMetricsKey = B;
unicode = 0181;
userData = {
interface.gridadjust.original = "{'width': 2046.0, 'leftMargin': 41, 'rightMargin': 100.0}";
"interface.width-adjustments" = (
-16
);
};
},
{
glyphname = Btopbar;
lastChange = "2021-06-16 15:59:25 +0000";
layers = (
{
layerId = "B1F27B51-9973-4381-9301-4FE46FE1CA59";
paths = (
{
closed = 1;
nodes = (
"1056 0 LINE SMOOTH",
"1409 0 OFFCURVE",
"1628 213 OFFCURVE",
"1628 556 CURVE SMOOTH",
"1628 867 OFFCURVE",
"1403 1068 OFFCURVE",
"1056 1068 CURVE SMOOTH",
"352 1068 LINE",
"352 1984 LINE",
"1400 1984 LINE",
"1400 2048 LINE",
"288 2048 LINE",
"288 0 LINE"
);
},
{
closed = 1;
nodes = (
"352 1004 LINE",
"1056 1004 LINE SMOOTH",
"1364 1004 OFFCURVE",
"1565 828 OFFCURVE",
"1564 560 CURVE SMOOTH",
"1563 247 OFFCURVE",
"1376 64 OFFCURVE",
"1056 64 CURVE SMOOTH",
"352 64 LINE"
);
}
);
width = 1776;
},
{
guideLines = (
{
angle = 90;
position = "{128, 1684}";
}
);
layerId = "C698F293-3EC0-4A5A-A3A0-0FDB1F5CF265";
paths = (
{
closed = 1;
nodes = (
"984 0 LINE SMOOTH",
"1424 0 OFFCURVE",
"1664 248 OFFCURVE",
"1664 604 CURVE SMOOTH",
"1664 960 OFFCURVE",
"1424 1188 OFFCURVE",
"984 1188 CURVE SMOOTH",
"464 1188 LINE",
"464 1828 LINE",
"1452 1828 LINE",
"1452 2048 LINE",
"216 2048 LINE",
"216 0 LINE"
);
},
{
closed = 1;
nodes = (
"464 968 LINE",
"984 968 LINE SMOOTH",
"1264 968 OFFCURVE",
"1420 804 OFFCURVE",
"1420 608 CURVE SMOOTH",
"1420 408 OFFCURVE",
"1264 216 OFFCURVE",
"984 216 CURVE SMOOTH",
"464 216 LINE"
);
}
);
width = 1776;
},
{
layerId = "5C20EF92-B63D-42A8-8878-93C2863E0093";
paths = (
{
closed = 1;
nodes = (
"896 0 LINE SMOOTH",
"1412 0 OFFCURVE",
"1756 280 OFFCURVE",
"1756 688 CURVE SMOOTH",
"1756 1096 OFFCURVE",
"1412 1360 OFFCURVE",
"896 1360 CURVE SMOOTH",
"688 1360 LINE",
"688 1600 LINE",
"1572 1600 LINE",
"1572 2048 LINE",
"132 2048 LINE",
"132 0 LINE"
);
},
{
closed = 1;
nodes = (
"688 936 LINE",
"896 936 LINE SMOOTH",
"1096 936 OFFCURVE",
"1204 832 OFFCURVE",
"1204 692 CURVE SMOOTH",
"1204 544 OFFCURVE",
"1096 436 OFFCURVE",
"896 436 CURVE SMOOTH",
"688 436 LINE"
);
}
);
width = 1848;
}
);
leftMetricsKey = B;
rightMetricsKey = b;
unicode = 0182;
userData = {
com.typemytype.robofont.guideline.magnetic.8OVvpe1adm = 5;
interface.gridadjust.original = "{'width': 1777, 'leftMargin': 171, 'rightMargin': 158}";
"interface.width-adjustments" = (
-16
);
};
},
{
color = (219,235,247,1);
glyphname = C;
lastChange = "2021-06-17 09:56:25 +0000";
layers = (
{
anchors = (
{
name = cedilla;
position = "{1020, 0}";
},
{
name = top;
position = "{1020, 2304}";
}
);
layerId = "B1F27B51-9973-4381-9301-4FE46FE1CA59";
paths = (
{
closed = 1;
nodes = (
"1754 1700 OFFCURVE",
"1502 2076 OFFCURVE",
"1020 2076 CURVE SMOOTH",
"516 2076 OFFCURVE",
"172 1652 OFFCURVE",
"172 1024 CURVE SMOOTH",
"172 396 OFFCURVE",
"516 -28 OFFCURVE",
"1020 -28 CURVE SMOOTH",
"1502 -28 OFFCURVE",
"1754 352 OFFCURVE",
"1804 640 CURVE",
"1736 640 LINE",
"1686 364 OFFCURVE",
"1438 36 OFFCURVE",
"1020 36 CURVE SMOOTH",
"600 36 OFFCURVE",
"236 380 OFFCURVE",
"236 1024 CURVE SMOOTH",
"236 1660 OFFCURVE",
"600 2012 OFFCURVE",
"1020 2012 CURVE SMOOTH",
"1438 2012 OFFCURVE",
"1686 1680 OFFCURVE",
"1736 1408 CURVE",
"1804 1408 LINE"
);
}
);
width = 1972;
},
{
anchors = (
{
name = cedilla;
position = "{1040, -16}";
},
{
name = top;
position = "{1040, 2304}";
}
);
background = {
components = (
{
name = O;
}
);
};
guideLines = (
{
angle = 90;
position = "{1008, 1432}";
}
);
layerId = "C698F293-3EC0-4A5A-A3A0-0FDB1F5CF265";
paths = (
{
closed = 1;
nodes = (
"1788 1828 OFFCURVE",
"1452 2076 OFFCURVE",
"1040 2076 CURVE SMOOTH",
"516 2076 OFFCURVE",
"136 1672 OFFCURVE",
"136 1024 CURVE SMOOTH",
"136 376 OFFCURVE",
"516 -28 OFFCURVE",
"1040 -28 CURVE SMOOTH",
"1452 -28 OFFCURVE",
"1788 220 OFFCURVE",
"1864 640 CURVE",
"1616 640 LINE",
"1556 356 OFFCURVE",
"1312 204 OFFCURVE",
"1040 204 CURVE SMOOTH",
"668 204 OFFCURVE",
"376 492 OFFCURVE",
"376 1024 CURVE SMOOTH",
"376 1556 OFFCURVE",
"668 1844 OFFCURVE",
"1040 1844 CURVE SMOOTH",
"1312 1844 OFFCURVE",
"1556 1692 OFFCURVE",
"1616 1408 CURVE",
"1864 1408 LINE"
);
}
);
width = 1984;
},
{
anchors = (
{
name = cedilla;
position = "{1100, 8}";
},
{
name = top;
position = "{1112, 2304}";
}
);
background = {
components = (
{
name = O;
}
);
hints = (
{
horizontal = 1;
place = "{-28, 21}";
target = up;
type = BottomGhost;
},
{
horizontal = 1;
place = "{2076, -20}";
target = down;
type = TopGhost;
},
{
horizontal = 1;
place = "{-28, 0}";
type = Anchor;
options = 4;
},
{
horizontal = 1;
place = "{2076, 0}";
type = Anchor;
options = 4;
},
{
horizontal = 1;
place = "{-28, 21}";
target = up;
type = BottomGhost;
},
{
horizontal = 1;
place = "{2076, -20}";
target = down;
type = TopGhost;
},
{
horizontal = 1;
place = "{-28, 0}";
type = Anchor;
options = 4;
},
{
horizontal = 1;
place = "{2076, 0}";
type = Anchor;
options = 4;
},
{
horizontal = 1;
place = "{-28, 21}";
target = up;
type = BottomGhost;
},
{
horizontal = 1;
place = "{2076, -20}";
target = down;
type = TopGhost;
},
{
horizontal = 1;
place = "{-28, 0}";
type = Anchor;
options = 4;
},
{
horizontal = 1;
place = "{2076, 0}";
type = Anchor;
options = 4;
}
);
};
guideLines = (
{
position = "{1012, 1024}";
},
{
position = "{-136, 0}";
}
);
layerId = "5C20EF92-B63D-42A8-8878-93C2863E0093";
paths = (
{
closed = 1;
nodes = (
"2000 1788 OFFCURVE",
"1628 2076 OFFCURVE",
"1112 2076 CURVE SMOOTH",
"560 2076 OFFCURVE",
"124 1708 OFFCURVE",
"124 1024 CURVE SMOOTH",
"124 343 OFFCURVE",
"548 -28 OFFCURVE",
"1112 -28 CURVE SMOOTH",
"1712 -28 OFFCURVE",
"2016 388 OFFCURVE",
"2044 736 CURVE",
"1480 740 LINE",
"1452 565 OFFCURVE",
"1328 456 OFFCURVE",
"1124 456 CURVE SMOOTH",
"853 456 OFFCURVE",
"696 648 OFFCURVE",
"696 1024 CURVE SMOOTH",
"696 1380 OFFCURVE",
"848 1592 OFFCURVE",
"1128 1592 CURVE SMOOTH",
"1342 1592 OFFCURVE",
"1464 1466 OFFCURVE",
"1480 1280 CURVE",
"2044 1280 LINE"
);
}
);
width = 2164;
}
);
leftKerningGroup = C;
leftMetricsKey = O;
rightKerningGroup = C;
unicode = 0043;
userData = {
com.typemytype.robofont.guideline.magnetic.ju3ppiFr9V = 5;
"interface.width-adjustments" = (
-16
);
};
},
{
glyphname = Chook;
lastChange = "2021-06-16 15:59:25 +0000";
layers = (
{
components = (
{
alignment = -1;
name = C;
}
);
layerId = "B1F27B51-9973-4381-9301-4FE46FE1CA59";
paths = (
{
closed = 1;
nodes = (
"1804 1748 LINE SMOOTH",
"1804 1916 OFFCURVE",
"1852 1980 OFFCURVE",
"1978 1980 CURVE SMOOTH",
"1997 1980 OFFCURVE",
"2015 1979 OFFCURVE",
"2028 1976 CURVE",
"2028 2040 LINE",
"2016 2043 OFFCURVE",
"1998 2044 OFFCURVE",
"1978 2044 CURVE SMOOTH",
"1815 2044 OFFCURVE",
"1740 1951 OFFCURVE",
"1740 1748 CURVE SMOOTH",
"1740 1408 LINE",
"1804 1408 LINE {name = hr00;}"
);
}
);
width = 1922;
},
{
components = (
{
name = C;
}
);
layerId = "C698F293-3EC0-4A5A-A3A0-0FDB1F5CF265";
paths = (
{
closed = 1;
nodes = (
"1864 1664 LINE SMOOTH",
"1864 1824 OFFCURVE",
"1960 1872 OFFCURVE",
"2088 1872 CURVE SMOOTH",
"2116 1872 OFFCURVE",
"2144 1868 OFFCURVE",
"2164 1864 CURVE",
"2164 2064 LINE",
"2128 2076 OFFCURVE",
"2076 2076 OFFCURVE",
"2028 2076 CURVE SMOOTH",
"1804 2076 OFFCURVE",
"1628 1928 OFFCURVE",
"1628 1664 CURVE SMOOTH",
"1628 1408 LINE",
"1864 1408 LINE"
);
}
);
width = 2108;
},
{
components = (
{
name = C;
}
);
guideLines = (
{
angle = 90;
position = "{-1720, 0}";
}
);
layerId = "5C20EF92-B63D-42A8-8878-93C2863E0093";
paths = (
{
closed = 1;
nodes = (
"2044 1396 LINE SMOOTH",
"2044 1612 OFFCURVE",
"2228 1684 OFFCURVE",
"2356 1684 CURVE",
"2392 1684 OFFCURVE",
"2468 1680 OFFCURVE",
"2508 1680 CURVE",
"2508 2120 LINE",
"2412 2132 OFFCURVE",
"2344 2132 OFFCURVE",
"2260 2132 CURVE SMOOTH",
"1864 2132 OFFCURVE",
"1508 1908 OFFCURVE",
"1508 1488 CURVE SMOOTH",
"1508 1280 LINE",
"2044 1280 LINE {name = hr00;}"
);
}
);
width = 2484;
}
);
leftKerningGroup = C;
leftMetricsKey = C;
rightKerningGroup = C;
unicode = 0187;
userData = {
interface.gridadjust.original = "{'width': 1998, 'leftMargin': 256, 'rightMargin': -44}";
};
},
{
color = (219,235,247,1);
glyphname = D;
lastChange = "2021-06-16 15:59:25 +0000";
layers = (
{
anchors = (
{
name = bottom;
position = "{780, 0}";
},
{
name = cross;
position = "{320, 1040}";
},
{
name = top;
position = "{836, 2304}";
}
);
layerId = "B1F27B51-9973-4381-9301-4FE46FE1CA59";
paths = (
{
closed = 1;
nodes = (
"1425 0 OFFCURVE",
"1774 378 OFFCURVE",
"1776 1032 CURVE SMOOTH",
"1777 1669 OFFCURVE",
"1441 2048 OFFCURVE",
"876 2048 CURVE SMOOTH",
"320 2048 LINE",
"320 1984 LINE",
"876 1984 LINE SMOOTH",
"1407 1984 OFFCURVE",
"1710 1629 OFFCURVE",
"1712 1032 CURVE SMOOTH",
"1714 425 OFFCURVE",
"1392 64 OFFCURVE",
"824 64 CURVE SMOOTH",
"320 64 LINE",
"320 0 LINE",
"824 0 LINE SMOOTH"
);
},
{
closed = 1;
nodes = (
"288 2048 LINE",
"288 0 LINE",
"352 0 LINE",
"352 2048 LINE"
);
}
);
width = 1948;
},
{
anchors = (
{
name = bottom;
position = "{824, 0}";
},
{
name = cross;
position = "{340, 1056}";
},
{
name = top;
position = "{816, 2304}";
}
);
layerId = "C698F293-3EC0-4A5A-A3A0-0FDB1F5CF265";
paths = (
{
closed = 1;
nodes = (
"1472 0 OFFCURVE",
"1824 388 OFFCURVE",
"1824 1028 CURVE SMOOTH",
"1824 1664 OFFCURVE",
"1472 2048 OFFCURVE",
"876 2048 CURVE SMOOTH",
"344 2048 LINE",
"344 1828 LINE",
"860 1828 LINE SMOOTH",
"1340 1828 OFFCURVE",
"1584 1524 OFFCURVE",
"1584 1028 CURVE SMOOTH",
"1584 528 OFFCURVE",
"1340 220 OFFCURVE",
"832 220 CURVE SMOOTH",
"356 220 LINE",
"356 0 LINE",
"848 0 LINE SMOOTH"
);
},
{
closed = 1;
nodes = (
"216 2048 LINE",
"216 0 LINE",
"464 0 LINE",
"464 2048 LINE"
);
}
);
width = 1960;
},
{
anchors = (
{
name = bottom;
position = "{928, 0}";
},
{
name = cross;
position = "{408, 1084}";
},
{
name = top;
position = "{816, 2304}";
}
);
guideLines = (
{
position = "{1772, 1024}";
},
{
position = "{-136, 764}";
},
{
position = "{-136, 1548}";
},
{
position = "{1736, 1696}";
},
{
position = "{1736, 348}";
},
{
position = "{1272, 1480}";
},
{
position = "{1336, 560}";
}
);
layerId = "5C20EF92-B63D-42A8-8878-93C2863E0093";
paths = (
{
closed = 1;
nodes = (
"1544 0 OFFCURVE",
"1940 384 OFFCURVE",
"1940 1024 CURVE",
"1940 1664 OFFCURVE",
"1544 2048 OFFCURVE",
"912 2048 CURVE",
"352 2048 LINE",
"352 1576 LINE",
"884 1576 LINE",
"1204 1576 OFFCURVE",
"1380 1452 OFFCURVE",
"1380 1024 CURVE",
"1380 596 OFFCURVE",
"1204 472 OFFCURVE",
"900 472 CURVE",
"360 472 LINE",
"360 0 LINE",
"920 0 LINE"
);
},
{
closed = 1;
nodes = (
"132 2048 LINE",
"132 0 LINE",
"688 0 LINE",
"688 2048 LINE"
);
}
);
width = 2064;
}
);
leftKerningGroup = B;
leftMetricsKey = H;
note = "!post:RemoveOverlap";
rightKerningGroup = D;
rightMetricsKey = O;
unicode = 0044;
userData = {
"interface.width-adjustments" = (
-16
);
};
},
{
glyphname = Dhook;
lastChange = "2021-06-16 15:59:25 +0000";
layers = (
{
components = (
{
alignment = -1;
name = D;
transform = "{1, 0, 0, 1, 300, 0}";
}
);
layerId = "B1F27B51-9973-4381-9301-4FE46FE1CA59";
paths = (
{
closed = 1;
nodes = (
"204 1688 LINE",
"204 1724 LINE SMOOTH",
"204 1912 OFFCURVE",
"263 1984 OFFCURVE",
"416 1984 CURVE SMOOTH",
"612 1984 LINE {name = hr00;}",
"612 2048 LINE",
"412 2048 LINE SMOOTH",
"236 2048 OFFCURVE",
"141 1947 OFFCURVE",
"140 1760 CURVE SMOOTH",
"140 1688 LINE"
);
}
);
width = 2248;
},
{
components = (
{
name = D;
transform = "{1, 0, 0, 1, 444, 0}";
}
);
layerId = "C698F293-3EC0-4A5A-A3A0-0FDB1F5CF265";
paths = (
{
closed = 1;
nodes = (
"336 1504 LINE",
"336 1580 LINE SMOOTH",
"336 1708 OFFCURVE",
"356 1828 OFFCURVE",
"516 1828 CURVE SMOOTH",
"712 1828 LINE",
"712 2048 LINE",
"512 2048 LINE SMOOTH",
"248 2048 OFFCURVE",
"104 1864 OFFCURVE",
"104 1640 CURVE SMOOTH",
"104 1504 LINE"
);
}
);
width = 2404;
},
{
components = (
{
name = D;
transform = "{1, 0, 0, 1, 684, 0}";
}
);
layerId = "5C20EF92-B63D-42A8-8878-93C2863E0093";
paths = (
{
closed = 1;
nodes = (
"564 1196 LINE",
"564 1344 LINE SMOOTH",
"562 1464 OFFCURVE",
"610 1576 OFFCURVE",
"780 1576 CURVE SMOOTH",
"1144 1576 LINE {name = hr00;}",
"1144 2048 LINE",
"780 2048 LINE SMOOTH",
"350 2048 OFFCURVE",
"74 1828 OFFCURVE",
"76 1440 CURVE SMOOTH",
"76 1196 LINE"
);
}
);
width = 2748;
}
);
leftKerningGroup = B;
leftMetricsKey = T;
rightKerningGroup = D;
rightMetricsKey = D;
unicode = 018A;
userData = {
interface.gridadjust.original = "{'width': 2134.0, 'leftMargin': 41, 'rightMargin': 184.0}";
};
},
{
glyphname = Dtopbar;
lastChange = "2021-06-16 15:59:25 +0000";
layers = (
{
layerId = "B1F27B51-9973-4381-9301-4FE46FE1CA59";
paths = (
{
closed = 1;
nodes = (
"1470 2048 LINE",
"358 2048 LINE",
"358 1984 LINE",
"1406 1984 LINE",
"1406 1068 LINE",
"702 1068 LINE SMOOTH",
"355 1068 OFFCURVE",
"130 867 OFFCURVE",
"130 556 CURVE SMOOTH",
"130 213 OFFCURVE",
"349 0 OFFCURVE",
"702 0 CURVE SMOOTH",
"1470 0 LINE"
);
},
{
closed = 1;
nodes = (
"702 64 LINE SMOOTH",
"382 64 OFFCURVE",
"195 247 OFFCURVE",
"194 560 CURVE SMOOTH",
"193 828 OFFCURVE",
"394 1004 OFFCURVE",
"702 1004 CURVE SMOOTH",
"1406 1004 LINE",
"1406 64 LINE"
);
}
);
width = 1600;
},
{
layerId = "C698F293-3EC0-4A5A-A3A0-0FDB1F5CF265";
paths = (
{
closed = 1;
nodes = (
"1580 2004 LINE",
"348 2004 LINE",
"348 1772 LINE",
"1296 1772 LINE",
"1296 1196 LINE",
"816 1196 LINE SMOOTH",
"376 1196 OFFCURVE",
"132 960 OFFCURVE",
"132 604 CURVE SMOOTH",
"132 248 OFFCURVE",
"376 0 OFFCURVE",
"816 0 CURVE SMOOTH",
"1580 0 LINE"
);
},
{
closed = 1;
nodes = (
"816 228 LINE SMOOTH",
"532 228 OFFCURVE",
"420 408 OFFCURVE",
"420 608 CURVE SMOOTH",
"420 804 OFFCURVE",
"532 964 OFFCURVE",
"816 964 CURVE SMOOTH",
"1296 964 LINE",
"1296 228 LINE"
);
}
);
width = 1712;
},
{
layerId = "5C20EF92-B63D-42A8-8878-93C2863E0093";
paths = (
{
closed = 1;
nodes = (
"1796 2064 LINE",
"356 2064 LINE",
"356 1628 LINE",
"1260 1628 LINE",
"1260 1360 LINE",
"1032 1360 LINE SMOOTH",
"516 1360 OFFCURVE",
"172 1092 OFFCURVE",
"172 688 CURVE SMOOTH",
"172 284 OFFCURVE",
"516 0 OFFCURVE",
"1032 0 CURVE SMOOTH",
"1796 0 LINE"
);
},
{
closed = 1;
nodes = (
"1032 428 LINE SMOOTH",
"828 428 OFFCURVE",
"708 544 OFFCURVE",
"708 692 CURVE SMOOTH",
"708 832 OFFCURVE",
"828 936 OFFCURVE",
"1032 936 CURVE SMOOTH",
"1260 936 LINE",
"1260 428 LINE"
);
}
);
width = 1964;
}
);
unicode = 018B;
userData = {
interface.gridadjust.original = "{'width': 1777, 'leftMargin': 109, 'rightMargin': 219}";
"interface.width-adjustments" = (
-16
);
};
},
{
color = (219,235,247,1);
glyphname = E;
lastChange = "2021-06-16 15:59:25 +0000";
layers = (
{
anchors = (
{
name = bottom;
position = "{792, 0}";
},
{
name = cedilla;
position = "{796, 0}";
},
{
name = ogonek;
position = "{1408, 0}";
},
{
name = tonos;
position = "{216, 2048}";
},
{
name = top;
position = "{840, 2304}";
}
);
layerId = "B1F27B51-9973-4381-9301-4FE46FE1CA59";
paths = (
{
closed = 1;
nodes = (
"1408 0 LINE",
"1408 64 LINE",
"352 64 LINE",
"352 992 LINE",
"1320 992 LINE",
"1320 1056 LINE",
"352 1056 LINE",
"352 1984 LINE",
"1380 1984 LINE",
"1380 2048 LINE",
"288 2048 LINE",
"288 0 LINE"
);
}
);
width = 1580;
},
{
anchors = (
{
name = bottom;
position = "{812, 0}";
},
{
name = cedilla;
position = "{816, 0}";
},
{
name = ogonek;
position = "{1468, 0}";
},
{
name = tonos;
position = "{152, 2048}";
},
{
name = top;
position = "{832, 2304}";
}
);
guideLines = (
{
alignment = center;
angle = 90;
position = "{980, 516}";
}
);
layerId = "C698F293-3EC0-4A5A-A3A0-0FDB1F5CF265";
paths = (
{
closed = 1;
nodes = (
"1468 0 LINE",
"1468 220 LINE",
"464 220 LINE",
"464 916 LINE",
"1388 916 LINE",
"1388 1136 LINE",
"464 1136 LINE",
"464 1828 LINE",
"1452 1828 LINE",
"1452 2048 LINE",
"216 2048 LINE",
"216 0 LINE"
);
}
);
width = 1620;
},
{
anchors = (
{
name = bottom;
position = "{876, 0}";
},
{
name = cedilla;
position = "{880, 0}";
},
{
name = ogonek;
position = "{1604, 0}";
},
{
name = tonos;
position = "{76, 2048}";
},
{
name = top;
position = "{876, 2304}";
}
);
guideLines = (
{
position = "{-136, 1360}";
},
{
alignment = center;
angle = 90;
position = "{788, 620}";
}
);
layerId = "5C20EF92-B63D-42A8-8878-93C2863E0093";
paths = (
{
closed = 1;
nodes = (
"1604 0 LINE",
"1604 448 LINE",
"688 448 LINE",
"688 800 LINE",
"1532 800 LINE",
"1532 1248 LINE",
"688 1248 LINE",
"688 1600 LINE",
"1608 1600 LINE",
"1608 2048 LINE",
"132 2048 LINE",
"132 0 LINE"
);
}
);
width = 1752;
}
);
leftKerningGroup = B;
leftMetricsKey = H;
rightKerningGroup = E;
unicode = 0045;
userData = {
"interface.width-adjustments" = (
-16
);
};
},
{
glyphname = Epsilon1;
lastChange = "2021-06-16 15:59:25 +0000";
layers = (
{
background = {
paths = (
{
closed = 1;
nodes = (
"1008 1068 LINE",
"876 1068 LINE SMOOTH",
"510 1068 OFFCURVE",
"272 1248 OFFCURVE",
"272 1522 CURVE SMOOTH",
"272 1772 OFFCURVE",
"472 1968 OFFCURVE",
"820 1968 CURVE SMOOTH",
"1126 1968 OFFCURVE",
"1312 1772 OFFCURVE",
"1352 1492 CURVE",
"1416 1492 LINE",
"1376 1808 OFFCURVE",
"1162 2032 OFFCURVE",
"820 2032 CURVE SMOOTH",
"438 2032 OFFCURVE",
"208 1808 OFFCURVE",
"208 1522 CURVE SMOOTH",
"208 1292 OFFCURVE",
"356 1103 OFFCURVE",
"668 1034 CURVE",
"1008 1034 LINE"
);
},
{
closed = 1;
nodes = (
"340 968 OFFCURVE",
"168 772 OFFCURVE",
"168 522 CURVE SMOOTH",
"168 217 OFFCURVE",
"418 -28 OFFCURVE",
"816 -28 CURVE SMOOTH",
"1198 -28 OFFCURVE",
"1443 203 OFFCURVE",
"1484 512 CURVE",
"1420 512 LINE",
"1380 236 OFFCURVE",
"1163 36 OFFCURVE",
"816 36 CURVE SMOOTH",
"451 36 OFFCURVE",
"232 259 OFFCURVE",
"232 522 CURVE SMOOTH",
"232 806 OFFCURVE",
"486 1004 OFFCURVE",
"876 1004 CURVE SMOOTH",
"1008 1004 LINE",
"1008 1046 LINE",
"654 1046 LINE"
);
}
);
};
layerId = "B1F27B51-9973-4381-9301-4FE46FE1CA59";
paths = (
{
closed = 1;
nodes = (
"976 1088 LINE",
"844 1088 LINE SMOOTH",
"478 1088 OFFCURVE",
"240 1278 OFFCURVE",
"240 1558 CURVE SMOOTH",
"240 1822 OFFCURVE",
"448 2012 OFFCURVE",
"776 2012 CURVE SMOOTH",
"1102 2012 OFFCURVE",
"1280 1816 OFFCURVE",
"1320 1536 CURVE",
"1384 1536 LINE",
"1344 1852 OFFCURVE",
"1138 2076 OFFCURVE",
"776 2076 CURVE SMOOTH",
"414 2076 OFFCURVE",
"176 1858 OFFCURVE",
"176 1558 CURVE SMOOTH",
"176 1322 OFFCURVE",
"324 1123 OFFCURVE",
"636 1054 CURVE",
"976 1054 LINE"
);
},
{
closed = 1;
nodes = (
"308 988 OFFCURVE",
"136 782 OFFCURVE",
"136 522 CURVE SMOOTH",
"136 207 OFFCURVE",
"386 -28 OFFCURVE",
"778 -28 CURVE SMOOTH",
"1166 -28 OFFCURVE",
"1411 203 OFFCURVE",
"1452 512 CURVE",
"1388 512 LINE",
"1348 236 OFFCURVE",
"1131 36 OFFCURVE",
"780 36 CURVE SMOOTH",
"419 36 OFFCURVE",
"200 249 OFFCURVE",
"200 522 CURVE SMOOTH",
"200 816 OFFCURVE",
"454 1024 OFFCURVE",
"844 1024 CURVE SMOOTH",
"976 1024 LINE",
"976 1066 LINE",
"622 1066 LINE"
);
}
);
width = 1568;
},
{
background = {
paths = (
{
closed = 1;
nodes = (
"1112 1136 LINE",
"888 1136 LINE SMOOTH",
"592 1136 OFFCURVE",
"480 1272 OFFCURVE",
"480 1464 CURVE SMOOTH",
"480 1652 OFFCURVE",
"608 1800 OFFCURVE",
"908 1800 CURVE SMOOTH",
"1136 1800 OFFCURVE",
"1300 1668 OFFCURVE",
"1300 1480 CURVE",
"1584 1480 LINE",
"1584 1820 OFFCURVE",
"1276 2032 OFFCURVE",
"908 2032 CURVE SMOOTH",
"480 2032 OFFCURVE",
"196 1832 OFFCURVE",
"196 1460 CURVE SMOOTH",
"196 1144 OFFCURVE",
"480 960 OFFCURVE",
"880 960 CURVE",
"1112 960 LINE"
);
},
{
closed = 1;
nodes = (
"432 1080 OFFCURVE",
"164 896 OFFCURVE",
"164 560 CURVE SMOOTH",
"164 140 OFFCURVE",
"488 -28 OFFCURVE",
"908 -28 CURVE SMOOTH",
"1252 -28 OFFCURVE",
"1612 148 OFFCURVE",
"1612 556 CURVE",
"1328 556 LINE",
"1328 360 OFFCURVE",
"1168 200 OFFCURVE",
"908 200 CURVE SMOOTH",
"628 200 OFFCURVE",
"452 316 OFFCURVE",
"452 556 CURVE SMOOTH",
"452 800 OFFCURVE",
"600 908 OFFCURVE",
"888 908 CURVE SMOOTH",
"1112 908 LINE",
"1112 1080 LINE",
"880 1080 LINE"
);
}
);
};
layerId = "C698F293-3EC0-4A5A-A3A0-0FDB1F5CF265";
paths = (
{
closed = 1;
nodes = (
"1080 1156 LINE",
"856 1156 LINE SMOOTH",
"560 1156 OFFCURVE",
"448 1326 OFFCURVE",
"448 1504 CURVE SMOOTH",
"448 1706 OFFCURVE",
"590 1844 OFFCURVE",
"862 1844 CURVE SMOOTH",
"1118 1844 OFFCURVE",
"1268 1712 OFFCURVE",
"1268 1524 CURVE",
"1552 1524 LINE",
"1552 1864 OFFCURVE",
"1266 2076 OFFCURVE",
"862 2076 CURVE SMOOTH",
"470 2076 OFFCURVE",
"164 1866 OFFCURVE",
"164 1514 CURVE SMOOTH",
"164 1178 OFFCURVE",
"448 980 OFFCURVE",
"848 980 CURVE",
"1080 980 LINE"
);
},
{
closed = 1;
nodes = (
"400 1100 OFFCURVE",
"132 916 OFFCURVE",
"132 544 CURVE SMOOTH",
"132 140 OFFCURVE",
"472 -28 OFFCURVE",
"852 -28 CURVE SMOOTH",
"1236 -28 OFFCURVE",
"1580 148 OFFCURVE",
"1580 556 CURVE",
"1296 556 LINE",
"1296 360 OFFCURVE",
"1150 200 OFFCURVE",
"850 200 CURVE SMOOTH",
"610 200 OFFCURVE",
"420 304 OFFCURVE",
"420 564 CURVE SMOOTH",
"420 808 OFFCURVE",
"568 928 OFFCURVE",
"856 928 CURVE SMOOTH",
"1080 928 LINE",
"1080 1100 LINE",
"848 1100 LINE"
);
}
);
width = 1712;
},
{
background = {
paths = (
{
closed = 1;
nodes = (
"1244 1224 LINE",
"976 1224 LINE SMOOTH",
"814 1224 OFFCURVE",
"726 1284 OFFCURVE",
"728 1440 CURVE SMOOTH",
"726 1536 OFFCURVE",
"810 1600 OFFCURVE",
"996 1600 CURVE SMOOTH",
"1138 1600 OFFCURVE",
"1238 1568 OFFCURVE",
"1240 1452 CURVE",
"1776 1452 LINE",
"1774 1812 OFFCURVE",
"1414 2032 OFFCURVE",
"996 2032 CURVE SMOOTH",
"514 2032 OFFCURVE",
"186 1832 OFFCURVE",
"188 1460 CURVE SMOOTH",
"186 1160 OFFCURVE",
"490 960 OFFCURVE",
"876 960 CURVE",
"1244 960 LINE {name = hr00;}"
);
},
{
closed = 1;
nodes = (
"430 1080 OFFCURVE",
"154 896 OFFCURVE",
"156 560 CURVE SMOOTH",
"154 164 OFFCURVE",
"494 -28 OFFCURVE",
"996 -28 CURVE SMOOTH",
"1386 -28 OFFCURVE",
"1806 148 OFFCURVE",
"1808 556 CURVE",
"1268 556 LINE",
"1266 456 OFFCURVE",
"1166 400 OFFCURVE",
"996 400 CURVE SMOOTH",
"826 400 OFFCURVE",
"694 444 OFFCURVE",
"696 580 CURVE SMOOTH",
"694 776 OFFCURVE",
"806 820 OFFCURVE",
"976 820 CURVE SMOOTH",
"1244 820 LINE",
"1244 1080 LINE",
"876 1080 LINE"
);
}
);
};
layerId = "5C20EF92-B63D-42A8-8878-93C2863E0093";
paths = (
{
closed = 1;
nodes = (
"1244 1244 LINE",
"976 1244 LINE SMOOTH",
"805 1244 OFFCURVE",
"726 1312 OFFCURVE",
"726 1444 CURVE SMOOTH",
"726 1583 OFFCURVE",
"809 1644 OFFCURVE",
"994 1644 CURVE SMOOTH",
"1156 1644 OFFCURVE",
"1238 1598 OFFCURVE",
"1240 1496 CURVE",
"1776 1496 LINE",
"1774 1832 OFFCURVE",
"1446 2076 OFFCURVE",
"996 2076 CURVE SMOOTH",
"486 2076 OFFCURVE",
"186 1855 OFFCURVE",
"186 1480 CURVE SMOOTH",
"186 1190 OFFCURVE",
"476 980 OFFCURVE",
"876 980 CURVE",
"1244 980 LINE {name = hr00;}"
);
},
{
closed = 1;
nodes = (
"420 1100 OFFCURVE",
"154 909 OFFCURVE",
"154 580 CURVE SMOOTH",
"154 191 OFFCURVE",
"457 -28 OFFCURVE",
"996 -28 CURVE SMOOTH",
"1474 -28 OFFCURVE",
"1806 211 OFFCURVE",
"1808 556 CURVE",
"1268 556 LINE",
"1266 457 OFFCURVE",
"1167 400 OFFCURVE",
"976 400 CURVE SMOOTH",
"793 400 OFFCURVE",
"694 456 OFFCURVE",
"694 614 CURVE SMOOTH",
"694 760 OFFCURVE",
"776 840 OFFCURVE",
"976 840 CURVE SMOOTH",
"1244 840 LINE",
"1244 1100 LINE",
"876 1100 LINE"
);
}
);
width = 1964;
}
);
unicode = 0190;
userData = {
interface.gridadjust.original = "{'width': 1671, 'leftMargin': 114, 'rightMargin': 108}";
"interface.width-adjustments" = (
-16
);
};
},
{
glyphname = Ezh;
lastChange = "2021-06-16 15:59:25 +0000";
layers = (
{
anchors = (
{
name = top;
position = "{944, 2304}";
}
);
background = {
paths = (
{
closed = 1;
nodes = (
"172 -292 OFFCURVE",
"519 -584 OFFCURVE",
"952 -584 CURVE SMOOTH",
"1451 -584 OFFCURVE",
"1736 -192 OFFCURVE",
"1736 212 CURVE SMOOTH",
"1736 676 OFFCURVE",
"1360 1032 OFFCURVE",
"808 1056 CURVE",
"808 1064 LINE",
"1668 1996 LINE",
"1668 2048 LINE",
"280 2048 LINE",
"280 1984 LINE",
"1604 1984 LINE",
"1604 2021 LINE",
"712 1056 LINE",
"712 992 LINE",
"805 992 LINE SMOOTH",
"1315 970 OFFCURVE",
"1672 648 OFFCURVE",
"1672 212 CURVE SMOOTH",
"1672 -209 OFFCURVE",
"1367 -520 OFFCURVE",
"952 -520 CURVE SMOOTH",
"547 -520 OFFCURVE",
"236 -250 OFFCURVE",
"236 100 CURVE",
"172 100 LINE"
);
}
);
};
layerId = "B1F27B51-9973-4381-9301-4FE46FE1CA59";
paths = (
{
closed = 1;
nodes = (
"140 -316 OFFCURVE",
"487 -608 OFFCURVE",
"920 -608 CURVE SMOOTH",
"1419 -608 OFFCURVE",
"1704 -216 OFFCURVE",
"1704 198 CURVE SMOOTH",
"1704 676 OFFCURVE",
"1328 1032 OFFCURVE",
"776 1056 CURVE",
"776 1064 LINE",
"1636 1996 LINE",
"1636 2048 LINE",
"248 2048 LINE",
"248 1984 LINE",
"1572 1984 LINE",
"1572 2022 LINE",
"680 1056 LINE",
"680 992 LINE",
"774 992 LINE SMOOTH",
"1283 970 OFFCURVE",
"1640 648 OFFCURVE",
"1640 198 CURVE SMOOTH",
"1640 -233 OFFCURVE",
"1335 -544 OFFCURVE",
"920 -544 CURVE SMOOTH",
"515 -544 OFFCURVE",
"204 -274 OFFCURVE",
"204 100 CURVE",
"140 100 LINE"
);
}
);
width = 1888;
},
{
anchors = (
{
name = top;
position = "{932, 2304}";
}
);
associatedMasterId = "C698F293-3EC0-4A5A-A3A0-0FDB1F5CF265";
guideLines = (
{
position = "{968, -356}";
}
);
layerId = "D009BD30-45A0-479A-BCCE-7610B0B5C5D4";
name = "Dec 31 18, 16:46";
paths = (
{
closed = 1;
nodes = (
"1340 -576 OFFCURVE",
"1700 -220 OFFCURVE",
"1700 220 CURVE SMOOTH",
"1700 638 OFFCURVE",
"1373 980 OFFCURVE",
"864 1000 CURVE",
"864 1016 LINE",
"1608 1868 LINE",
"1608 2048 LINE",
"164 2048 LINE",
"164 1828 LINE",
"1268 1828 LINE",
"1268 1812 LINE",
"548 988 LINE",
"548 776 LINE",
"784 776 LINE SMOOTH",
"1216 776 OFFCURVE",
"1472 540 OFFCURVE",
"1472 220 CURVE SMOOTH",
"1472 -100 OFFCURVE",
"1216 -348 OFFCURVE",
"884 -348 CURVE SMOOTH",
"584 -348 OFFCURVE",
"400 -144 OFFCURVE",
"380 96 CURVE",
"136 96 LINE",
"140 -284 OFFCURVE",
"464 -576 OFFCURVE",
"884 -576 CURVE SMOOTH"
);
}
);
width = 1860;
},
{
associatedMasterId = "C698F293-3EC0-4A5A-A3A0-0FDB1F5CF265";
layerId = "9E2C8951-9EEE-4515-A9C2-D17B826F81BB";
name = "Oct 9 18, 17:17";
paths = (
{
closed = 1;
nodes = (
"156 -280 OFFCURVE",
"384 -572 OFFCURVE",
"872 -572 CURVE SMOOTH",
"1344 -572 OFFCURVE",
"1664 -340 OFFCURVE",
"1664 220 CURVE SMOOTH",
"1664 784 OFFCURVE",
"1348 1016 OFFCURVE",
"848 1016 CURVE SMOOTH",
"568 1016 LINE",
"568 796 LINE",
"848 796 LINE SMOOTH",
"1204 796 OFFCURVE",
"1380 644 OFFCURVE",
"1380 220 CURVE SMOOTH",
"1380 -164 OFFCURVE",
"1232 -344 OFFCURVE",
"872 -344 CURVE SMOOTH",
"536 -344 OFFCURVE",
"448 -184 OFFCURVE",
"400 92 CURVE",
"112 92 LINE"
);
},
{
closed = 1;
nodes = (
"1560 2004 LINE",
"1432 2004 LINE",
"540 1004 LINE",
"540 796 LINE",
"664 796 LINE",
"1560 1800 LINE"
);
},
{
closed = 1;
nodes = (
"164 2004 LINE",
"164 1772 LINE",
"1440 1772 LINE",
"1440 2004 LINE"
);
}
);
width = 1776;
},
{
anchors = (
{
name = top;
position = "{928, 2304}";
}
);
background = {
paths = (
{
closed = 1;
nodes = (
"159 -293 OFFCURVE",
"505 -576 OFFCURVE",
"944 -576 CURVE SMOOTH",
"1433 -576 OFFCURVE",
"1760 -218 OFFCURVE",
"1760 268 CURVE SMOOTH",
"1760 750 OFFCURVE",
"1439 1092 OFFCURVE",
"984 1112 CURVE",
"984 1132 LINE",
"1708 1868 LINE",
"1708 2048 LINE",
"252 2048 LINE",
"252 1824 LINE",
"1364 1824 LINE",
"1364 1808 LINE",
"680 1124 LINE",
"680 916 LINE",
"832 916 LINE SMOOTH",
"1233 916 OFFCURVE",
"1516 657 OFFCURVE",
"1516 268 CURVE SMOOTH",
"1516 -86 OFFCURVE",
"1296 -352 OFFCURVE",
"948 -352 CURVE SMOOTH",
"654 -352 OFFCURVE",
"407 -161 OFFCURVE",
"388 108 CURVE",
"136 108 LINE"
);
}
);
};
guideLines = (
{
position = "{992, -356}";
}
);
layerId = "C698F293-3EC0-4A5A-A3A0-0FDB1F5CF265";
paths = (
{
closed = 1;
nodes = (
"127 -323 OFFCURVE",
"473 -606 OFFCURVE",
"912 -606 CURVE SMOOTH",
"1401 -606 OFFCURVE",
"1728 -248 OFFCURVE",
"1728 248 CURVE SMOOTH",
"1728 730 OFFCURVE",
"1407 1072 OFFCURVE",
"952 1092 CURVE",
"952 1112 LINE",
"1676 1868 LINE",
"1676 2048 LINE",
"220 2048 LINE",
"220 1824 LINE",
"1332 1824 LINE",
"1332 1808 LINE",
"648 1104 LINE",
"648 896 LINE",
"800 896 LINE SMOOTH",
"1201 896 OFFCURVE",
"1484 643 OFFCURVE",
"1484 244 CURVE SMOOTH",
"1484 -110 OFFCURVE",
"1264 -382 OFFCURVE",
"916 -382 CURVE SMOOTH",
"622 -382 OFFCURVE",
"375 -191 OFFCURVE",
"356 88 CURVE",
"104 88 LINE"
);
}
);
width = 1856;
},
{
anchors = (
{
name = top;
position = "{972, 2304}";
}
);
background = {
paths = (
{
closed = 1;
nodes = (
"84 -228 OFFCURVE",
"478 -544 OFFCURVE",
"968 -544 CURVE SMOOTH",
"1530 -544 OFFCURVE",
"1876 -125 OFFCURVE",
"1876 344 CURVE SMOOTH",
"1876 675 OFFCURVE",
"1704 1072 OFFCURVE",
"1196 1128 CURVE",
"1196 1148 LINE",
"1824 1648 LINE",
"1824 2048 LINE",
"188 2048 LINE",
"188 1592 LINE",
"1156 1592 LINE",
"1156 1576 LINE",
"660 1184 LINE",
"660 800 LINE",
"928 800 LINE SMOOTH",
"1152 800 OFFCURVE",
"1292 609 OFFCURVE",
"1292 380 CURVE SMOOTH",
"1292 181 OFFCURVE",
"1197 -84 OFFCURVE",
"972 -84 CURVE SMOOTH",
"821 -84 OFFCURVE",
"644 36 OFFCURVE",
"636 228 CURVE",
"76 228 LINE"
);
}
);
};
layerId = "5C20EF92-B63D-42A8-8878-93C2863E0093";
paths = (
{
closed = 1;
nodes = (
"84 -274 OFFCURVE",
"458 -608 OFFCURVE",
"968 -608 CURVE SMOOTH",
"1494 -608 OFFCURVE",
"1876 -225 OFFCURVE",
"1876 304 CURVE SMOOTH",
"1876 734 OFFCURVE",
"1609 1043 OFFCURVE",
"1196 1088 CURVE",
"1196 1108 LINE",
"1824 1648 LINE",
"1824 2048 LINE",
"188 2048 LINE",
"188 1592 LINE",
"1156 1592 LINE",
"1156 1576 LINE",
"660 1144 LINE",
"660 760 LINE",
"928 760 LINE SMOOTH",
"1139 760 OFFCURVE",
"1292 584 OFFCURVE",
"1292 294 CURVE SMOOTH",
"1292 36 OFFCURVE",
"1173 -148 OFFCURVE",
"960 -148 CURVE SMOOTH",
"778 -148 OFFCURVE",
"644 -13 OFFCURVE",
"636 188 CURVE",
"76 188 LINE"
);
}
);
width = 1940;
},
{
associatedMasterId = "5C20EF92-B63D-42A8-8878-93C2863E0093";
layerId = "AE9CF621-502D-400E-91F7-8C8A1C2204F7";
name = "Oct 9 18, 18:32";
paths = (
{
closed = 1;
nodes = (
"291 -324 OFFCURVE",
"643 -612 OFFCURVE",
"1160 -612 CURVE SMOOTH",
"1719 -612 OFFCURVE",
"2059 -244 OFFCURVE",
"2060 316 CURVE SMOOTH",
"2059 872 OFFCURVE",
"1699 1240 OFFCURVE",
"1168 1240 CURVE SMOOTH",
"872 1240 LINE",
"872 828 LINE",
"1168 828 LINE SMOOTH",
"1371 828 OFFCURVE",
"1523 736 OFFCURVE",
"1524 316 CURVE SMOOTH",
"1523 -24 OFFCURVE",
"1415 -180 OFFCURVE",
"1160 -180 CURVE SMOOTH",
"951 -180 OFFCURVE",
"815 -112 OFFCURVE",
"808 108 CURVE",
"272 108 LINE"
);
},
{
closed = 1;
nodes = (
"1896 2004 LINE",
"1568 2004 LINE",
"740 1092 LINE",
"740 828 LINE",
"1088 828 LINE",
"1896 1744 LINE"
);
},
{
closed = 1;
nodes = (
"252 2004 LINE",
"252 1572 LINE",
"1732 1572 LINE",
"1732 2004 LINE"
);
}
);
width = 2328;
}
);
leftMetricsKey = T;
rightKerningGroup = B;
rightMetricsKey = B;
unicode = 01B7;
userData = {
interface.gridadjust.original = "{'width': 1821, 'leftMargin': 110, 'rightMargin': 160}";
"interface.width-adjustments" = (
-16
);
};
},
{
glyphname = Ezhreversed;
lastChange = "2021-06-16 15:59:25 +0000";
layers = (
{
anchors = (
{
name = top;
position = "{944, 2304}";
}
);
layerId = "B1F27B51-9973-4381-9301-4FE46FE1CA59";
paths = (
{
closed = 1;
nodes = (
"1684 100 LINE",
"1684 -274 OFFCURVE",
"1373 -544 OFFCURVE",
"968 -544 CURVE SMOOTH",
"553 -544 OFFCURVE",
"248 -233 OFFCURVE",
"248 198 CURVE SMOOTH",
"248 648 OFFCURVE",
"605 970 OFFCURVE",
"1116 992 CURVE SMOOTH",
"1208 992 LINE",
"1208 1056 LINE",
"316 2022 LINE",
"316 1984 LINE",
"1640 1984 LINE",
"1640 2048 LINE",
"252 2048 LINE",
"252 1996 LINE",
"1112 1064 LINE",
"1112 1056 LINE",
"560 1032 OFFCURVE",
"184 676 OFFCURVE",
"184 198 CURVE SMOOTH",
"184 -216 OFFCURVE",
"469 -608 OFFCURVE",
"968 -608 CURVE SMOOTH",
"1401 -608 OFFCURVE",
"1748 -316 OFFCURVE",
"1748 100 CURVE"
);
}
);
width = 1888;
},
{
anchors = (
{
name = top;
position = "{928, 2304}";
}
);
layerId = "C698F293-3EC0-4A5A-A3A0-0FDB1F5CF265";
paths = (
{
closed = 1;
nodes = (
"1500 88 LINE",
"1481 -191 OFFCURVE",
"1234 -382 OFFCURVE",
"940 -382 CURVE SMOOTH",
"592 -382 OFFCURVE",
"372 -110 OFFCURVE",
"372 244 CURVE SMOOTH",
"372 643 OFFCURVE",
"655 896 OFFCURVE",
"1056 896 CURVE SMOOTH",
"1208 896 LINE",
"1208 1104 LINE",
"524 1808 LINE",
"524 1824 LINE",
"1636 1824 LINE",
"1636 2048 LINE",
"180 2048 LINE",
"180 1868 LINE",
"904 1112 LINE",
"904 1092 LINE",
"449 1072 OFFCURVE",
"128 730 OFFCURVE",
"128 248 CURVE SMOOTH",
"128 -248 OFFCURVE",
"455 -606 OFFCURVE",
"944 -606 CURVE SMOOTH",
"1383 -606 OFFCURVE",
"1729 -323 OFFCURVE",
"1752 88 CURVE"
);
}
);
width = 1856;
},
{
anchors = (
{
name = top;
position = "{968, 2304}";
}
);
layerId = "5C20EF92-B63D-42A8-8878-93C2863E0093";
paths = (
{
closed = 1;
nodes = (
"1304 188 LINE",
"1296 -13 OFFCURVE",
"1162 -148 OFFCURVE",
"980 -148 CURVE SMOOTH",
"767 -148 OFFCURVE",
"648 36 OFFCURVE",
"648 294 CURVE SMOOTH",
"648 584 OFFCURVE",
"801 760 OFFCURVE",
"1012 760 CURVE SMOOTH",
"1280 760 LINE",
"1280 1144 LINE",
"784 1576 LINE",
"784 1592 LINE",
"1752 1592 LINE",
"1752 2048 LINE",
"116 2048 LINE",
"116 1648 LINE",
"744 1108 LINE",
"744 1088 LINE",
"331 1043 OFFCURVE",
"64 734 OFFCURVE",
"64 304 CURVE SMOOTH",
"64 -225 OFFCURVE",
"446 -608 OFFCURVE",
"972 -608 CURVE SMOOTH",
"1482 -608 OFFCURVE",
"1856 -274 OFFCURVE",
"1864 188 CURVE"
);
}
);
width = 1940;
}
);
leftMetricsKey = "=|Ezh";
note = "mirror of Ezh";
rightMetricsKey = "=|Ezh";
unicode = 01B8;
userData = {
interface.gridadjust.original = "{'width': 1821, 'leftMargin': 160, 'rightMargin': 110}";
"interface.width-adjustments" = (
-16
);
};
},
{
color = (219,235,247,1);
glyphname = F;
lastChange = "2021-06-16 15:59:25 +0000";
layers = (
{
anchors = (
{
name = bottom;
position = "{668, 16}";
},
{
name = cross;
position = "{320, 564}";
},
{
name = top;
position = "{840, 2304}";
}
);
guideLines = (
{
angle = 90;
position = "{736, 2804}";
}
);
layerId = "B1F27B51-9973-4381-9301-4FE46FE1CA59";
paths = (
{
closed = 1;
nodes = (
"352 0 LINE",
"352 992 LINE",
"1292 992 LINE",
"1292 1056 LINE",
"352 1056 LINE",
"352 1984 LINE",
"1388 1984 LINE",
"1388 2048 LINE",
"288 2048 LINE",
"288 0 LINE"
);
}
);
width = 1584;
},
{
anchors = (
{
name = bottom;
position = "{736, 16}";
},
{
name = cross;
position = "{340, 480}";
},
{
name = top;
position = "{856, 2304}";
}
);
background = {
components = (
{
name = E;
}
);
};
layerId = "C698F293-3EC0-4A5A-A3A0-0FDB1F5CF265";
paths = (
{
closed = 1;
nodes = (
"464 0 LINE",
"464 916 LINE",
"1352 916 LINE",
"1352 1136 LINE",
"464 1136 LINE",
"464 1828 LINE",
"1444 1828 LINE",
"1444 2048 LINE",
"216 2048 LINE",
"216 0 LINE"
);
}
);
width = 1588;
},
{
anchors = (
{
name = bottom;
position = "{884, 16}";
},
{
name = cross;
position = "{408, 344}";
},
{
name = top;
position = "{856, 2304}";
}
);
background = {
components = (
{
name = E;
}
);
};
guideLines = (
{
position = "{-136, 1320}";
}
);
layerId = "5C20EF92-B63D-42A8-8878-93C2863E0093";
paths = (
{
closed = 1;
nodes = (
"688 0 LINE",
"688 800 LINE",
"1484 800 LINE",
"1484 1248 LINE",
"688 1248 LINE",
"688 1600 LINE",
"1572 1600 LINE",
"1572 2048 LINE",
"132 2048 LINE",
"132 0 LINE"
);
}
);
width = 1644;
}
);
leftKerningGroup = B;
leftMetricsKey = H;
rightKerningGroup = F;
unicode = 0046;
userData = {
"interface.width-adjustments" = (
-16
);
};
},
{
glyphname = Fhook;
lastChange = "2021-06-16 15:59:25 +0000";
layers = (
{
components = (
{
alignment = -1;
name = F;
transform = "{1, 0, 0, 1, -64, 0}";
}
);
layerId = "B1F27B51-9973-4381-9301-4FE46FE1CA59";
paths = (
{
closed = 1;
nodes = (
"224 -232 LINE SMOOTH",
"224 -418 OFFCURVE",
"154 -508 OFFCURVE",
"10 -508 CURVE SMOOTH",
"-20 -508 OFFCURVE",
"-44 -505 OFFCURVE",
"-62 -500 CURVE",
"-62 -564 LINE",
"-43 -569 OFFCURVE",
"-14 -572 OFFCURVE",
"16 -572 CURVE SMOOTH",
"192 -572 OFFCURVE",
"288 -452 OFFCURVE",
"288 -232 CURVE SMOOTH",
"288 0 LINE",
"224 0 LINE"
);
}
);
width = 1520;
},
{
associatedMasterId = "B1F27B51-9973-4381-9301-4FE46FE1CA59";
components = (
{
alignment = -1;
name = F;
transform = "{1, 0, 0, 1, -64, 0}";
}
);
layerId = "B08EE6A4-275D-4A05-9DD6-ADCA275F0D13";
name = "Dec 29 18, 23:39";
paths = (
{
closed = 0;
nodes = (
"-36 -524 LINE",
"-16 -536 OFFCURVE",
"-2 -540 OFFCURVE",
"32 -540 CURVE SMOOTH",
"204 -540 OFFCURVE",
"288 -436 OFFCURVE",
"288 -232 CURVE SMOOTH",
"288 0 LINE"
);
}
);
width = 1594;
},
{
components = (
{
name = F;
}
);
layerId = "C698F293-3EC0-4A5A-A3A0-0FDB1F5CF265";
paths = (
{
closed = 1;
nodes = (
"216 -160 LINE SMOOTH",
"216 -320 OFFCURVE",
"124 -368 OFFCURVE",
"-4 -368 CURVE SMOOTH",
"-32 -368 OFFCURVE",
"-60 -364 OFFCURVE",
"-80 -360 CURVE",
"-80 -564 LINE",
"-20 -576 OFFCURVE",
"-20 -576 OFFCURVE",
"-4 -576 CURVE SMOOTH",
"304 -576 OFFCURVE",
"464 -428 OFFCURVE",
"464 -164 CURVE SMOOTH",
"464 0 LINE",
"216 0 LINE"
);
}
);
width = 1588;
},
{
components = (
{
name = F;
transform = "{1, 0, 0, 1, 104, 0}";
}
);
layerId = "5C20EF92-B63D-42A8-8878-93C2863E0093";
paths = (
{
closed = 1;
nodes = (
"236 -48 LINE SMOOTH",
"236 -140 OFFCURVE",
"130 -160 OFFCURVE",
"28 -160 CURVE",
"6 -160 OFFCURVE",
"-34 -164 OFFCURVE",
"-64 -160 CURVE",
"-64 -568 LINE",
"-6 -576 OFFCURVE",
"122 -576 OFFCURVE",
"176 -576 CURVE",
"466 -576 OFFCURVE",
"792 -532 OFFCURVE",
"792 -48 CURVE SMOOTH",
"792 0 LINE",
"236 0 LINE"
);
}
);
width = 1748;
}
);
leftKerningGroup = jdotless;
rightKerningGroup = F;
rightMetricsKey = F;
unicode = 0191;
userData = {
interface.gridadjust.original = "{'width': 1645, 'leftMargin': 0, 'rightMargin': 31}";
"interface.width-adjustments" = (
-16
);
};
},
{
color = (219,235,247,1);
glyphname = G;
lastChange = "2021-06-16 15:59:25 +0000";
layers = (
{
anchors = (
{
name = bottom;
position = "{1008, 0}";
},
{
name = top;
position = "{1008, 2304}";
}
);
guideLines = (
{
position = "{1736, 1992}";
}
);
layerId = "B1F27B51-9973-4381-9301-4FE46FE1CA59";
paths = (
{
closed = 1;
nodes = (
"1804 1408 LINE",
"1756 1700 OFFCURVE",
"1499 2076 OFFCURVE",
"1020 2076 CURVE SMOOTH",
"512 2076 OFFCURVE",
"172 1654 OFFCURVE",
"172 1024 CURVE SMOOTH",
"172 397 OFFCURVE",
"508 -28 OFFCURVE",
"1028 -28 CURVE SMOOTH",
"1488 -28 OFFCURVE",
"1820 304 OFFCURVE",
"1820 864 CURVE SMOOTH",
"1820 928 LINE",
"1048 928 LINE",
"1048 864 LINE",
"1784 864 LINE",
"1756 888 LINE",
"1764 352 OFFCURVE",
"1456 36 OFFCURVE",
"1028 36 CURVE SMOOTH",
"544 36 OFFCURVE",
"236 439 OFFCURVE",
"236 1024 CURVE SMOOTH",
"236 1616 OFFCURVE",
"550 2012 OFFCURVE",
"1020 2012 CURVE SMOOTH",
"1441 2012 OFFCURVE",
"1691 1687 OFFCURVE",
"1740 1408 CURVE"
);
}
);
width = 2016;
},
{
anchors = (
{
name = bottom;
position = "{1028, 0}";
},
{
name = top;
position = "{1032, 2304}";
}
);
background = {
components = (
{
name = C;
}
);
};
guideLines = (
{
position = "{1816, 1408}";
},
{
angle = 90;
position = "{1828, 1304}";
},
{
angle = 90;
position = "{992, 1644}";
}
);
layerId = "C698F293-3EC0-4A5A-A3A0-0FDB1F5CF265";
paths = (
{
closed = 1;
nodes = (
"1872 1408 LINE",
"1796 1804 OFFCURVE",
"1464 2076 OFFCURVE",
"1032 2076 CURVE SMOOTH",
"507 2076 OFFCURVE",
"136 1672 OFFCURVE",
"136 1024 CURVE SMOOTH",
"136 376 OFFCURVE",
"504 -28 OFFCURVE",
"1048 -28 CURVE SMOOTH",
"1536 -28 OFFCURVE",
"1884 297 OFFCURVE",
"1884 804 CURVE SMOOTH",
"1884 1024 LINE",
"1104 1024 LINE",
"1104 804 LINE",
"1720 804 LINE",
"1644 820 LINE",
"1644 443 OFFCURVE",
"1400 204 OFFCURVE",
"1048 204 CURVE SMOOTH",
"668 204 OFFCURVE",
"376 492 OFFCURVE",
"376 1024 CURVE SMOOTH",
"376 1556 OFFCURVE",
"668 1844 OFFCURVE",
"1032 1844 CURVE SMOOTH",
"1328 1844 OFFCURVE",
"1529 1677 OFFCURVE",
"1616 1408 CURVE"
);
}
);
width = 2028;
},
{
anchors = (
{
name = bottom;
position = "{1104, 8}";
},
{
name = top;
position = "{1108, 2304}";
}
);
background = {
components = (
{
name = C;
}
);
};
guideLines = (
{
angle = 7.9575;
position = "{888, 1320}";
},
{
alignment = center;
angle = 90;
position = "{888, 528}";
},
{
position = "{1224, 756}";
}
);
layerId = "5C20EF92-B63D-42A8-8878-93C2863E0093";
paths = (
{
closed = 1;
nodes = (
"2024 1372 LINE",
"1981 1783 OFFCURVE",
"1608 2076 OFFCURVE",
"1124 2076 CURVE SMOOTH",
"572 2076 OFFCURVE",
"124 1696 OFFCURVE",
"124 1020 CURVE SMOOTH",
"124 372 OFFCURVE",
"530 -28 OFFCURVE",
"1128 -28 CURVE SMOOTH",
"1664 -28 OFFCURVE",
"2048 300 OFFCURVE",
"2048 860 CURVE SMOOTH",
"2048 1144 LINE",
"1140 1144 LINE",
"1140 748 LINE",
"1608 748 LINE",
"1512 758 LINE",
"1512 574 OFFCURVE",
"1386 456 OFFCURVE",
"1132 456 CURVE SMOOTH",
"844 456 OFFCURVE",
"696 668 OFFCURVE",
"696 1028 CURVE SMOOTH",
"696 1383 OFFCURVE",
"856 1592 OFFCURVE",
"1136 1592 CURVE SMOOTH",
"1310 1592 OFFCURVE",
"1428 1512 OFFCURVE",
"1462 1372 CURVE"
);
}
);
width = 2176;
}
);
leftKerningGroup = C;
leftMetricsKey = O;
rightKerningGroup = G;
unicode = 0047;
userData = {
com.typemytype.robofont.guideline.magnetic.DBpTQJmUAf = 5;
com.typemytype.robofont.guideline.magnetic.Mdeh49HlEG = 5;
com.typemytype.robofont.guideline.magnetic.iFgX6ho5qJ = 5;
"interface.width-adjustments" = (
-16
);
};
},
{
glyphname = Gbar;
lastChange = "2021-06-16 15:59:25 +0000";
layers = (
{
components = (
{
name = G;
}
);
layerId = "B1F27B51-9973-4381-9301-4FE46FE1CA59";
paths = (
{
closed = 1;
nodes = (
"1048 560 LINE",
"1048 496 LINE",
"1968 496 LINE",
"1968 560 LINE"
);
}
);
width = 2016;
},
{
components = (
{
name = G;
}
);
guideLines = (
{
angle = 90;
position = "{1104, 744}";
},
{
angle = 90;
position = "{1008, 148}";
}
);
layerId = "C698F293-3EC0-4A5A-A3A0-0FDB1F5CF265";
paths = (
{
closed = 1;
nodes = (
"1104 624 LINE",
"1104 424 LINE",
"2024 424 LINE",
"2024 624 LINE"
);
}
);
width = 2028;
},
{
components = (
{
name = G;
}
);
layerId = "5C20EF92-B63D-42A8-8878-93C2863E0093";
paths = (
{
closed = 1;
nodes = (
"1140 688 LINE",
"1140 564 LINE",
"2112 564 LINE",
"2112 688 LINE"
);
}
);
width = 2176;
}
);
leftKerningGroup = C;
leftMetricsKey = G;
rightKerningGroup = G;
unicode = 01E4;
userData = {
com.typemytype.robofont.guideline.magnetic.L529Uh5F2Z = 5;
com.typemytype.robofont.guideline.magnetic.aP8dy3XBkq = 5;
interface.gridadjust.original = "{'width': 1917, 'leftMargin': 256, 'rightMargin': 7}";
"interface.width-adjustments" = (
-16
);
};
},
{
glyphname = Ghook;
lastChange = "2021-06-16 15:59:25 +0000";
layers = (
{
components = (
{
alignment = -1;
name = G;
}
);
layerId = "B1F27B51-9973-4381-9301-4FE46FE1CA59";
paths = (
{
closed = 1;
nodes = (
"1804 1640 LINE SMOOTH",
"1804 1809 OFFCURVE",
"1853 1872 OFFCURVE",
"1994 1872 CURVE SMOOTH",
"2020 1872 OFFCURVE",
"2057 1870 OFFCURVE",
"2092 1866 CURVE",
"2092 1930 LINE",
"2058 1934 OFFCURVE",
"2021 1936 OFFCURVE",
"1994 1936 CURVE SMOOTH",
"1818 1936 OFFCURVE",
"1740 1847 OFFCURVE",
"1740 1640 CURVE SMOOTH",
"1740 1408 LINE",
"1804 1408 LINE {name = hr00;}"
);
}
);
width = 1940;
},
{
components = (
{
name = G;
}
);
layerId = "C698F293-3EC0-4A5A-A3A0-0FDB1F5CF265";
paths = (
{
closed = 1;
nodes = (
"1868 1624 LINE SMOOTH",
"1868 1784 OFFCURVE",
"1964 1832 OFFCURVE",
"2092 1832 CURVE SMOOTH",
"2120 1832 OFFCURVE",
"2148 1828 OFFCURVE",
"2168 1824 CURVE",
"2168 2024 LINE",
"2132 2036 OFFCURVE",
"2080 2036 OFFCURVE",
"2032 2036 CURVE SMOOTH",
"1776 2036 OFFCURVE",
"1644 1888 OFFCURVE",
"1628 1624 CURVE SMOOTH",
"1616 1408 LINE",
"1868 1408 LINE"
);
}
);
width = 2112;
},
{
components = (
{
name = G;
}
);
guideLines = (
{
angle = 90;
position = "{1724, 996}";
}
);
layerId = "5C20EF92-B63D-42A8-8878-93C2863E0093";
paths = (
{
closed = 1;
nodes = (
"2024 1748 LINE SMOOTH",
"2024 1920 OFFCURVE",
"2168 1944 OFFCURVE",
"2316 1944 CURVE SMOOTH",
"2364 1944 OFFCURVE",
"2412 1936 OFFCURVE",
"2464 1932 CURVE",
"2464 2364 LINE",
"2372 2384 OFFCURVE",
"2300 2396 OFFCURVE",
"2220 2396 CURVE SMOOTH",
"1832 2396 OFFCURVE",
"1448 2168 OFFCURVE",
"1452 1748 CURVE SMOOTH",
"1456 1372 LINE",
"2024 1372 LINE"
);
}
);
width = 2464;
}
);
leftKerningGroup = C;
leftMetricsKey = G;
rightKerningGroup = G;
unicode = 0193;
userData = {
interface.gridadjust.original = "{'width': 1998, 'leftMargin': 256, 'rightMargin': -45}";
};
},
{
glyphname = uni021C;
lastChange = "2021-06-16 15:59:25 +0000";
layers = (
{
background = {
paths = (
{
closed = 1;
nodes = (
"965 678 OFFCURVE",
"1449 1095 OFFCURVE",
"1450 1520 CURVE SMOOTH",
"1451 1825 OFFCURVE",
"1210 2034 OFFCURVE",
"832 2034 CURVE SMOOTH",
"462 2034 OFFCURVE",
"181 1801 OFFCURVE",
"180 1492 CURVE",
"244 1492 LINE",
"242 1762 OFFCURVE",
"500 1970 OFFCURVE",
"832 1970 CURVE SMOOTH",
"1171 1970 OFFCURVE",
"1383 1793 OFFCURVE",
"1386 1524 CURVE SMOOTH",
"1391 1135 OFFCURVE",
"938 748 OFFCURVE",
"280 556 CURVE",
"280 492 LINE"
);
},
{
closed = 1;
nodes = (
"1318 879 OFFCURVE",
"1420 689 OFFCURVE",
"1420 440 CURVE SMOOTH",
"1420 -23 OFFCURVE",
"1144 -259 OFFCURVE",
"280 -534 CURVE",
"280 -600 LINE",
"1188 -316 OFFCURVE",
"1486 -58 OFFCURVE",
"1484 444 CURVE SMOOTH",
"1483 709 OFFCURVE",
"1379 904 OFFCURVE",
"1176 1018 CURVE",
"1136 968 LINE"
);
},
{
closed = 1;
nodes = (
"965 678 OFFCURVE",
"1449 1095 OFFCURVE",
"1450 1520 CURVE SMOOTH",
"1451 1825 OFFCURVE",
"1202 2034 OFFCURVE",
"840 2034 CURVE SMOOTH",
"454 2034 OFFCURVE",
"181 1801 OFFCURVE",
"180 1492 CURVE",
"244 1492 LINE",
"242 1762 OFFCURVE",
"492 1970 OFFCURVE",
"840 1970 CURVE SMOOTH",
"1163 1970 OFFCURVE",
"1383 1793 OFFCURVE",
"1386 1524 CURVE SMOOTH",
"1391 1135 OFFCURVE",
"938 748 OFFCURVE",
"280 556 CURVE",
"280 492 LINE"
);
},
{
closed = 1;
nodes = (
"1318 879 OFFCURVE",
"1420 697 OFFCURVE",
"1420 428 CURVE SMOOTH",
"1420 -15 OFFCURVE",
"1144 -259 OFFCURVE",
"280 -534 CURVE",
"280 -600 LINE",
"1188 -316 OFFCURVE",
"1486 -50 OFFCURVE",
"1484 432 CURVE SMOOTH",
"1483 717 OFFCURVE",
"1379 904 OFFCURVE",
"1176 1018 CURVE",
"1136 968 LINE"
);
}
);
};
layerId = "B1F27B51-9973-4381-9301-4FE46FE1CA59";
paths = (
{
closed = 1;
nodes = (
"933 698 OFFCURVE",
"1417 1107 OFFCURVE",
"1418 1546 CURVE SMOOTH",
"1419 1859 OFFCURVE",
"1170 2076 OFFCURVE",
"808 2076 CURVE SMOOTH",
"422 2076 OFFCURVE",
"149 1843 OFFCURVE",
"148 1534 CURVE",
"212 1534 LINE",
"210 1804 OFFCURVE",
"460 2012 OFFCURVE",
"808 2012 CURVE SMOOTH",
"1131 2012 OFFCURVE",
"1351 1827 OFFCURVE",
"1354 1550 CURVE SMOOTH",
"1358 1147 OFFCURVE",
"906 768 OFFCURVE",
"248 576 CURVE",
"248 512 LINE"
);
},
{
closed = 1;
nodes = (
"1286 899 OFFCURVE",
"1388 711 OFFCURVE",
"1388 434 CURVE SMOOTH",
"1388 -21 OFFCURVE",
"1112 -259 OFFCURVE",
"248 -534 CURVE",
"248 -600 LINE",
"1156 -316 OFFCURVE",
"1454 -56 OFFCURVE",
"1452 438 CURVE SMOOTH",
"1451 731 OFFCURVE",
"1347 924 OFFCURVE",
"1144 1038 CURVE",
"1104 988 LINE"
);
}
);
width = 1600;
},
{
background = {
paths = (
{
closed = 1;
nodes = (
"1024 620 OFFCURVE",
"1568 980 OFFCURVE",
"1568 1460 CURVE SMOOTH",
"1568 1832 OFFCURVE",
"1292 2032 OFFCURVE",
"856 2032 CURVE SMOOTH",
"488 2032 OFFCURVE",
"180 1816 OFFCURVE",
"180 1476 CURVE",
"464 1476 LINE",
"464 1668 OFFCURVE",
"644 1800 OFFCURVE",
"856 1800 CURVE SMOOTH",
"1156 1800 OFFCURVE",
"1284 1644 OFFCURVE",
"1284 1464 CURVE SMOOTH",
"1284 1040 OFFCURVE",
"932 840 OFFCURVE",
"304 652 CURVE",
"304 444 LINE"
);
},
{
closed = 1;
nodes = (
"1252 812 OFFCURVE",
"1312 692 OFFCURVE",
"1312 452 CURVE SMOOTH",
"1312 -36 OFFCURVE",
"940 -244 OFFCURVE",
"304 -372 CURVE",
"304 -600 LINE",
"1052 -448 OFFCURVE",
"1600 -204 OFFCURVE",
"1600 448 CURVE SMOOTH",
"1600 760 OFFCURVE",
"1468 944 OFFCURVE",
"1240 1028 CURVE",
"1100 872 LINE"
);
}
);
};
layerId = "C698F293-3EC0-4A5A-A3A0-0FDB1F5CF265";
paths = (
{
closed = 1;
nodes = (
"992 620 OFFCURVE",
"1536 990 OFFCURVE",
"1536 1490 CURVE SMOOTH",
"1536 1866 OFFCURVE",
"1246 2076 OFFCURVE",
"850 2076 CURVE SMOOTH",
"442 2076 OFFCURVE",
"148 1860 OFFCURVE",
"148 1520 CURVE",
"432 1520 LINE",
"432 1712 OFFCURVE",
"596 1844 OFFCURVE",
"850 1844 CURVE SMOOTH",
"1108 1844 OFFCURVE",
"1252 1706 OFFCURVE",
"1252 1464 CURVE SMOOTH",
"1252 1078 OFFCURVE",
"900 860 OFFCURVE",
"272 672 CURVE",
"272 464 LINE"
);
},
{
closed = 1;
nodes = (
"1220 832 OFFCURVE",
"1280 700 OFFCURVE",
"1280 468 CURVE SMOOTH",
"1280 -48 OFFCURVE",
"908 -244 OFFCURVE",
"272 -372 CURVE",
"272 -600 LINE",
"1020 -448 OFFCURVE",
"1568 -204 OFFCURVE",
"1568 448 CURVE SMOOTH",
"1568 780 OFFCURVE",
"1436 964 OFFCURVE",
"1208 1048 CURVE",
"1068 892 LINE"
);
}
);
width = 1712;
},
{
background = {
paths = (
{
closed = 1;
nodes = (
"1280 632 OFFCURVE",
"1760 872 OFFCURVE",
"1760 1460 CURVE SMOOTH",
"1760 1832 OFFCURVE",
"1436 2028 OFFCURVE",
"956 2028 CURVE SMOOTH",
"552 2028 OFFCURVE",
"172 1828 OFFCURVE",
"172 1448 CURVE",
"708 1448 LINE",
"708 1560 OFFCURVE",
"828 1600 OFFCURVE",
"956 1600 CURVE SMOOTH",
"1156 1600 OFFCURVE",
"1228 1516 OFFCURVE",
"1228 1364 CURVE SMOOTH",
"1228 1124 OFFCURVE",
"1092 1024 OFFCURVE",
"340 804 CURVE",
"340 400 LINE"
);
},
{
closed = 1;
nodes = (
"1156 696 OFFCURVE",
"1252 688 OFFCURVE",
"1252 504 CURVE SMOOTH",
"1252 204 OFFCURVE",
"948 -64 OFFCURVE",
"340 -176 CURVE",
"340 -600 LINE",
"1176 -516 OFFCURVE",
"1788 -100 OFFCURVE",
"1788 492 CURVE SMOOTH",
"1788 820 OFFCURVE",
"1488 1024 OFFCURVE",
"1044 988 CURVE",
"992 672 LINE"
);
}
);
};
layerId = "5C20EF92-B63D-42A8-8878-93C2863E0093";
paths = (
{
closed = 1;
nodes = (
"1398 681 OFFCURVE",
"1760 971 OFFCURVE",
"1760 1460 CURVE SMOOTH",
"1760 1884 OFFCURVE",
"1459 2076 OFFCURVE",
"956 2076 CURVE SMOOTH",
"497 2076 OFFCURVE",
"172 1835 OFFCURVE",
"172 1496 CURVE",
"708 1496 LINE",
"708 1591 OFFCURVE",
"801 1648 OFFCURVE",
"956 1648 CURVE SMOOTH",
"1144 1648 OFFCURVE",
"1228 1575 OFFCURVE",
"1228 1384 CURVE SMOOTH",
"1228 1137 OFFCURVE",
"1071 1038 OFFCURVE",
"340 824 CURVE",
"340 420 LINE"
);
},
{
closed = 1;
nodes = (
"1190 721 OFFCURVE",
"1252 681 OFFCURVE",
"1252 504 CURVE SMOOTH",
"1252 183 OFFCURVE",
"911 -71 OFFCURVE",
"340 -176 CURVE",
"340 -600 LINE",
"1211 -513 OFFCURVE",
"1788 -77 OFFCURVE",
"1788 492 CURVE SMOOTH",
"1788 842 OFFCURVE",
"1485 1044 OFFCURVE",
"1044 1008 CURVE",
"992 692 LINE"
);
}
);
width = 1960;
}
);
unicode = 021C;
userData = {
interface.gridadjust.original = "{'width': 1690, 'leftMargin': 124, 'rightMargin': 146}";
"interface.width-adjustments" = (
-16
);
};
},
{
color = (219,235,247,1);
glyphname = H;
lastChange = "2021-06-16 15:59:25 +0000";
layers = (
{
anchors = (
{
name = bottom;
position = "{1004, 0}";
},
{
name = cedilla;
position = "{320, -8}";
},
{
name = cyrtic;
position = "{1748, 8}";
},
{
name = right;
position = "{1720, 0}";
},
{
name = tonos;
position = "{240, 2048}";
},
{
name = top;
position = "{1004, 2304}";
}
);
layerId = "B1F27B51-9973-4381-9301-4FE46FE1CA59";
paths = (
{
closed = 1;
nodes = (
"352 0 LINE",
"352 992 LINE",
"1656 992 LINE",
"1656 0 LINE",
"1720 0 LINE",
"1720 2048 LINE",
"1656 2048 LINE",
"1656 1056 LINE",
"352 1056 LINE",
"352 2048 LINE",
"288 2048 LINE",
"288 0 LINE"
);
}
);
width = 2008;
},
{
anchors = (
{
name = bottom;
position = "{1008, 0}";
},
{
name = cedilla;
position = "{372, -4}";
},
{
name = cyrtic;
position = "{1896, 88}";
},
{
name = right;
position = "{1804, 0}";
},
{
name = tonos;
position = "{168, 2048}";
},
{
name = top;
position = "{1020, 2308}";
}
);
guideLines = (
{
alignment = center;
angle = 90;
position = "{976, 56}";
}
);
layerId = "C698F293-3EC0-4A5A-A3A0-0FDB1F5CF265";
paths = (
{
closed = 1;
nodes = (
"464 0 LINE",
"464 916 LINE",
"1556 916 LINE",
"1556 0 LINE",
"1804 0 LINE",
"1804 2048 LINE",
"1556 2048 LINE",
"1556 1136 LINE",
"464 1136 LINE",
"464 2048 LINE",
"216 2048 LINE",
"216 0 LINE"
);
}
);
width = 2020;
},
{
anchors = (
{
name = bottom;
position = "{1056, 0}";
},
{
name = cedilla;
position = "{396, 0}";
},
{
name = cyrtic;
position = "{2244, 224}";
},
{
name = right;
position = "{1980, 0}";
},
{
name = tonos;
position = "{84, 2048}";
},
{
name = top;
position = "{1056, 2304}";
}
);
guideLines = (
{
position = "{-136, 1652}";
},
{
alignment = center;
angle = 90;
position = "{836, 1344}";
}
);
layerId = "5C20EF92-B63D-42A8-8878-93C2863E0093";
paths = (
{
closed = 1;
nodes = (
"688 0 LINE",
"688 800 LINE",
"1424 800 LINE",
"1424 0 LINE",
"1980 0 LINE",
"1980 2048 LINE",
"1424 2048 LINE",
"1424 1248 LINE",
"688 1248 LINE",
"688 2048 LINE",
"132 2048 LINE",
"132 0 LINE"
);
}
);
width = 2112;
}
);
leftKerningGroup = B;
rightKerningGroup = H;
unicode = 0048;
userData = {
"interface.width-adjustments" = (
-16
);
};
},
{
glyphname = Hbar;
lastChange = "2021-06-16 15:59:25 +0000";
layers = (
{
components = (
{
alignment = -1;
name = H;
transform = "{1, 0, 0, 1, 16, 0}";
}
);
layerId = "B1F27B51-9973-4381-9301-4FE46FE1CA59";
paths = (
{
closed = 1;
nodes = (
"140 1484 LINE",
"140 1420 LINE",
"1892 1420 LINE",
"1892 1484 LINE"
);
}
);
width = 2032;
},
{
components = (
{
name = H;
transform = "{1, 0, 0, 1, 52, 0}";
}
);
guideLines = (
{
alignment = center;
angle = 90;
position = "{908, 2068}";
}
);
layerId = "C698F293-3EC0-4A5A-A3A0-0FDB1F5CF265";
paths = (
{
closed = 1;
nodes = (
"104 1616 LINE",
"104 1408 LINE",
"2020 1408 LINE",
"2020 1616 LINE"
);
}
);
width = 2124;
},
{
components = (
{
name = H;
transform = "{1, 0, 0, 1, 116, 0}";
}
);
layerId = "5C20EF92-B63D-42A8-8878-93C2863E0093";
paths = (
{
closed = 1;
nodes = (
"76 1744 LINE",
"76 1480 LINE",
"2268 1480 LINE",
"2268 1744 LINE"
);
}
);
width = 2344;
}
);
leftKerningGroup = B;
leftMetricsKey = T;
rightKerningGroup = H;
rightMetricsKey = T;
unicode = 0126;
userData = {
interface.gridadjust.original = "{'width': 1980.0, 'leftMargin': 43, 'rightMargin': 22.0}";
"interface.width-adjustments" = (
-16
);
};
},
{
color = (219,235,247,1);
glyphname = I;
lastChange = "2021-06-16 15:59:25 +0000";
layers = (
{
anchors = (
{
name = bottom;
position = "{320, 0}";
},
{
name = cross;
position = "{320, 1056}";
},
{
name = ogonek;
position = "{352, 0}";
},
{
name = right;
position = "{364, 0}";
},
{
name = tonos;
position = "{288, 2048}";
},
{
name = top;
position = "{320, 2304}";
}
);
layerId = "B1F27B51-9973-4381-9301-4FE46FE1CA59";
paths = (
{
closed = 1;
nodes = (
"288 2048 LINE",
"288 0 LINE",
"352 0 LINE",
"352 2048 LINE"
);
}
);
width = 640;
},
{
anchors = (
{
name = bottom;
position = "{340, 0}";
},
{
name = cross;
position = "{340, 1056}";
},
{
name = ogonek;
position = "{464, 0}";
},
{
name = right;
position = "{484, 0}";
},
{
name = tonos;
position = "{216, 2048}";
},
{
name = top;
position = "{340, 2304}";
}
);
guideLines = (
{
angle = 90;
position = "{308, 1848}";
}
);
layerId = "C698F293-3EC0-4A5A-A3A0-0FDB1F5CF265";
paths = (
{
closed = 1;
nodes = (
"216 2048 LINE",
"216 0 LINE",
"464 0 LINE",
"464 2048 LINE"
);
}
);
width = 680;
},
{
anchors = (
{
name = bottom;
position = "{408, 0}";
},
{
name = cross;
position = "{408, 1084}";
},
{
name = ogonek;
position = "{688, 0}";
},
{
name = right;
position = "{724, 0}";
},
{
name = tonos;
position = "{132, 2048}";
},
{
name = top;
position = "{412, 2304}";
}
);
guideLines = (
{
alignment = center;
angle = 90;
position = "{144, 1240}";
}
);
layerId = "5C20EF92-B63D-42A8-8878-93C2863E0093";
paths = (
{
closed = 1;
nodes = (
"132 2048 LINE",
"132 0 LINE",
"688 0 LINE",
"688 2048 LINE"
);
}
);
width = 820;
}
);
leftKerningGroup = B;
leftMetricsKey = H;
rightKerningGroup = H;
rightMetricsKey = H;
unicode = 0049;
userData = {
"interface.width-adjustments" = (
-16
);
};
},
{
glyphname = Idieresisacute;
lastChange = "2021-06-16 16:02:02 +0000";
layers = (
{
components = (
{
name = I;
},
{
name = dieresisacutecomb.cn;
transform = "{1, 0, 0, 1, 864, 0}";
}
);
layerId = "B1F27B51-9973-4381-9301-4FE46FE1CA59";
width = 640;
},
{
components = (
{
name = I;
},
{
name = dieresisacutecomb.cn;
transform = "{1, 0, 0, 1, 892, 0}";
}
);
layerId = "C698F293-3EC0-4A5A-A3A0-0FDB1F5CF265";
width = 680;
},
{
background = {
paths = (
{
closed = 1;
nodes = (
"702 64 LINE",
"702 2048 LINE",
"118 2048 LINE",
"118 64 LINE"
);
},
{
closed = 1;
nodes = (
"196 2712 LINE",
"588 2712 LINE",
"916 3098 LINE",
"472 3098 LINE"
);
},
{
closed = 1;
nodes = (
"230 2176 OFFCURVE",
"321 2270 OFFCURVE",
"322 2382 CURVE SMOOTH",
"323 2496 OFFCURVE",
"230 2589 OFFCURVE",
"104 2590 CURVE SMOOTH",
"-23 2591 OFFCURVE",
"-114 2496 OFFCURVE",
"-114 2382 CURVE SMOOTH",
"-114 2270 OFFCURVE",
"-23 2176 OFFCURVE",
"104 2176 CURVE SMOOTH"
);
},
{
closed = 1;
nodes = (
"841 2176 OFFCURVE",
"932 2270 OFFCURVE",
"932 2382 CURVE SMOOTH",
"932 2496 OFFCURVE",
"841 2589 OFFCURVE",
"714 2590 CURVE SMOOTH",
"588 2591 OFFCURVE",
"497 2496 OFFCURVE",
"498 2382 CURVE SMOOTH",
"499 2270 OFFCURVE",
"588 2176 OFFCURVE",
"714 2176 CURVE SMOOTH"
);
}
);
};
components = (
{
name = I;
},
{
name = dieresisacutecomb.cn;
transform = "{1, 0, 0, 1, 996, 0}";
}
);
layerId = "5C20EF92-B63D-42A8-8878-93C2863E0093";
width = 820;
}
);
leftKerningGroup = Idieresis;
rightKerningGroup = Idieresis;
unicode = 1E2E;
userData = {
interface.gridadjust.original = "{'width': 1018, 'leftMargin': 28, 'rightMargin': 28}";
};
},
{
color = (219,235,247,1);
glyphname = J;
lastChange = "2021-06-16 15:59:25 +0000";
layers = (
{
anchors = (
{
name = cross;
position = "{1080, 1216}";
},
{
name = top;
position = "{1080, 2304}";
}
);
guideLines = (
{
angle = 90;
position = "{976, 2840}";
}
);
layerId = "B1F27B51-9973-4381-9301-4FE46FE1CA59";
paths = (
{
closed = 1;
nodes = (
"1048 544 LINE SMOOTH",
"1046 164 OFFCURVE",
"840 36 OFFCURVE",
"616 36 CURVE SMOOTH",
"372 36 OFFCURVE",
"182 184 OFFCURVE",
"184 384 CURVE",
"120 384 LINE",
"118 148 OFFCURVE",
"334 -28 OFFCURVE",
"616 -28 CURVE SMOOTH",
"878 -28 OFFCURVE",
"1110 128 OFFCURVE",
"1112 544 CURVE SMOOTH",
"1112 2048 LINE",
"1048 2048 LINE"
);
}
);
width = 1400;
},
{
anchors = (
{
name = cross;
position = "{1124, 1216}";
},
{
name = top;
position = "{1124, 2304}";
}
);
guideLines = (
{
angle = 90;
position = "{1092, 1476}";
},
{
angle = 90;
position = "{632, 492}";
}
);
layerId = "C698F293-3EC0-4A5A-A3A0-0FDB1F5CF265";
paths = (
{
closed = 1;
nodes = (
"1000 584 LINE",
"1000 329 OFFCURVE",
"878 192 OFFCURVE",
"664 192 CURVE SMOOTH",
"469 192 OFFCURVE",
"328 306 OFFCURVE",
"328 480 CURVE",
"84 480 LINE",
"84 165 OFFCURVE",
"328 -28 OFFCURVE",
"664 -28 CURVE SMOOTH",
"1020 -28 OFFCURVE",
"1248 191 OFFCURVE",
"1248 584 CURVE",
"1248 2048 LINE",
"1000 2048 LINE"
);
}
);
width = 1464;
},
{
anchors = (
{
name = cross;
position = "{1244, 1216}";
},
{
name = top;
position = "{1248, 2304}";
}
);
guideLines = (
{
angle = 90;
position = "{1100, 1476}";
}
);
layerId = "5C20EF92-B63D-42A8-8878-93C2863E0093";
paths = (
{
closed = 1;
nodes = (
"976 644 LINE",
"974 486 OFFCURVE",
"908 404 OFFCURVE",
"784 404 CURVE SMOOTH",
"662 404 OFFCURVE",
"594 485 OFFCURVE",
"588 640 CURVE",
"32 640 LINE",
"30 168 OFFCURVE",
"354 -28 OFFCURVE",
"748 -28 CURVE SMOOTH",
"1202 -28 OFFCURVE",
"1522 244 OFFCURVE",
"1524 644 CURVE",
"1524 2048 LINE",
"976 2048 LINE"
);
}
);
width = 1656;
}
);
leftKerningGroup = J;
rightKerningGroup = J;
rightMetricsKey = H;
unicode = 004A;
},
{
color = (219,235,247,1);
glyphname = K;
lastChange = "2021-06-16 15:59:25 +0000";
layers = (
{
anchors = (
{
name = bottom;
position = "{840, 0}";
},
{
name = top;
position = "{844, 2304}";
}
);
guideLines = (
{
angle = 227.6708;
position = "{1504, 2632}";
}
);
layerId = "B1F27B51-9973-4381-9301-4FE46FE1CA59";
paths = (
{
closed = 1;
nodes = (
"352 0 LINE",
"352 668 LINE",
"660 1008 LINE",
"1512 0 LINE",
"1596 0 LINE",
"704 1056 LINE",
"1608 2048 LINE",
"1520 2048 LINE",
"360 772 LINE",
"352 772 LINE",
"352 2048 LINE",
"288 2048 LINE",
"288 0 LINE"
);
}
);
width = 1672;
},
{
anchors = (
{
name = bottom;
position = "{888, 0}";
},
{
name = top;
position = "{896, 2304}";
}
);
guideLines = (
{
angle = 227.6708;
position = "{1684, 2048}";
},
{
angle = 90;
position = "{864, 212}";
}
);
layerId = "C698F293-3EC0-4A5A-A3A0-0FDB1F5CF265";
paths = (
{
closed = 1;
nodes = (
"464 0 LINE",
"464 664 LINE",
"720 952 LINE",
"1432 0 LINE",
"1732 0 LINE",
"872 1124 LINE",
"1732 2048 LINE",
"1408 2048 LINE",
"488 1032 LINE",
"464 1032 LINE",
"464 2048 LINE",
"216 2048 LINE",
"216 0 LINE"
);
}
);
width = 1772;
},
{
anchors = (
{
name = bottom;
position = "{992, 4}";
},
{
name = top;
position = "{996, 2304}";
}
);
guideLines = (
{
alignment = center;
angle = 90;
position = "{900, 1820}";
}
);
layerId = "5C20EF92-B63D-42A8-8878-93C2863E0093";
paths = (
{
closed = 1;
nodes = (
"688 0 LINE",
"688 528 LINE",
"872 768 LINE",
"1332 0 LINE",
"1996 0 LINE",
"1288 1136 LINE",
"1980 2048 LINE",
"1332 2048 LINE",
"716 1220 LINE",
"688 1220 LINE",
"688 2048 LINE",
"132 2048 LINE",
"132 0 LINE"
);
}
);
width = 2012;
}
);
leftKerningGroup = B;
leftMetricsKey = H;
rightKerningGroup = K;
unicode = 004B;
userData = {
com.typemytype.robofont.guideline.magnetic.bB6GeEoQ3O = 5;
"interface.width-adjustments" = (
-16
);
};
},
{
glyphname = Khook;
lastChange = "2021-06-16 15:59:25 +0000";
layers = (
{
layerId = "B1F27B51-9973-4381-9301-4FE46FE1CA59";
paths = (
{
closed = 1;
nodes = (
"352 0 LINE",
"352 668 LINE",
"660 1008 LINE",
"1608 0 LINE",
"1696 0 LINE",
"704 1056 LINE",
"1480 1908 LINE SMOOTH",
"1562 2000 OFFCURVE",
"1650 2020 OFFCURVE",
"1744 1952 CURVE",
"1788 1994 LINE",
"1700 2090 OFFCURVE",
"1530 2070 OFFCURVE",
"1432 1952 CURVE",
"360 772 LINE",
"352 772 LINE",
"352 2048 LINE",
"288 2048 LINE",
"288 0 LINE"
);
}
);
width = 1780;
},
{
background = {
components = (
{
name = K;
}
);
};
layerId = "C698F293-3EC0-4A5A-A3A0-0FDB1F5CF265";
paths = (
{
closed = 1;
nodes = (
"464 0 LINE",
"464 664 LINE",
"720 952 LINE",
"1432 0 LINE",
"1732 0 LINE",
"872 1124 LINE",
"1456 1752 LINE SMOOTH",
"1558 1862 OFFCURVE",
"1648 1868 OFFCURVE",
"1736 1812 CURVE",
"1836 1996 LINE",
"1672 2112 OFFCURVE",
"1460 2104 OFFCURVE",
"1300 1928 CURVE SMOOTH",
"488 1032 LINE",
"464 1032 LINE",
"464 2048 LINE",
"216 2048 LINE",
"216 0 LINE"
);
}
);
width = 1828;
},
{
background = {
components = (
{
name = K;
transform = "{1, 0, 0, 1, 12, 0}";
}
);
};
guideLines = (
{
angle = 227.7472;
position = "{996, 1740}";
},
{
angle = 227.9329;
position = "{1384, 1508}";
}
);
layerId = "5C20EF92-B63D-42A8-8878-93C2863E0093";
paths = (
{
closed = 1;
nodes = (
"688 0 LINE",
"688 436 LINE",
"936 692 LINE",
"1464 0 LINE",
"2128 0 LINE",
"1292 1088 LINE",
"1708 1508 LINE SMOOTH",
"1794 1594 OFFCURVE",
"1852 1644 OFFCURVE",
"1980 1584 CURVE",
"2144 1972 LINE",
"1824 2148 OFFCURVE",
"1540 2092 OFFCURVE",
"1296 1844 CURVE SMOOTH",
"716 1256 LINE",
"688 1256 LINE",
"688 2048 LINE",
"132 2048 LINE",
"132 0 LINE"
);
}
);
width = 2160;
}
);
leftKerningGroup = B;
rightKerningGroup = K;
unicode = 0198;
userData = {
com.typemytype.robofont.guideline.magnetic.39qH0NXtzo = 5;
com.typemytype.robofont.guideline.magnetic.tBAYMBoO6i = 5;
interface.gridadjust.original = "{'width': 1764, 'leftMargin': 228, 'rightMargin': -13}";
"interface.width-adjustments" = (
-16
);
};
},
{
color = (219,235,247,1);
glyphname = L;
lastChange = "2021-06-16 15:59:25 +0000";
layers = (
{
anchors = (
{
name = bottom;
position = "{832, 0}";
},
{
name = cross;
position = "{320, 1056}";
},
{
name = dot;
position = "{800, 1028}";
},
{
name = raccent;
position = "{828, 2048}";
},
{
name = top;
position = "{320, 2304}";
}
);
guideLines = (
{
angle = 90;
position = "{728, 2672}";
},
{
angle = 90;
position = "{216, 2516}";
}
);
layerId = "B1F27B51-9973-4381-9301-4FE46FE1CA59";
paths = (
{
closed = 1;
nodes = (
"1376 0 LINE",
"1376 64 LINE",
"352 64 LINE",
"352 2048 LINE",
"288 2048 LINE",
"288 0 LINE"
);
}
);
width = 1520;
},
{
anchors = (
{
name = bottom;
position = "{816, 0}";
},
{
name = cross;
position = "{340, 1056}";
},
{
name = dot;
position = "{800, 1092}";
},
{
name = raccent;
position = "{812, 2048}";
},
{
name = top;
position = "{340, 2304}";
}
);
guideLines = (
{
angle = 90;
position = "{308, 1944}";
},
{
angle = 90;
position = "{784, -100}";
}
);
layerId = "C698F293-3EC0-4A5A-A3A0-0FDB1F5CF265";
paths = (
{
closed = 1;
nodes = (
"1416 0 LINE",
"1416 220 LINE",
"464 220 LINE",
"464 2048 LINE",
"216 2048 LINE",
"216 0 LINE"
);
}
);
width = 1520;
},
{
anchors = (
{
name = bottom;
position = "{824, 0}";
},
{
name = cross;
position = "{408, 1084}";
},
{
name = dot;
position = "{832, 1200}";
},
{
name = raccent;
position = "{968, 2048}";
},
{
name = top;
position = "{404, 2304}";
}
);
guideLines = (
{
position = "{-136, 1304}";
},
{
angle = 90;
position = "{676, 584}";
},
{
position = "{840, -416}";
}
);
layerId = "5C20EF92-B63D-42A8-8878-93C2863E0093";
paths = (
{
closed = 1;
nodes = (
"1516 0 LINE",
"1516 448 LINE",
"688 448 LINE",
"688 2048 LINE",
"132 2048 LINE",
"132 0 LINE"
);
}
);
width = 1608;
}
);
leftKerningGroup = B;
leftMetricsKey = H;
rightKerningGroup = L;
unicode = 004C;
userData = {
"interface.width-adjustments" = (
-16
);
};
},
{
glyphname = Lslash;
lastChange = "2021-06-16 15:59:25 +0000";
layers = (
{
components = (
{
alignment = -1;
name = L;
transform = "{1, 0, 0, 1, -88, 0}";
}
);
layerId = "B1F27B51-9973-4381-9301-4FE46FE1CA59";
paths = (
{
closed = 1;
nodes = (
"-32 932 LINE",
"-32 862 LINE",
"664 1118 LINE",
"664 1184 LINE"
);
}
);
width = 1456;
},
{
components = (
{
name = L;
}
);
layerId = "C698F293-3EC0-4A5A-A3A0-0FDB1F5CF265";
paths = (
{
closed = 1;
nodes = (
"28 1024 LINE",
"28 844 LINE",
"840 1100 LINE",
"840 1280 LINE"
);
}
);
width = 1520;
},
{
components = (
{
name = L;
transform = "{1, 0, 0, 1, 144, 0}";
}
);
layerId = "5C20EF92-B63D-42A8-8878-93C2863E0093";
paths = (
{
closed = 1;
nodes = (
"28 1092 LINE",
"28 820 LINE",
"1032 1076 LINE",
"1032 1352 LINE"
);
}
);
width = 1692;
}
);
leftKerningGroup = B;
rightKerningGroup = L;
unicode = 0141;
userData = {
interface.gridadjust.original = "{'width': 1524, 'leftMargin': 52, 'rightMargin': 104}";
"interface.width-adjustments" = (
-16
);
};
},
{
color = (219,235,247,1);
glyphname = M;
lastChange = "2021-06-16 15:59:25 +0000";
layers = (
{
anchors = (
{
name = bottom;
position = "{1184, 0}";
},
{
name = right;
position = "{2080, 0}";
},
{
name = top;
position = "{1184, 2304}";
}
);
layerId = "B1F27B51-9973-4381-9301-4FE46FE1CA59";
paths = (
{
closed = 1;
nodes = (
"288 0 LINE",
"352 0 LINE",
"352 1848 LINE",
"360 1848 LINE",
"1152 0 LINE",
"1216 0 LINE",
"2008 1848 LINE",
"2016 1848 LINE",
"2016 0 LINE",
"2080 0 LINE",
"2080 2048 LINE",
"2024 2048 LINE",
"1188 96 LINE",
"1180 96 LINE",
"344 2048 LINE",
"288 2048 LINE"
);
}
);
width = 2368;
},
{
anchors = (
{
name = bottom;
position = "{1220, 0}";
},
{
name = right;
position = "{2224, 0}";
},
{
name = top;
position = "{1220, 2304}";
}
);
guideLines = (
{
alignment = center;
angle = 90;
position = "{1160, 152}";
},
{
angle = 90;
position = "{452, 2056}";
},
{
angle = 90;
position = "{1868, 2060}";
}
);
layerId = "C698F293-3EC0-4A5A-A3A0-0FDB1F5CF265";
paths = (
{
closed = 1;
nodes = (
"216 0 LINE",
"448 0 LINE",
"448 1556 LINE",
"468 1556 LINE",
"1108 0 LINE",
"1332 0 LINE",
"1972 1556 LINE",
"1992 1556 LINE",
"1992 0 LINE",
"2224 0 LINE",
"2224 2048 LINE",
"1928 2048 LINE",
"1232 348 LINE",
"1208 348 LINE",
"512 2048 LINE",
"216 2048 LINE"
);
}
);
width = 2440;
},
{
anchors = (
{
name = bottom;
position = "{1312, 0}";
},
{
name = right;
position = "{2492, 0}";
},
{
name = top;
position = "{1312, 2304}";
}
);
guideLines = (
{
position = "{40, 1220}";
},
{
alignment = center;
angle = 90;
position = "{940, 2164}";
}
);
layerId = "5C20EF92-B63D-42A8-8878-93C2863E0093";
paths = (
{
closed = 1;
nodes = (
"132 0 LINE",
"676 0 LINE",
"676 1192 LINE",
"692 1192 LINE",
"1148 16 LINE",
"1476 16 LINE",
"1932 1184 LINE",
"1948 1184 LINE",
"1948 0 LINE",
"2492 0 LINE",
"2492 2048 LINE",
"1800 2048 LINE",
"1324 888 LINE",
"1300 888 LINE",
"824 2048 LINE",
"132 2048 LINE"
);
}
);
width = 2624;
},
{
anchors = (
{
name = bottom;
position = "{1372, 4}";
},
{
name = bottom_dd;
position = "{2696, -560}";
},
{
name = right;
position = "{2544, 0}";
},
{
name = top;
position = "{1372, 2180}";
},
{
name = top0315;
position = "{2696, 2200}";
},
{
name = top_dd;
position = "{2696, 2200}";
}
);
associatedMasterId = "5C20EF92-B63D-42A8-8878-93C2863E0093";
guideLines = (
{
position = "{188, 1220}";
},
{
angle = 90;
position = "{1572, 1848}";
},
{
angle = 90;
position = "{1088, 2164}";
},
{
angle = 90;
position = "{2140, 2040}";
}
);
layerId = "7A3B8677-86EC-455E-A3DC-AFD0C29D8E15";
name = "Oct 6 18, 13:17";
paths = (
{
closed = 1;
nodes = (
"132 0 LINE",
"692 0 LINE",
"692 1260 LINE",
"708 1260 LINE",
"1196 40 LINE",
"1548 40 LINE",
"2036 1252 LINE",
"2052 1252 LINE",
"2052 0 LINE",
"2612 0 LINE",
"2612 2048 LINE",
"1880 2048 LINE",
"1384 880 LINE",
"1360 880 LINE",
"864 2048 LINE",
"132 2048 LINE"
);
}
);
width = 2744;
}
);
leftKerningGroup = B;
leftMetricsKey = H;
rightKerningGroup = H;
rightMetricsKey = H;
unicode = 004D;
userData = {
com.typemytype.robofont.guideline.magnetic.ezYETy42tZ = 5;
com.typemytype.robofont.guideline.magnetic.wu5HJlZVk6 = 5;
com.typemytype.robofont.guideline.magnetic.x5YoYrsuLC = 5;
"interface.width-adjustments" = (
-16
);
};
},
{
color = (219,235,247,1);
glyphname = N;
lastChange = "2021-06-16 15:59:25 +0000";
layers = (
{
anchors = (
{
name = bottom;
position = "{1056, 0}";
},
{
name = right;
position = "{1756, 0}";
},
{
name = top;
position = "{1056, 2304}";
}
);
layerId = "B1F27B51-9973-4381-9301-4FE46FE1CA59";
paths = (
{
closed = 1;
nodes = (
"1760 2048 LINE",
"1760 120 LINE",
"1752 120 LINE",
"352 2048 LINE",
"288 2048 LINE",
"288 0 LINE",
"352 0 LINE",
"352 1928 LINE",
"360 1928 LINE",
"1760 0 LINE",
"1824 0 LINE",
"1824 2048 LINE"
);
}
);
width = 2112;
},
{
anchors = (
{
name = bottom;
position = "{1040, 0}";
},
{
name = right;
position = "{1828, 0}";
},
{
name = top;
position = "{1040, 2304}";
}
);
associatedMasterId = "C698F293-3EC0-4A5A-A3A0-0FDB1F5CF265";
guideLines = (
{
alignment = center;
angle = 90;
position = "{1116, 284}";
}
);
layerId = "CDCA1FA0-CAD8-4C14-B3A1-3337A4674D3F";
name = "Oct 7 18, 22:28";
paths = (
{
closed = 1;
nodes = (
"1588 2048 LINE",
"1588 436 LINE",
"1568 436 LINE",
"488 2048 LINE",
"248 2048 LINE",
"248 0 LINE",
"496 0 LINE",
"496 1604 LINE",
"516 1604 LINE",
"1592 0 LINE",
"1832 0 LINE",
"1832 2048 LINE"
);
}
);
width = 2080;
},
{
anchors = (
{
name = bottom;
position = "{1028, 0}";
},
{
name = right;
position = "{1836, 0}";
},
{
name = top;
position = "{1028, 2304}";
}
);
layerId = "C698F293-3EC0-4A5A-A3A0-0FDB1F5CF265";
paths = (
{
closed = 1;
nodes = (
"1596 2048 LINE",
"1596 436 LINE",
"1576 436 LINE",
"456 2048 LINE",
"216 2048 LINE",
"216 0 LINE",
"464 0 LINE",
"464 1608 LINE",
"484 1608 LINE",
"1600 0 LINE",
"1840 0 LINE",
"1840 2048 LINE"
);
}
);
width = 2056;
},
{
anchors = (
{
name = bottom;
position = "{1020, 0}";
},
{
name = right;
position = "{2000, 0}";
},
{
name = top;
position = "{1020, 2304}";
}
);
guideLines = (
{
position = "{-136, 1652}";
},
{
alignment = center;
angle = 90;
position = "{752, 240}";
}
);
layerId = "5C20EF92-B63D-42A8-8878-93C2863E0093";
paths = (
{
closed = 1;
nodes = (
"1348 2048 LINE",
"1348 976 LINE",
"1332 976 LINE",
"604 2048 LINE",
"132 2048 LINE",
"132 0 LINE",
"688 0 LINE",
"688 1076 LINE",
"700 1076 LINE",
"1440 0 LINE",
"1904 0 LINE",
"1904 2048 LINE"
);
}
);
width = 2036;
},
{
anchors = (
{
name = bottom;
position = "{1020, 0}";
},
{
name = bottom_dd;
position = "{2152, -560}";
},
{
name = right;
position = "{2000, 0}";
},
{
name = top;
position = "{1020, 2180}";
},
{
name = top0315;
position = "{2152, 2200}";
},
{
name = top_dd;
position = "{2152, 2200}";
}
);
associatedMasterId = "5C20EF92-B63D-42A8-8878-93C2863E0093";
guideLines = (
{
position = "{12, 1652}";
},
{
alignment = center;
angle = 90;
position = "{900, 240}";
}
);
layerId = "461D0975-D8C8-4F19-8EC4-E20368FC099A";
name = "Oct 6 18, 13:13";
paths = (
{
closed = 1;
nodes = (
"1348 2048 LINE",
"1348 928 LINE",
"1332 928 LINE",
"684 2048 LINE",
"132 2048 LINE",
"132 0 LINE",
"688 0 LINE",
"688 1124 LINE",
"700 1124 LINE",
"1360 0 LINE",
"1904 0 LINE",
"1904 2048 LINE"
);
}
);
width = 2036;
}
);
leftKerningGroup = B;
leftMetricsKey = H;
rightKerningGroup = H;
rightMetricsKey = H;
unicode = 004E;
userData = {
"interface.width-adjustments" = (
-16
);
};
},
{
glyphname = Nhook;
lastChange = "2021-06-16 15:59:25 +0000";
layers = (
{
components = (
{
alignment = -1;
name = N;
transform = "{1, 0, 0, 1, -66, 0}";
}
);
layerId = "B1F27B51-9973-4381-9301-4FE46FE1CA59";
paths = (
{
closed = 1;
nodes = (
"222 -232 LINE SMOOTH",
"222 -418 OFFCURVE",
"152 -508 OFFCURVE",
"8 -508 CURVE SMOOTH",
"-22 -508 OFFCURVE",
"-46 -505 OFFCURVE",
"-64 -500 CURVE",
"-64 -564 LINE",
"-45 -569 OFFCURVE",
"-16 -572 OFFCURVE",
"14 -572 CURVE SMOOTH",
"190 -572 OFFCURVE",
"286 -452 OFFCURVE",
"286 -232 CURVE SMOOTH",
"286 0 LINE",
"222 0 LINE"
);
}
);
width = 2046;
},
{
components = (
{
name = N;
transform = "{1, 0, 0, 1, 12, 0}";
}
);
layerId = "C698F293-3EC0-4A5A-A3A0-0FDB1F5CF265";
paths = (
{
closed = 1;
nodes = (
"228 -160 LINE SMOOTH",
"228 -320 OFFCURVE",
"136 -368 OFFCURVE",
"8 -368 CURVE SMOOTH",
"-20 -368 OFFCURVE",
"-48 -364 OFFCURVE",
"-68 -360 CURVE",
"-68 -564 LINE",
"-32 -576 OFFCURVE",
"20 -576 OFFCURVE",
"68 -576 CURVE SMOOTH",
"292 -576 OFFCURVE",
"476 -428 OFFCURVE",
"476 -164 CURVE SMOOTH",
"476 0 LINE",
"228 0 LINE"
);
}
);
width = 2068;
},
{
components = (
{
name = N;
transform = "{1, 0, 0, 1, 72, 0}";
}
);
layerId = "5C20EF92-B63D-42A8-8878-93C2863E0093";
paths = (
{
closed = 1;
nodes = (
"204 -48 LINE SMOOTH",
"204 -140 OFFCURVE",
"98 -160 OFFCURVE",
"-4 -160 CURVE",
"-26 -160 OFFCURVE",
"-66 -164 OFFCURVE",
"-96 -160 CURVE",
"-96 -568 LINE",
"-38 -576 OFFCURVE",
"90 -576 OFFCURVE",
"144 -576 CURVE",
"434 -576 OFFCURVE",
"760 -532 OFFCURVE",
"760 -48 CURVE SMOOTH",
"760 0 LINE",
"204 0 LINE"
);
}
);
width = 2108;
}
);
leftKerningGroup = jdotless;
leftMetricsKey = j;
rightKerningGroup = H;
rightMetricsKey = H;
unicode = 019D;
userData = {
interface.gridadjust.original = "{'width': 2104, 'leftMargin': 0, 'rightMargin': 218}";
"interface.width-adjustments" = (
-16
);
};
},
{
glyphname = Eng;
lastChange = "2021-06-16 15:59:25 +0000";
layers = (
{
components = (
{
alignment = -1;
name = N;
}
);
layerId = "B1F27B51-9973-4381-9301-4FE46FE1CA59";
paths = (
{
closed = 1;
nodes = (
"1760 -232 LINE SMOOTH",
"1760 -418 OFFCURVE",
"1690 -508 OFFCURVE",
"1546 -508 CURVE SMOOTH",
"1516 -508 OFFCURVE",
"1492 -505 OFFCURVE",
"1474 -500 CURVE",
"1474 -564 LINE",
"1493 -569 OFFCURVE",
"1522 -572 OFFCURVE",
"1552 -572 CURVE SMOOTH",
"1728 -572 OFFCURVE",
"1824 -452 OFFCURVE",
"1824 -232 CURVE SMOOTH",
"1824 0 LINE",
"1760 0 LINE"
);
}
);
width = 2112;
},
{
components = (
{
name = N;
}
);
layerId = "C698F293-3EC0-4A5A-A3A0-0FDB1F5CF265";
paths = (
{
closed = 1;
nodes = (
"1600 -160 LINE SMOOTH",
"1600 -320 OFFCURVE",
"1500 -368 OFFCURVE",
"1372 -368 CURVE SMOOTH",
"1344 -368 OFFCURVE",
"1316 -364 OFFCURVE",
"1296 -360 CURVE",
"1296 -564 LINE",
"1332 -576 OFFCURVE",
"1384 -576 OFFCURVE",
"1432 -576 CURVE SMOOTH",
"1656 -576 OFFCURVE",
"1840 -428 OFFCURVE",
"1840 -164 CURVE SMOOTH",
"1840 0 LINE",
"1600 0 LINE"
);
}
);
width = 2056;
},
{
components = (
{
name = N;
}
);
layerId = "5C20EF92-B63D-42A8-8878-93C2863E0093";
paths = (
{
closed = 1;
nodes = (
"1440 -40 LINE SMOOTH",
"1440 -152 OFFCURVE",
"1349 -220 OFFCURVE",
"1200 -220 CURVE SMOOTH",
"1131 -220 OFFCURVE",
"1057 -212 OFFCURVE",
"1004 -200 CURVE",
"1004 -600 LINE",
"1058 -617 OFFCURVE",
"1122 -628 OFFCURVE",
"1172 -628 CURVE SMOOTH",
"1627 -628 OFFCURVE",
"1904 -501 OFFCURVE",
"1904 -28 CURVE SMOOTH",
"1904 0 LINE",
"1440 0 LINE {name = hr00;}"
);
}
);
width = 2036;
}
);
leftKerningGroup = B;
leftMetricsKey = N;
rightKerningGroup = H;
rightMetricsKey = N;
unicode = 014A;
userData = {
interface.gridadjust.original = "{'width': 1947.0, 'leftMargin': 217, 'rightMargin': 205.0}";
"interface.width-adjustments" = (
-16
);
};
},
{
color = (219,235,247,1);
glyphname = O;
lastChange = "2021-06-17 09:51:21 +0000";
layers = (
{
anchors = (
{
name = bottom;
position = "{1020, 0}";
},
{
name = ogonek;
position = "{1068, 0}";
},
{
name = tonos;
position = "{272, 2048}";
},
{
name = top;
position = "{1020, 2304}";
}
);
layerId = "B1F27B51-9973-4381-9301-4FE46FE1CA59";
paths = (
{
closed = 1;
nodes = (
"1868 1650 OFFCURVE",
"1524 2076 OFFCURVE",
"1020 2076 CURVE SMOOTH",
"515 2076 OFFCURVE",
"172 1649 OFFCURVE",
"172 1024 CURVE SMOOTH",
"172 400 OFFCURVE",
"514 -28 OFFCURVE",
"1020 -28 CURVE SMOOTH",
"1524 -28 OFFCURVE",
"1868 398 OFFCURVE",
"1868 1024 CURVE SMOOTH"
);
},
{
closed = 1;
nodes = (
"1805 436 OFFCURVE",
"1486 36 OFFCURVE",
"1020 36 CURVE SMOOTH",
"549 36 OFFCURVE",
"236 440 OFFCURVE",
"236 1024 CURVE SMOOTH",
"236 1616 OFFCURVE",
"556 2012 OFFCURVE",
"1020 2012 CURVE SMOOTH",
"1486 2012 OFFCURVE",
"1803 1612 OFFCURVE",
"1804 1024 CURVE SMOOTH"
);
}
);
width = 2040;
},
{
anchors = (
{
name = bottom;
position = "{1040, 0}";
},
{
name = ogonek;
position = "{1236, -8}";
},
{
name = tonos;
position = "{240, 2048}";
},
{
name = top;
position = "{1040, 2304}";
}
);
guideLines = (
{
angle = 90;
position = "{1008, 1652}";
}
);
layerId = "C698F293-3EC0-4A5A-A3A0-0FDB1F5CF265";
paths = (
{
closed = 1;
nodes = (
"1944 1672 OFFCURVE",
"1564 2076 OFFCURVE",
"1040 2076 CURVE SMOOTH",
"516 2076 OFFCURVE",
"136 1672 OFFCURVE",
"136 1024 CURVE SMOOTH",
"136 376 OFFCURVE",
"516 -28 OFFCURVE",
"1040 -28 CURVE SMOOTH",
"1564 -28 OFFCURVE",
"1944 376 OFFCURVE",
"1944 1024 CURVE SMOOTH"
);
},
{
closed = 1;
nodes = (
"1704 492 OFFCURVE",
"1412 204 OFFCURVE",
"1040 204 CURVE SMOOTH",
"668 204 OFFCURVE",
"376 492 OFFCURVE",
"376 1024 CURVE SMOOTH",
"376 1556 OFFCURVE",
"668 1844 OFFCURVE",
"1040 1844 CURVE SMOOTH",
"1412 1844 OFFCURVE",
"1704 1556 OFFCURVE",
"1704 1024 CURVE SMOOTH"
);
}
);
width = 2080;
},
{
anchors = (
{
name = bottom;
position = "{1120, 0}";
},
{
name = ogonek;
position = "{1404, 8}";
},
{
name = tonos;
position = "{236, 2048}";
},
{
name = top;
position = "{1120, 2304}";
}
);
guideLines = (
{
alignment = center;
angle = 90;
position = "{1136, 940}";
}
);
layerId = "5C20EF92-B63D-42A8-8878-93C2863E0093";
paths = (
{
closed = 1;
nodes = (
"2116 1708 OFFCURVE",
"1676 2076 OFFCURVE",
"1120 2076 CURVE SMOOTH",
"560 2076 OFFCURVE",
"124 1708 OFFCURVE",
"124 1024 CURVE SMOOTH",
"124 344 OFFCURVE",
"560 -28 OFFCURVE",
"1120 -28 CURVE SMOOTH",
"1676 -28 OFFCURVE",
"2116 340 OFFCURVE",
"2116 1024 CURVE SMOOTH"
);
},
{
closed = 1;
nodes = (
"1544 656 OFFCURVE",
"1396 456 OFFCURVE",
"1120 456 CURVE SMOOTH",
"844 456 OFFCURVE",
"696 656 OFFCURVE",
"696 1024 CURVE SMOOTH",
"696 1392 OFFCURVE",
"844 1592 OFFCURVE",
"1120 1592 CURVE SMOOTH",
"1396 1592 OFFCURVE",
"1544 1392 OFFCURVE",
"1544 1024 CURVE SMOOTH"
);
}
);
width = 2240;
}
);
leftKerningGroup = C;
rightKerningGroup = D;
unicode = 004F;
userData = {
com.typemytype.robofont.guideline.magnetic.GU6fgH972W = 5;
"interface.width-adjustments" = (
-16
);
};
},
{
glyphname = OI;
lastChange = "2021-06-16 15:59:25 +0000";
layers = (
{
background = {
paths = (
{
closed = 1;
nodes = (
"1484 1040 LINE",
"1484 254 LINE",
"1398 124 OFFCURVE",
"1212 36 OFFCURVE",
"1016 36 CURVE SMOOTH",
"603 36 OFFCURVE",
"270 404 OFFCURVE",
"268 924 CURVE SMOOTH",
"268 982 LINE",
"204 982 LINE",
"204 924 LINE SMOOTH",
"204 370 OFFCURVE",
"570 -28 OFFCURVE",
"1012 -28 CURVE SMOOTH",
"1233 -28 OFFCURVE",
"1436 70 OFFCURVE",
"1548 238 CURVE",
"1548 1040 LINE"
);
},
{
closed = 1;
nodes = (
"1422 1946 OFFCURVE",
"1224 2036 OFFCURVE",
"1012 2036 CURVE SMOOTH",
"550 2036 OFFCURVE",
"204 1608 OFFCURVE",
"204 1042 CURVE SMOOTH",
"204 964 LINE",
"268 964 LINE",
"268 1042 LINE SMOOTH",
"268 1576 OFFCURVE",
"588 1972 OFFCURVE",
"1012 1972 CURVE SMOOTH",
"1202 1972 OFFCURVE",
"1385 1892 OFFCURVE",
"1484 1758 CURVE",
"1484 922 LINE",
"1548 922 LINE",
"1548 1790 LINE"
);
},
{
closed = 1;
nodes = (
"1762 2004 LINE",
"1498 1796 LINE",
"1498 1714 LINE",
"1790 1944 LINE",
"1790 -572 LINE",
"1854 -572 LINE",
"1854 2004 LINE"
);
}
);
};
guideLines = (
{
position = "{970, 1508}";
}
);
layerId = "B1F27B51-9973-4381-9301-4FE46FE1CA59";
paths = (
{
closed = 1;
nodes = (
"1452 1080 LINE",
"1452 254 LINE",
"1366 124 OFFCURVE",
"1180 36 OFFCURVE",
"984 36 CURVE SMOOTH",
"571 36 OFFCURVE",
"238 404 OFFCURVE",
"236 924 CURVE SMOOTH",
"236 982 LINE",
"172 982 LINE",
"172 924 LINE SMOOTH",
"172 370 OFFCURVE",
"538 -28 OFFCURVE",
"980 -28 CURVE SMOOTH",
"1201 -28 OFFCURVE",
"1404 70 OFFCURVE",
"1516 238 CURVE",
"1516 1080 LINE"
);
},
{
closed = 1;
nodes = (
"1390 1986 OFFCURVE",
"1192 2076 OFFCURVE",
"980 2076 CURVE SMOOTH",
"518 2076 OFFCURVE",
"172 1648 OFFCURVE",
"172 1082 CURVE SMOOTH",
"172 964 LINE",
"236 964 LINE",
"236 1082 LINE SMOOTH",
"236 1616 OFFCURVE",
"556 2012 OFFCURVE",
"980 2012 CURVE SMOOTH",
"1170 2012 OFFCURVE",
"1353 1932 OFFCURVE",
"1452 1798 CURVE",
"1452 922 LINE",
"1516 922 LINE",
"1516 1830 LINE"
);
},
{
closed = 1;
nodes = (
"1730 2048 LINE",
"1466 1840 LINE",
"1466 1758 LINE",
"1758 1988 LINE",
"1758 -576 LINE",
"1822 -576 LINE",
"1822 2048 LINE"
);
}
);
width = 2110;
},
{
background = {
paths = (
{
closed = 1;
nodes = (
"1440 1000 LINE",
"1440 344 LINE",
"1388 288 OFFCURVE",
"1296 200 OFFCURVE",
"1020 200 CURVE SMOOTH",
"644 200 OFFCURVE",
"452 492 OFFCURVE",
"452 932 CURVE SMOOTH",
"452 1064 LINE",
"168 1060 LINE",
"168 932 LINE SMOOTH",
"168 308 OFFCURVE",
"524 -28 OFFCURVE",
"1008 -28 CURVE SMOOTH",
"1464 -28 OFFCURVE",
"1640 160 OFFCURVE",
"1712 272 CURVE",
"1712 1000 LINE {name = hr00;}"
);
},
{
closed = 1;
nodes = (
"1640 1844 OFFCURVE",
"1464 2032 OFFCURVE",
"1008 2032 CURVE SMOOTH",
"520 2032 OFFCURVE",
"168 1676 OFFCURVE",
"168 1072 CURVE SMOOTH",
"168 956 LINE",
"452 956 LINE",
"452 1072 LINE SMOOTH",
"452 1536 OFFCURVE",
"672 1800 OFFCURVE",
"1008 1800 CURVE SMOOTH",
"1296 1800 OFFCURVE",
"1388 1716 OFFCURVE",
"1440 1656 CURVE",
"1440 976 LINE",
"1712 976 LINE",
"1712 1732 LINE"
);
},
{
closed = 1;
nodes = (
"1972 2004 LINE",
"1588 1848 LINE",
"1588 1616 LINE",
"1908 1732 LINE",
"1908 -572 LINE",
"2184 -572 LINE",
"2184 2004 LINE"
);
}
);
};
layerId = "C698F293-3EC0-4A5A-A3A0-0FDB1F5CF265";
paths = (
{
closed = 1;
nodes = (
"1408 1044 LINE",
"1408 344 LINE",
"1318 247 OFFCURVE",
"1170 200 OFFCURVE",
"1008 200 CURVE SMOOTH",
"617 200 OFFCURVE",
"420 470 OFFCURVE",
"420 932 CURVE SMOOTH",
"420 1108 LINE",
"136 1104 LINE",
"136 932 LINE SMOOTH",
"136 343 OFFCURVE",
"453 -28 OFFCURVE",
"992 -28 CURVE SMOOTH",
"1291 -28 OFFCURVE",
"1558 82 OFFCURVE",
"1680 272 CURVE",
"1680 1044 LINE {name = hr00;}"
);
},
{
closed = 1;
nodes = (
"1563 1958 OFFCURVE",
"1302 2076 OFFCURVE",
"1016 2076 CURVE SMOOTH",
"465 2076 OFFCURVE",
"136 1717 OFFCURVE",
"136 1116 CURVE SMOOTH",
"136 956 LINE",
"420 956 LINE",
"420 1116 LINE SMOOTH",
"420 1594 OFFCURVE",
"623 1844 OFFCURVE",
"1012 1844 CURVE SMOOTH",
"1181 1844 OFFCURVE",
"1330 1789 OFFCURVE",
"1408 1700 CURVE",
"1408 1020 LINE",
"1680 1020 LINE",
"1680 1776 LINE"
);
},
{
closed = 1;
nodes = (
"1940 2048 LINE",
"1556 1892 LINE",
"1556 1660 LINE",
"1876 1776 LINE",
"1876 -576 LINE",
"2152 -576 LINE",
"2152 2048 LINE"
);
}
);
width = 2368;
},
{
background = {
paths = (
{
closed = 1;
nodes = (
"1376 1284 LINE",
"1376 468 LINE",
"1327 436 OFFCURVE",
"1239 400 OFFCURVE",
"1088 400 CURVE SMOOTH",
"775 400 OFFCURVE",
"671 620 OFFCURVE",
"672 948 CURVE SMOOTH",
"672 1024 LINE",
"124 1020 LINE",
"124 948 LINE SMOOTH",
"123 332 OFFCURVE",
"491 -28 OFFCURVE",
"1056 -28 CURVE SMOOTH",
"1503 -28 OFFCURVE",
"1783 132 OFFCURVE",
"1896 244 CURVE",
"1896 1284 LINE"
);
},
{
closed = 1;
nodes = (
"1783 1876 OFFCURVE",
"1507 2032 OFFCURVE",
"1056 2032 CURVE SMOOTH",
"491 2032 OFFCURVE",
"123 1676 OFFCURVE",
"124 1056 CURVE SMOOTH",
"124 960 LINE",
"672 956 LINE",
"672 1056 LINE SMOOTH",
"671 1404 OFFCURVE",
"759 1604 OFFCURVE",
"1092 1604 CURVE SMOOTH",
"1211 1604 OFFCURVE",
"1311 1588 OFFCURVE",
"1376 1540 CURVE",
"1376 728 LINE",
"1896 736 LINE",
"1896 1760 LINE"
);
},
{
closed = 1;
nodes = (
"2248 2004 LINE",
"1600 1696 LINE",
"1600 1100 LINE",
"2120 1352 LINE",
"2120 -572 LINE",
"2632 -572 LINE",
"2632 2004 LINE"
);
}
);
};
layerId = "5C20EF92-B63D-42A8-8878-93C2863E0093";
paths = (
{
closed = 1;
nodes = (
"1376 1328 LINE",
"1376 468 LINE",
"1327 436 OFFCURVE",
"1231 400 OFFCURVE",
"1100 400 CURVE SMOOTH",
"767 400 OFFCURVE",
"672 620 OFFCURVE",
"672 948 CURVE SMOOTH",
"672 1068 LINE",
"124 1064 LINE",
"124 948 LINE SMOOTH",
"124 332 OFFCURVE",
"477 -28 OFFCURVE",
"1082 -28 CURVE SMOOTH",
"1489 -28 OFFCURVE",
"1783 132 OFFCURVE",
"1896 244 CURVE",
"1896 1328 LINE"
);
},
{
closed = 1;
nodes = (
"1783 1920 OFFCURVE",
"1493 2076 OFFCURVE",
"1082 2076 CURVE SMOOTH",
"477 2076 OFFCURVE",
"124 1720 OFFCURVE",
"124 1100 CURVE SMOOTH",
"124 960 LINE",
"672 956 LINE",
"672 1100 LINE SMOOTH",
"672 1448 OFFCURVE",
"751 1648 OFFCURVE",
"1104 1648 CURVE SMOOTH",
"1203 1648 OFFCURVE",
"1311 1632 OFFCURVE",
"1376 1584 CURVE",
"1376 728 LINE",
"1896 736 LINE",
"1896 1804 LINE"
);
},
{
closed = 1;
nodes = (
"2248 2048 LINE",
"1600 1740 LINE",
"1600 1144 LINE",
"2120 1396 LINE",
"2120 -576 LINE",
"2632 -576 LINE",
"2632 2048 LINE"
);
}
);
width = 2764;
}
);
unicode = 01A2;
userData = {
interface.gridadjust.original = "{'width': 2409.0, 'leftMargin': 161, 'rightMargin': 232.0}";
"interface.width-adjustments" = (
-16
);
};
},
{
glyphname = Ohorn;
lastChange = "2021-06-16 15:59:25 +0000";
layers = (
{
components = (
{
alignment = -1;
name = O;
}
);
layerId = "B1F27B51-9973-4381-9301-4FE46FE1CA59";
paths = (
{
closed = 1;
nodes = (
"1847 1985 OFFCURVE",
"1781 1897 OFFCURVE",
"1572 1844 CURVE",
"1572 1780 LINE",
"1816 1832 OFFCURVE",
"1913 1952 OFFCURVE",
"1912 2204 CURVE",
"1848 2204 LINE"
);
}
);
width = 2006;
},
{
components = (
{
name = O;
}
);
layerId = "C698F293-3EC0-4A5A-A3A0-0FDB1F5CF265";
paths = (
{
closed = 1;
nodes = (
"1872 1964 OFFCURVE",
"1780 1828 OFFCURVE",
"1572 1828 CURVE",
"1572 1632 LINE",
"1928 1632 OFFCURVE",
"2108 1836 OFFCURVE",
"2108 2196 CURVE",
"1872 2196 LINE"
);
}
);
width = 2116;
},
{
components = (
{
name = O;
}
);
guideLines = (
{
angle = 90;
position = "{876, 1568}";
}
);
layerId = "5C20EF92-B63D-42A8-8878-93C2863E0093";
paths = (
{
closed = 1;
nodes = (
"2032 1856 OFFCURVE",
"1992 1704 OFFCURVE",
"1808 1704 CURVE",
"1808 1468 LINE",
"2180 1468 OFFCURVE",
"2332 1708 OFFCURVE",
"2332 2116 CURVE",
"2032 2116 LINE"
);
}
);
width = 2364;
}
);
leftKerningGroup = C;
leftMetricsKey = O;
rightKerningGroup = D;
unicode = 01A0;
userData = {
interface.gridadjust.original = "{'width': 1928, 'leftMargin': 226, 'rightMargin': -45}";
"interface.width-adjustments" = (
-16
);
};
},
{
glyphname = Oslash;
lastChange = "2021-06-16 15:59:25 +0000";
layers = (
{
components = (
{
alignment = -1;
name = O;
}
);
layerId = "B1F27B51-9973-4381-9301-4FE46FE1CA59";
paths = (
{
closed = 1;
nodes = (
"1736 2060 LINE",
"1684 2096 LINE",
"304 -12 LINE",
"356 -48 LINE"
);
}
);
width = 2040;
},
{
components = (
{
name = O;
}
);
guideLines = (
{
angle = 145.6539;
position = "{332, -96}";
},
{
angle = 90;
position = "{952, 1852}";
},
{
angle = 56.0077;
position = "{952, 1024}";
}
);
layerId = "C698F293-3EC0-4A5A-A3A0-0FDB1F5CF265";
paths = (
{
closed = 1;
nodes = (
"1824 2024 LINE",
"1672 2128 LINE",
"248 20 LINE",
"400 -84 LINE"
);
}
);
width = 2080;
},
{
components = (
{
name = O;
}
);
guideLines = (
{
angle = 90;
position = "{876, 1588}";
},
{
position = "{1144, 1024}";
},
{
angle = 55.9722;
position = "{876, 1024}";
}
);
layerId = "5C20EF92-B63D-42A8-8878-93C2863E0093";
paths = (
{
closed = 1;
nodes = (
"1980 2000 LINE",
"1756 2152 LINE",
"260 44 LINE",
"484 -108 LINE"
);
}
);
width = 2240;
}
);
leftKerningGroup = C;
leftMetricsKey = O;
rightKerningGroup = D;
rightMetricsKey = O;
unicode = 00D8;
userData = {
com.typemytype.robofont.guideline.magnetic.7eFhkhwEhv = 5;
com.typemytype.robofont.guideline.magnetic.bDBaZ7HKjd = 5;
com.typemytype.robofont.guideline.magnetic.rquz9RFtyk = 5;
"interface.width-adjustments" = (
-16
);
};
},
{
glyphname = OE;
lastChange = "2021-06-16 15:59:25 +0000";
layers = (
{
components = (
{
alignment = -1;
name = E;
transform = "{1, 0, 0, 1, 952, 0}";
}
);
layerId = "B1F27B51-9973-4381-9301-4FE46FE1CA59";
paths = (
{
closed = 1;
nodes = (
"1272 0 LINE",
"1272 64 LINE",
"1020 64 LINE SMOOTH",
"549 64 OFFCURVE",
"236 456 OFFCURVE",
"236 1024 CURVE SMOOTH",
"236 1600 OFFCURVE",
"556 1986 OFFCURVE",
"1020 1984 CURVE SMOOTH",
"1272 1984 LINE",
"1272 2048 LINE",
"1020 2048 LINE SMOOTH",
"515 2048 OFFCURVE",
"172 1633 OFFCURVE",
"172 1024 CURVE SMOOTH",
"172 416 OFFCURVE",
"514 0 OFFCURVE",
"1020 0 CURVE SMOOTH"
);
}
);
width = 2532;
},
{
components = (
{
name = E;
transform = "{1, 0, 0, 1, 1000, 0}";
}
);
layerId = "C698F293-3EC0-4A5A-A3A0-0FDB1F5CF265";
paths = (
{
closed = 1;
nodes = (
"1316 0 LINE",
"1316 220 LINE",
"1040 220 LINE SMOOTH",
"644 220 OFFCURVE",
"376 544 OFFCURVE",
"376 1024 CURVE SMOOTH",
"376 1508 OFFCURVE",
"644 1828 OFFCURVE",
"1040 1828 CURVE SMOOTH",
"1316 1828 LINE",
"1316 2048 LINE",
"1040 2048 LINE SMOOTH",
"500 2048 OFFCURVE",
"136 1640 OFFCURVE",
"136 1024 CURVE SMOOTH",
"136 412 OFFCURVE",
"500 0 OFFCURVE",
"1040 0 CURVE SMOOTH"
);
}
);
width = 2620;
},
{
components = (
{
name = E;
transform = "{1, 0, 0, 1, 1236, 0}";
}
);
layerId = "5C20EF92-B63D-42A8-8878-93C2863E0093";
paths = (
{
closed = 1;
nodes = (
"1576 0 LINE",
"1576 448 LINE",
"1072 448 LINE",
"851 448 OFFCURVE",
"687 568 OFFCURVE",
"688 1020 CURVE",
"687 1468 OFFCURVE",
"851 1600 OFFCURVE",
"1072 1600 CURVE",
"1576 1600 LINE",
"1576 2048 LINE",
"1072 2048 LINE",
"543 2048 OFFCURVE",
"123 1720 OFFCURVE",
"124 1020 CURVE",
"123 324 OFFCURVE",
"543 0 OFFCURVE",
"1072 0 CURVE"
);
}
);
width = 2988;
}
);
leftKerningGroup = C;
leftMetricsKey = O;
note = "!post:RemoveOverlap";
rightKerningGroup = E;
rightMetricsKey = E;
unicode = 0152;
userData = {
interface.gridadjust.original = "{'width': 2698, 'leftMargin': 143, 'rightMargin': 191}";
"interface.width-adjustments" = (
-16
);
};
},
{
color = (219,235,247,1);
glyphname = P;
lastChange = "2021-06-16 15:59:25 +0000";
layers = (
{
anchors = (
{
name = tonos;
position = "{228, 2048}";
},
{
name = top;
position = "{844, 2304}";
}
);
layerId = "B1F27B51-9973-4381-9301-4FE46FE1CA59";
paths = (
{
closed = 1;
nodes = (
"352 0 LINE",
"352 1984 LINE",
"888 1984 LINE SMOOTH",
"1195 1984 OFFCURVE",
"1412 1762 OFFCURVE",
"1412 1448 CURVE SMOOTH",
"1412 1136 OFFCURVE",
"1195 916 OFFCURVE",
"888 916 CURVE SMOOTH",
"320 916 LINE",
"320 852 LINE",
"888 852 LINE SMOOTH",
"1232 852 OFFCURVE",
"1476 1099 OFFCURVE",
"1476 1448 CURVE SMOOTH",
"1476 1799 OFFCURVE",
"1232 2048 OFFCURVE",
"888 2048 CURVE SMOOTH",
"288 2048 LINE",
"288 0 LINE"
);
}
);
width = 1644;
},
{
anchors = (
{
name = tonos;
position = "{168, 2048}";
},
{
name = top;
position = "{860, 2304}";
}
);
guideLines = (
{
angle = 90;
position = "{1332, 1760}";
},
{
angle = 90;
position = "{1184, 1804}";
}
);
layerId = "C698F293-3EC0-4A5A-A3A0-0FDB1F5CF265";
paths = (
{
closed = 1;
nodes = (
"464 0 LINE",
"464 1828 LINE",
"900 1828 LINE SMOOTH",
"1233 1828 OFFCURVE",
"1360 1646 OFFCURVE",
"1360 1400 CURVE SMOOTH",
"1360 1154 OFFCURVE",
"1233 968 OFFCURVE",
"904 968 CURVE SMOOTH",
"416 968 LINE",
"416 748 LINE",
"912 748 LINE SMOOTH",
"1389 748 OFFCURVE",
"1604 1038 OFFCURVE",
"1604 1400 CURVE SMOOTH",
"1604 1762 OFFCURVE",
"1389 2048 OFFCURVE",
"908 2048 CURVE SMOOTH",
"216 2048 LINE",
"216 0 LINE"
);
}
);
width = 1724;
},
{
anchors = (
{
name = tonos;
position = "{104, 2048}";
},
{
name = top;
position = "{904, 2304}";
}
);
guideLines = (
{
position = "{-136, 1240}";
},
{
position = "{-136, 764}";
},
{
position = "{-136, 1552}";
},
{
position = "{672, 1372}";
}
);
layerId = "5C20EF92-B63D-42A8-8878-93C2863E0093";
paths = (
{
closed = 1;
nodes = (
"688 0 LINE",
"688 1604 LINE",
"884 1604 LINE SMOOTH",
"1079 1604 OFFCURVE",
"1196 1500 OFFCURVE",
"1196 1324 CURVE SMOOTH",
"1196 1149 OFFCURVE",
"1079 1040 OFFCURVE",
"884 1040 CURVE SMOOTH",
"468 1040 LINE",
"468 608 LINE",
"996 608 LINE SMOOTH",
"1463 608 OFFCURVE",
"1776 883 OFFCURVE",
"1776 1324 CURVE SMOOTH",
"1776 1760 OFFCURVE",
"1471 2048 OFFCURVE",
"1016 2048 CURVE SMOOTH",
"132 2048 LINE",
"132 0 LINE"
);
}
);
width = 1848;
}
);
leftKerningGroup = B;
leftMetricsKey = H;
rightKerningGroup = P;
unicode = 0050;
userData = {
com.typemytype.robofont.guideline.magnetic.fNIC4eKo9v = 5;
com.typemytype.robofont.guideline.magnetic.hdLF6WxJ6g = 5;
"interface.width-adjustments" = (
-16
);
};
},
{
glyphname = Phook;
lastChange = "2021-06-16 15:59:25 +0000";
layers = (
{
components = (
{
alignment = -1;
name = P;
transform = "{1, 0, 0, 1, 164, 0}";
}
);
layerId = "B1F27B51-9973-4381-9301-4FE46FE1CA59";
paths = (
{
closed = 1;
nodes = (
"204 1724 LINE SMOOTH",
"204 1912 OFFCURVE",
"263 1984 OFFCURVE",
"416 1984 CURVE SMOOTH",
"592 1984 LINE {name = hr00;}",
"592 2048 LINE",
"412 2048 LINE SMOOTH",
"236 2048 OFFCURVE",
"141 1947 OFFCURVE",
"140 1760 CURVE SMOOTH",
"140 1688 LINE",
"204 1688 LINE"
);
}
);
width = 1808;
},
{
associatedMasterId = "B1F27B51-9973-4381-9301-4FE46FE1CA59";
background = {
paths = (
{
closed = 1;
nodes = (
"576 2048 LINE",
"476 2048 LINE SMOOTH",
"312 2048 OFFCURVE",
"244 1888 OFFCURVE",
"244 1760 CURVE SMOOTH",
"244 1688 LINE",
"308 1688 LINE",
"308 1804 LINE SMOOTH",
"308 1936 OFFCURVE",
"328 1984 OFFCURVE",
"484 1984 CURVE SMOOTH",
"576 1984 LINE {name = hr00;}"
);
}
);
};
components = (
{
alignment = -1;
name = P;
transform = "{1, 0, 0, 1, 224, 0}";
}
);
layerId = "EAD41403-23A7-4556-BD97-FF67B573FEAA";
name = "Nov 25 18, 15:04";
paths = (
{
closed = 0;
nodes = (
"576 2016 LINE",
"480 2016 LINE",
"308 2016 OFFCURVE",
"224 1932 OFFCURVE",
"224 1760 CURVE",
"224 1688 LINE"
);
}
);
width = 1940;
},
{
components = (
{
name = P;
transform = "{1, 0, 0, 1, 428, 0}";
}
);
layerId = "C698F293-3EC0-4A5A-A3A0-0FDB1F5CF265";
paths = (
{
closed = 1;
nodes = (
"336 1580 LINE SMOOTH",
"336 1708 OFFCURVE",
"356 1828 OFFCURVE",
"516 1828 CURVE SMOOTH",
"712 1828 LINE",
"712 2048 LINE",
"512 2048 LINE SMOOTH",
"248 2048 OFFCURVE",
"104 1864 OFFCURVE",
"104 1640 CURVE SMOOTH",
"104 1504 LINE",
"336 1504 LINE"
);
}
);
width = 2152;
},
{
components = (
{
name = P;
transform = "{1, 0, 0, 1, 680, 0}";
}
);
layerId = "5C20EF92-B63D-42A8-8878-93C2863E0093";
paths = (
{
closed = 1;
nodes = (
"564 1344 LINE SMOOTH",
"562 1464 OFFCURVE",
"610 1604 OFFCURVE",
"780 1604 CURVE SMOOTH",
"1144 1604 LINE {name = hr00;}",
"1144 2048 LINE",
"780 2048 LINE SMOOTH",
"350 2048 OFFCURVE",
"74 1828 OFFCURVE",
"76 1440 CURVE SMOOTH",
"76 1196 LINE",
"564 1196 LINE"
);
}
);
width = 2528;
}
);
leftKerningGroup = B;
leftMetricsKey = T;
note = "!post:RemoveOverlap";
rightKerningGroup = P;
rightMetricsKey = P;
unicode = 01A4;
userData = {
interface.gridadjust.original = "{'width': 2072, 'leftMargin': 41, 'rightMargin': 158}";
"interface.width-adjustments" = (
-16
);
};
},
{
glyphname = Thorn;
lastChange = "2021-06-16 15:59:25 +0000";
layers = (
{
layerId = "B1F27B51-9973-4381-9301-4FE46FE1CA59";
paths = (
{
closed = 1;
nodes = (
"260 0 LINE",
"320 0 LINE",
"320 2048 LINE",
"260 2048 LINE"
);
},
{
closed = 1;
nodes = (
"292 1492 LINE",
"812 1492 LINE SMOOTH",
"1144 1492 OFFCURVE",
"1342 1318 OFFCURVE",
"1344 1024 CURVE SMOOTH",
"1342 729 OFFCURVE",
"1150 562 OFFCURVE",
"812 562 CURVE SMOOTH",
"292 562 LINE",
"292 498 LINE",
"812 498 LINE SMOOTH",
"1186 498 OFFCURVE",
"1408 695 OFFCURVE",
"1408 1028 CURVE SMOOTH",
"1408 1353 OFFCURVE",
"1178 1556 OFFCURVE",
"812 1556 CURVE SMOOTH",
"292 1556 LINE"
);
}
);
width = 1600;
},
{
layerId = "C698F293-3EC0-4A5A-A3A0-0FDB1F5CF265";
paths = (
{
closed = 1;
nodes = (
"200 0 LINE",
"448 0 LINE",
"448 2048 LINE",
"200 2048 LINE"
);
},
{
closed = 1;
nodes = (
"316 1404 LINE",
"844 1404 LINE SMOOTH",
"1128 1404 OFFCURVE",
"1284 1264 OFFCURVE",
"1284 1032 CURVE SMOOTH",
"1284 800 OFFCURVE",
"1128 668 OFFCURVE",
"844 668 CURVE SMOOTH",
"316 668 LINE",
"316 448 LINE",
"844 448 LINE SMOOTH",
"1280 448 OFFCURVE",
"1520 712 OFFCURVE",
"1520 1036 CURVE SMOOTH",
"1520 1360 OFFCURVE",
"1280 1624 OFFCURVE",
"844 1624 CURVE SMOOTH",
"316 1624 LINE"
);
}
);
width = 1712;
},
{
guideLines = (
{
position = "{-136, 1240}";
},
{
position = "{-136, 764}";
}
);
layerId = "5C20EF92-B63D-42A8-8878-93C2863E0093";
paths = (
{
closed = 1;
nodes = (
"136 0 LINE",
"692 0 LINE",
"692 2048 LINE",
"136 2048 LINE"
);
},
{
closed = 1;
nodes = (
"392 1292 LINE",
"928 1292 LINE SMOOTH",
"1148 1292 OFFCURVE",
"1220 1160 OFFCURVE",
"1220 1048 CURVE SMOOTH",
"1220 940 OFFCURVE",
"1148 812 OFFCURVE",
"928 812 CURVE SMOOTH",
"392 812 LINE",
"392 404 LINE",
"928 404 LINE SMOOTH",
"1460 404 OFFCURVE",
"1752 668 OFFCURVE",
"1752 1052 CURVE SMOOTH",
"1752 1436 OFFCURVE",
"1460 1704 OFFCURVE",
"928 1704 CURVE SMOOTH",
"392 1704 LINE"
);
}
);
width = 1964;
}
);
leftKerningGroup = B;
unicode = 00DE;
userData = {
interface.gridadjust.original = "{'width': 1662, 'leftMargin': 224, 'rightMargin': 119}";
"interface.width-adjustments" = (
-16
);
};
},
{
color = (219,235,247,1);
glyphname = Q;
lastChange = "2021-06-16 15:59:25 +0000";
layers = (
{
components = (
{
alignment = -1;
name = O;
}
);
layerId = "B1F27B51-9973-4381-9301-4FE46FE1CA59";
paths = (
{
closed = 1;
nodes = (
"1456 168 LINE",
"1468 152 LINE",
"1728 -192 LINE",
"1808 -192 LINE",
"1524 184 LINE",
"1512 200 LINE",
"1180 640 LINE",
"1100 640 LINE"
);
}
);
width = 2040;
},
{
components = (
{
name = O;
}
);
layerId = "C698F293-3EC0-4A5A-A3A0-0FDB1F5CF265";
paths = (
{
closed = 1;
nodes = (
"1308 184 LINE",
"1364 108 LINE",
"1588 -192 LINE",
"1860 -192 LINE",
"1520 260 LINE",
"1460 340 LINE",
"1232 640 LINE",
"960 640 LINE"
);
}
);
width = 2080;
},
{
components = (
{
name = O;
}
);
guideLines = (
{
angle = 90;
position = "{876, 1432}";
}
);
layerId = "5C20EF92-B63D-42A8-8878-93C2863E0093";
paths = (
{
closed = 1;
nodes = (
"1220 368 LINE",
"1384 132 LINE",
"1628 -152 LINE",
"2120 -152 LINE",
"1776 264 LINE",
"1512 564 LINE",
"1356 760 LINE",
"924 760 LINE"
);
}
);
width = 2244;
}
);
leftKerningGroup = C;
leftMetricsKey = O;
rightKerningGroup = D;
rightMetricsKey = O;
unicode = 0051;
userData = {
"interface.width-adjustments" = (
-16
);
};
},
{
glyphname = Q_rthook;
lastChange = "2021-06-16 15:59:25 +0000";
layers = (
{
layerId = "B1F27B51-9973-4381-9301-4FE46FE1CA59";
paths = (
{
closed = 1;
nodes = (
"1680 2048 LINE",
"1680 1520 LINE",
"1674 1520 LINE",
"1558 1889 OFFCURVE",
"1335 2076 OFFCURVE",
"1020 2076 CURVE SMOOTH",
"516 2076 OFFCURVE",
"172 1650 OFFCURVE",
"172 1024 CURVE SMOOTH",
"172 401 OFFCURVE",
"514 -28 OFFCURVE",
"1010 -28 CURVE SMOOTH",
"1328 -28 OFFCURVE",
"1556 162 OFFCURVE",
"1674 524 CURVE",
"1680 524 LINE",
"1680 -276 LINE SMOOTH",
"1680 -483 OFFCURVE",
"1757 -572 OFFCURVE",
"1934 -572 CURVE SMOOTH",
"1966 -572 OFFCURVE",
"2002 -570 OFFCURVE",
"2032 -566 CURVE",
"2032 -502 LINE",
"2003 -506 OFFCURVE",
"1966 -508 OFFCURVE",
"1934 -508 CURVE SMOOTH",
"1794 -508 OFFCURVE",
"1744 -446 OFFCURVE",
"1744 -276 CURVE SMOOTH",
"1744 2048 LINE"
);
},
{
closed = 1;
nodes = (
"553 36 OFFCURVE",
"236 435 OFFCURVE",
"236 1024 CURVE SMOOTH",
"236 1612 OFFCURVE",
"553 2012 OFFCURVE",
"1020 2012 CURVE SMOOTH",
"1431 2012 OFFCURVE",
"1685 1636 OFFCURVE",
"1686 1024 CURVE SMOOTH",
"1687 406 OFFCURVE",
"1437 36 OFFCURVE",
"1020 36 CURVE SMOOTH"
);
}
);
width = 2040;
},
{
layerId = "C698F293-3EC0-4A5A-A3A0-0FDB1F5CF265";
paths = (
{
closed = 1;
nodes = (
"1636 2048 LINE",
"1636 1732 LINE",
"1612 1732 LINE",
"1512 1948 OFFCURVE",
"1284 2076 OFFCURVE",
"1004 2076 CURVE SMOOTH",
"488 2076 OFFCURVE",
"136 1640 OFFCURVE",
"136 1032 CURVE SMOOTH",
"136 404 OFFCURVE",
"492 -32 OFFCURVE",
"1004 -32 CURVE SMOOTH",
"1280 -32 OFFCURVE",
"1508 96 OFFCURVE",
"1612 324 CURVE",
"1628 324 LINE",
"1628 -164 LINE SMOOTH",
"1628 -428 OFFCURVE",
"1804 -576 OFFCURVE",
"2028 -576 CURVE SMOOTH",
"2076 -576 OFFCURVE",
"2128 -576 OFFCURVE",
"2164 -564 CURVE",
"2164 -364 LINE",
"2144 -368 OFFCURVE",
"2116 -372 OFFCURVE",
"2088 -372 CURVE SMOOTH",
"1960 -372 OFFCURVE",
"1864 -324 OFFCURVE",
"1864 -164 CURVE SMOOTH",
"1864 2048 LINE"
);
},
{
closed = 1;
nodes = (
"640 204 OFFCURVE",
"380 520 OFFCURVE",
"380 1028 CURVE SMOOTH",
"380 1504 OFFCURVE",
"628 1852 OFFCURVE",
"1008 1852 CURVE SMOOTH",
"1434 1852 OFFCURVE",
"1632 1479 OFFCURVE",
"1632 1028 CURVE SMOOTH",
"1632 566 OFFCURVE",
"1455 204 OFFCURVE",
"1004 204 CURVE SMOOTH"
);
}
);
width = 2132;
},
{
background = {
components = (
{
name = O;
}
);
};
guideLines = (
{
position = "{-68, 1024}";
}
);
layerId = "5C20EF92-B63D-42A8-8878-93C2863E0093";
paths = (
{
closed = 1;
nodes = (
"1544 2048 LINE",
"1544 1760 LINE",
"1528 1760 LINE",
"1429 1926 OFFCURVE",
"1253 2076 OFFCURVE",
"976 2076 CURVE SMOOTH",
"498 2076 OFFCURVE",
"124 1608 OFFCURVE",
"124 1024 CURVE SMOOTH",
"124 444 OFFCURVE",
"486 -28 OFFCURVE",
"976 -28 CURVE SMOOTH",
"1251 -28 OFFCURVE",
"1430 120 OFFCURVE",
"1528 288 CURVE",
"1544 288 LINE",
"1544 -48 LINE SMOOTH",
"1544 -500 OFFCURVE",
"1816 -576 OFFCURVE",
"2152 -576 CURVE SMOOTH",
"2280 -576 OFFCURVE",
"2368 -564 OFFCURVE",
"2428 -560 CURVE",
"2428 -152 LINE",
"2384 -156 OFFCURVE",
"2344 -160 OFFCURVE",
"2304 -160 CURVE SMOOTH",
"2204 -160 OFFCURVE",
"2096 -140 OFFCURVE",
"2096 -48 CURVE SMOOTH",
"2096 2048 LINE"
);
},
{
closed = 1;
nodes = (
"844 456 OFFCURVE",
"696 656 OFFCURVE",
"696 1024 CURVE SMOOTH",
"696 1392 OFFCURVE",
"844 1592 OFFCURVE",
"1120 1592 CURVE SMOOTH",
"1396 1592 OFFCURVE",
"1544 1392 OFFCURVE",
"1544 1024 CURVE SMOOTH",
"1544 656 OFFCURVE",
"1396 456 OFFCURVE",
"1120 456 CURVE SMOOTH"
);
}
);
width = 2428;
}
);
leftKerningGroup = O;
leftMetricsKey = O;
note = "Composed by O and a vertical stem with tail";
rightKerningGroup = rthook;
unicode = 024A;
userData = {
interface.gridadjust.original = "{'width': 1998, 'leftMargin': 161, 'rightMargin': 14}";
"interface.width-adjustments" = (
-16
);
};
},
{
color = (219,235,247,1);
glyphname = R;
lastChange = "2021-06-16 15:59:25 +0000";
layers = (
{
anchors = (
{
name = bottom;
position = "{856, 0}";
},
{
name = top;
position = "{828, 2304}";
}
);
layerId = "B1F27B51-9973-4381-9301-4FE46FE1CA59";
paths = (
{
closed = 1;
nodes = (
"352 0 LINE",
"352 1984 LINE",
"888 1984 LINE SMOOTH",
"1195 1984 OFFCURVE",
"1412 1778 OFFCURVE",
"1412 1464 CURVE SMOOTH",
"1412 1152 OFFCURVE",
"1195 948 OFFCURVE",
"888 948 CURVE SMOOTH",
"320 948 LINE",
"320 884 LINE",
"888 884 LINE SMOOTH",
"1232 884 OFFCURVE",
"1476 1115 OFFCURVE",
"1476 1464 CURVE SMOOTH",
"1476 1815 OFFCURVE",
"1232 2048 OFFCURVE",
"888 2048 CURVE SMOOTH",
"288 2048 LINE",
"288 0 LINE"
);
},
{
closed = 1;
nodes = (
"996 932 LINE",
"1500 0 LINE",
"1572 0 LINE",
"1068 932 LINE"
);
}
);
width = 1668;
},
{
anchors = (
{
name = bottom;
position = "{892, 0}";
},
{
name = top;
position = "{856, 2304}";
}
);
background = {
paths = (
{
closed = 1;
nodes = (
"496 0 LINE",
"496 1828 LINE",
"972 1828 LINE SMOOTH",
"1244 1828 OFFCURVE",
"1392 1676 OFFCURVE",
"1392 1420 CURVE SMOOTH",
"1392 1176 OFFCURVE",
"1252 1024 OFFCURVE",
"944 1024 CURVE SMOOTH",
"400 1024 LINE",
"400 800 LINE",
"996 800 LINE",
"1428 0 LINE",
"1716 0 LINE",
"1252 848 LINE",
"1512 944 OFFCURVE",
"1636 1160 OFFCURVE",
"1636 1424 CURVE SMOOTH",
"1636 1792 OFFCURVE",
"1396 2048 OFFCURVE",
"984 2048 CURVE SMOOTH",
"248 2048 LINE",
"248 0 LINE"
);
}
);
};
guideLines = (
{
alignment = center;
angle = 90;
position = "{860, 2112}";
}
);
layerId = "C698F293-3EC0-4A5A-A3A0-0FDB1F5CF265";
paths = (
{
closed = 1;
nodes = (
"464 0 LINE",
"464 1828 LINE",
"900 1828 LINE SMOOTH",
"1232 1828 OFFCURVE",
"1360 1666 OFFCURVE",
"1360 1420 CURVE SMOOTH",
"1360 1174 OFFCURVE",
"1232 1024 OFFCURVE",
"904 1024 CURVE SMOOTH",
"352 1024 LINE",
"352 800 LINE",
"912 800 LINE SMOOTH",
"1388 800 OFFCURVE",
"1604 1058 OFFCURVE",
"1604 1420 CURVE SMOOTH",
"1604 1782 OFFCURVE",
"1388 2048 OFFCURVE",
"908 2048 CURVE SMOOTH",
"216 2048 LINE",
"216 0 LINE"
);
},
{
closed = 1;
nodes = (
"900 920 LINE",
"1396 0 LINE",
"1684 0 LINE",
"1180 920 LINE"
);
}
);
width = 1736;
},
{
anchors = (
{
name = bottom;
position = "{924, 0}";
},
{
name = top;
position = "{880, 2304}";
}
);
associatedMasterId = "C698F293-3EC0-4A5A-A3A0-0FDB1F5CF265";
guideLines = (
{
alignment = center;
angle = 90;
position = "{924, 2112}";
}
);
layerId = "DE316BBE-2641-4C0D-8E2F-8ACABB428D9B";
name = "Nov 25 18, 13:05";
paths = (
{
closed = 1;
nodes = (
"496 0 LINE",
"496 1828 LINE",
"972 1828 LINE SMOOTH",
"1244 1828 OFFCURVE",
"1392 1676 OFFCURVE",
"1392 1420 CURVE SMOOTH",
"1392 1176 OFFCURVE",
"1252 1024 OFFCURVE",
"944 1024 CURVE SMOOTH",
"400 1024 LINE",
"400 800 LINE",
"996 800 LINE",
"1428 0 LINE",
"1716 0 LINE",
"1252 848 LINE",
"1512 944 OFFCURVE",
"1636 1160 OFFCURVE",
"1636 1424 CURVE SMOOTH",
"1636 1792 OFFCURVE",
"1396 2048 OFFCURVE",
"984 2048 CURVE SMOOTH",
"248 2048 LINE",
"248 0 LINE"
);
},
{
closed = 0;
nodes = (
"1396 800 LINE",
"1828 0 LINE",
"2116 0 LINE",
"1652 848 LINE"
);
}
);
width = 1800;
},
{
anchors = (
{
name = bottom;
position = "{960, 0}";
},
{
name = top;
position = "{928, 2304}";
}
);
background = {
paths = (
{
closed = 1;
nodes = (
"688 0 LINE",
"688 1604 LINE",
"956 1604 LINE SMOOTH",
"1120 1604 OFFCURVE",
"1216 1512 OFFCURVE",
"1216 1364 CURVE SMOOTH",
"1216 1212 OFFCURVE",
"1120 1116 OFFCURVE",
"956 1116 CURVE SMOOTH",
"424 1116 LINE",
"424 724 LINE",
"904 724 LINE",
"1268 0 LINE",
"1872 0 LINE",
"1456 808 LINE",
"1660 916 OFFCURVE",
"1800 1108 OFFCURVE",
"1800 1376 CURVE SMOOTH",
"1800 1800 OFFCURVE",
"1508 2048 OFFCURVE",
"1004 2048 CURVE SMOOTH",
"132 2048 LINE {name = hr00;}",
"132 0 LINE"
);
}
);
};
guideLines = (
{
position = "{-136, 1552}";
},
{
angle = 90;
position = "{1296, 0}";
},
{
alignment = center;
angle = 90;
position = "{692, 220}";
}
);
layerId = "5C20EF92-B63D-42A8-8878-93C2863E0093";
paths = (
{
closed = 1;
nodes = (
"688 0 LINE",
"688 1604 LINE",
"884 1604 LINE SMOOTH",
"1079 1604 OFFCURVE",
"1196 1528 OFFCURVE",
"1196 1352 CURVE SMOOTH",
"1196 1177 OFFCURVE",
"1079 1108 OFFCURVE",
"884 1108 CURVE SMOOTH",
"468 1108 LINE",
"468 676 LINE",
"996 676 LINE SMOOTH",
"1463 676 OFFCURVE",
"1776 911 OFFCURVE",
"1776 1352 CURVE SMOOTH",
"1776 1788 OFFCURVE",
"1471 2048 OFFCURVE",
"1016 2048 CURVE SMOOTH",
"132 2048 LINE",
"132 0 LINE"
);
},
{
closed = 1;
nodes = (
"740 940 LINE",
"1240 0 LINE",
"1844 0 LINE",
"1332 940 LINE"
);
}
);
width = 1880;
}
);
leftKerningGroup = B;
leftMetricsKey = H;
rightKerningGroup = R;
unicode = 0052;
userData = {
com.typemytype.robofont.guideline.magnetic.vulxOItvKZ = 5;
"interface.width-adjustments" = (
-16
);
};
},
{
color = (219,235,247,1);
glyphname = S;
lastChange = "2021-06-16 15:59:25 +0000";
layers = (
{
anchors = (
{
name = bottom;
position = "{832, -32}";
},
{
name = cedilla;
position = "{832, 0}";
},
{
name = top;
position = "{832, 2304}";
}
);
layerId = "B1F27B51-9973-4381-9301-4FE46FE1CA59";
paths = (
{
closed = 1;
nodes = (
"1448 1536 LINE",
"1428 1852 OFFCURVE",
"1191 2080 OFFCURVE",
"840 2080 CURVE SMOOTH",
"490 2080 OFFCURVE",
"232 1854 OFFCURVE",
"232 1552 CURVE SMOOTH",
"232 1315 OFFCURVE",
"390 1149 OFFCURVE",
"712 1048 CURVE SMOOTH",
"944 976 LINE SMOOTH",
"1275 873 OFFCURVE",
"1412 740 OFFCURVE",
"1412 520 CURVE SMOOTH",
"1412 230 OFFCURVE",
"1176 32 OFFCURVE",
"824 32 CURVE SMOOTH",
"486 32 OFFCURVE",
"268 215 OFFCURVE",
"248 480 CURVE",
"184 480 LINE",
"204 179 OFFCURVE",
"450 -32 OFFCURVE",
"824 -32 CURVE SMOOTH",
"1212 -32 OFFCURVE",
"1476 199 OFFCURVE",
"1476 520 CURVE SMOOTH",
"1476 772 OFFCURVE",
"1314 931 OFFCURVE",
"960 1040 CURVE SMOOTH",
"728 1112 LINE SMOOTH",
"434 1202 OFFCURVE",
"296 1344 OFFCURVE",
"296 1552 CURVE SMOOTH",
"296 1821 OFFCURVE",
"527 2016 OFFCURVE",
"840 2016 CURVE SMOOTH",
"1157 2016 OFFCURVE",
"1364 1816 OFFCURVE",
"1384 1536 CURVE"
);
}
);
width = 1660;
},
{
anchors = (
{
name = bottom;
position = "{872, -60}";
},
{
name = cedilla;
position = "{876, 0}";
},
{
name = top;
position = "{872, 2380}";
}
);
associatedMasterId = "B1F27B51-9973-4381-9301-4FE46FE1CA59";
background = {
paths = (
{
closed = 1;
nodes = (
"1512 1612 LINE",
"1496 1866 OFFCURVE",
"1226 2076 OFFCURVE",
"892 2076 CURVE SMOOTH",
"555 2076 OFFCURVE",
"268 1868 OFFCURVE",
"268 1552 CURVE SMOOTH",
"267 1302 OFFCURVE",
"454 1147 OFFCURVE",
"748 1048 CURVE SMOOTH",
"1028 960 LINE SMOOTH",
"1238 892 OFFCURVE",
"1498 804 OFFCURVE",
"1496 536 CURVE SMOOTH {name = hr00;}",
"1498 236 OFFCURVE",
"1208 42 OFFCURVE",
"860 44 CURVE SMOOTH",
"597 42 OFFCURVE",
"327 154 OFFCURVE",
"300 412 CURVE",
"208 412 LINE",
"245 184 OFFCURVE",
"472 -43 OFFCURVE",
"856 -44 CURVE SMOOTH",
"1299 -43 OFFCURVE",
"1541 238 OFFCURVE",
"1540 528 CURVE SMOOTH",
"1541 954 OFFCURVE",
"1070 1021 OFFCURVE",
"1004 1052 CURVE SMOOTH",
"772 1120 LINE SMOOTH",
"644 1160 OFFCURVE",
"305 1254 OFFCURVE",
"304 1548 CURVE SMOOTH",
"302 1807 OFFCURVE",
"545 1998 OFFCURVE",
"876 2000 CURVE SMOOTH",
"1166 1998 OFFCURVE",
"1415 1856 OFFCURVE",
"1448 1612 CURVE"
);
}
);
};
layerId = "9C280ED6-539A-47A5-81A9-2BEBEE9FA0FB";
name = "Nov 25 18, 13:19";
paths = (
{
closed = 0;
nodes = (
"1460 1540 LINE",
"1442 1794 OFFCURVE",
"1205 1969 OFFCURVE",
"884 1968 CURVE SMOOTH",
"551 1969 OFFCURVE",
"307 1783 OFFCURVE",
"308 1512 CURVE SMOOTH",
"307 1265 OFFCURVE",
"529 1143 OFFCURVE",
"764 1076 CURVE SMOOTH",
"996 1012 LINE SMOOTH",
"1209 955 OFFCURVE",
"1487 855 OFFCURVE",
"1488 560 CURVE SMOOTH",
"1487 283 OFFCURVE",
"1245 79 OFFCURVE",
"868 80 CURVE SMOOTH",
"525 79 OFFCURVE",
"281 247 OFFCURVE",
"260 532 CURVE"
);
}
);
width = 1748;
},
{
anchors = (
{
name = bottom;
position = "{872, -60}";
},
{
name = cedilla;
position = "{876, 0}";
},
{
name = top;
position = "{872, 2380}";
}
);
associatedMasterId = "B1F27B51-9973-4381-9301-4FE46FE1CA59";
background = {
paths = (
{
closed = 1;
nodes = (
"1512 1612 LINE",
"1496 1866 OFFCURVE",
"1226 2076 OFFCURVE",
"892 2076 CURVE SMOOTH",
"555 2076 OFFCURVE",
"268 1868 OFFCURVE",
"268 1552 CURVE SMOOTH",
"267 1302 OFFCURVE",
"454 1147 OFFCURVE",
"748 1048 CURVE SMOOTH",
"1028 960 LINE SMOOTH",
"1238 892 OFFCURVE",
"1498 804 OFFCURVE",
"1496 536 CURVE SMOOTH {name = hr00;}",
"1498 236 OFFCURVE",
"1208 42 OFFCURVE",
"860 44 CURVE SMOOTH",
"597 42 OFFCURVE",
"327 154 OFFCURVE",
"300 412 CURVE",
"208 412 LINE",
"245 184 OFFCURVE",
"472 -43 OFFCURVE",
"856 -44 CURVE SMOOTH",
"1299 -43 OFFCURVE",
"1541 238 OFFCURVE",
"1540 528 CURVE SMOOTH",
"1541 954 OFFCURVE",
"1070 1021 OFFCURVE",
"1004 1052 CURVE SMOOTH",
"772 1120 LINE SMOOTH",
"644 1160 OFFCURVE",
"305 1254 OFFCURVE",
"304 1548 CURVE SMOOTH",
"302 1807 OFFCURVE",
"545 1998 OFFCURVE",
"876 2000 CURVE SMOOTH",
"1166 1998 OFFCURVE",
"1415 1856 OFFCURVE",
"1448 1612 CURVE"
);
}
);
};
layerId = "48736875-43E9-423A-93EA-8ACE2815DF1A";
name = "Nov 25 18, 13:23";
paths = (
{
closed = 0;
nodes = (
"1460 1536 LINE",
"1460 1584 LINE",
"1442 1858 OFFCURVE",
"1205 2044 OFFCURVE",
"884 2044 CURVE SMOOTH",
"551 2044 OFFCURVE",
"307 1846 OFFCURVE",
"308 1556 CURVE SMOOTH",
"307 1294 OFFCURVE",
"529 1164 OFFCURVE",
"764 1092 CURVE SMOOTH",
"996 1024 LINE SMOOTH",
"1209 965 OFFCURVE",
"1487 858 OFFCURVE",
"1488 544 CURVE SMOOTH",
"1487 249 OFFCURVE",
"1245 32 OFFCURVE",
"868 32 CURVE SMOOTH",
"525 32 OFFCURVE",
"281 211 OFFCURVE",
"260 512 CURVE",
"260 528 LINE"
);
}
);
width = 1748;
},
{
anchors = (
{
name = bottom;
position = "{868, -36}";
},
{
name = cedilla;
position = "{868, 0}";
},
{
name = top;
position = "{864, 2304}";
}
);
guideLines = (
{
position = "{-4, 528}";
},
{
alignment = center;
angle = 90;
position = "{1228, -72}";
}
);
layerId = "C698F293-3EC0-4A5A-A3A0-0FDB1F5CF265";
paths = (
{
closed = 1;
nodes = (
"1576 1536 LINE",
"1565 1845 OFFCURVE",
"1280 2076 OFFCURVE",
"884 2076 CURVE SMOOTH",
"492 2076 OFFCURVE",
"184 1848 OFFCURVE",
"184 1504 CURVE SMOOTH",
"184 1228 OFFCURVE",
"384 1064 OFFCURVE",
"704 972 CURVE SMOOTH",
"956 900 LINE SMOOTH",
"1172 840 OFFCURVE",
"1364 764 OFFCURVE",
"1364 560 CURVE SMOOTH",
"1364 336 OFFCURVE",
"1148 188 OFFCURVE",
"864 188 CURVE SMOOTH",
"620 188 OFFCURVE",
"404 296 OFFCURVE",
"384 528 CURVE",
"128 528 LINE",
"152 192 OFFCURVE",
"424 -36 OFFCURVE",
"864 -36 CURVE SMOOTH",
"1336 -36 OFFCURVE",
"1604 224 OFFCURVE",
"1604 556 CURVE SMOOTH",
"1604 940 OFFCURVE",
"1240 1064 OFFCURVE",
"1028 1120 CURVE SMOOTH",
"820 1176 LINE SMOOTH",
"668 1216 OFFCURVE",
"424 1296 OFFCURVE",
"424 1516 CURVE SMOOTH",
"424 1712 OFFCURVE",
"604 1856 OFFCURVE",
"876 1856 CURVE SMOOTH",
"1124 1856 OFFCURVE",
"1312 1738 OFFCURVE",
"1336 1536 CURVE"
);
}
);
width = 1732;
},
{
anchors = (
{
name = bottom;
position = "{948, 0}";
},
{
name = cedilla;
position = "{944, 0}";
},
{
name = top;
position = "{940, 2304}";
}
);
guideLines = (
{
position = "{-136, 764}";
},
{
position = "{-136, 1552}";
},
{
alignment = center;
angle = 90;
position = "{1024, -132}";
}
);
layerId = "5C20EF92-B63D-42A8-8878-93C2863E0093";
paths = (
{
closed = 1;
nodes = (
"1768 1408 LINE",
"1766 1810 OFFCURVE",
"1456 2076 OFFCURVE",
"960 2076 CURVE SMOOTH",
"473 2076 OFFCURVE",
"129 1814 OFFCURVE",
"132 1424 CURVE SMOOTH",
"131 1104 OFFCURVE",
"353 926 OFFCURVE",
"716 848 CURVE SMOOTH",
"920 804 LINE SMOOTH",
"1148 754 OFFCURVE",
"1226 697 OFFCURVE",
"1228 604 CURVE SMOOTH {name = hr00;}",
"1226 503 OFFCURVE",
"1134 432 OFFCURVE",
"956 432 CURVE SMOOTH",
"743 432 OFFCURVE",
"617 532 OFFCURVE",
"608 720 CURVE",
"80 720 LINE",
"82 206 OFFCURVE",
"430 -24 OFFCURVE",
"964 -24 CURVE SMOOTH",
"1483 -24 OFFCURVE",
"1794 200 OFFCURVE",
"1796 604 CURVE SMOOTH",
"1794 916 OFFCURVE",
"1608 1135 OFFCURVE",
"1156 1232 CURVE SMOOTH",
"988 1268 LINE SMOOTH",
"794 1309 OFFCURVE",
"707 1366 OFFCURVE",
"712 1464 CURVE SMOOTH",
"713 1554 OFFCURVE",
"788 1620 OFFCURVE",
"960 1620 CURVE SMOOTH",
"1140 1620 OFFCURVE",
"1225 1541 OFFCURVE",
"1236 1408 CURVE"
);
}
);
width = 1876;
}
);
leftKerningGroup = S;
note = "recipe: use stroke + offset curve filter with 32, no autostroke";
rightKerningGroup = S;
unicode = 0053;
userData = {
com.typemytype.robofont.guideline.magnetic.yXeOBXqbc8 = 5;
"interface.width-adjustments" = (
-16
);
};
},
{
glyphname = Germandbls;
lastChange = "2021-06-16 15:59:25 +0000";
layers = (
{
layerId = "B1F27B51-9973-4381-9301-4FE46FE1CA59";
paths = (
{
closed = 1;
nodes = (
"352 0 LINE",
"352 1524 LINE SMOOTH",
"352 1828 OFFCURVE",
"519 2012 OFFCURVE",
"796 2012 CURVE SMOOTH",
"953 2012 OFFCURVE",
"1117 1948 OFFCURVE",
"1250 1834 CURVE",
"744 1108 LINE",
"744 1044 LINE",
"774 1044 LINE SMOOTH",
"1203 1044 OFFCURVE",
"1408 887 OFFCURVE",
"1408 560 CURVE SMOOTH",
"1408 258 OFFCURVE",
"1206 64 OFFCURVE",
"892 64 CURVE SMOOTH",
"786 64 OFFCURVE",
"700 78 OFFCURVE",
"636 104 CURVE",
"614 44 LINE",
"696 16 OFFCURVE",
"784 0 OFFCURVE",
"876 0 CURVE SMOOTH",
"1244 0 OFFCURVE",
"1470 217 OFFCURVE",
"1470 570 CURVE SMOOTH",
"1470 915 OFFCURVE",
"1240 1102 OFFCURVE",
"818 1102 CURVE",
"1330 1836 LINE",
"1199 1986 OFFCURVE",
"1002 2076 OFFCURVE",
"806 2076 CURVE SMOOTH",
"490 2076 OFFCURVE",
"288 1867 OFFCURVE",
"288 1540 CURVE SMOOTH",
"288 0 LINE"
);
}
);
width = 1654;
},
{
layerId = "C698F293-3EC0-4A5A-A3A0-0FDB1F5CF265";
paths = (
{
closed = 1;
nodes = (
"464 0 LINE",
"464 1360 LINE SMOOTH",
"464 1616 OFFCURVE",
"544 1856 OFFCURVE",
"856 1856 CURVE SMOOTH",
"1024 1856 OFFCURVE",
"1132 1788 OFFCURVE",
"1220 1728 CURVE",
"812 1172 LINE",
"812 956 LINE",
"1012 956 LINE SMOOTH",
"1096 956 OFFCURVE",
"1452 956 OFFCURVE",
"1452 580 CURVE SMOOTH",
"1452 340 OFFCURVE",
"1304 192 OFFCURVE",
"1044 192 CURVE SMOOTH",
"912 192 OFFCURVE",
"812 228 OFFCURVE",
"736 260 CURVE",
"656 40 LINE",
"788 -8 OFFCURVE",
"916 -28 OFFCURVE",
"1040 -28 CURVE SMOOTH",
"1440 -28 OFFCURVE",
"1728 184 OFFCURVE",
"1728 576 CURVE SMOOTH",
"1728 928 OFFCURVE",
"1496 1144 OFFCURVE",
"1088 1168 CURVE",
"1544 1768 LINE",
"1360 1936 OFFCURVE",
"1144 2076 OFFCURVE",
"844 2076 CURVE SMOOTH",
"428 2076 OFFCURVE",
"216 1836 OFFCURVE",
"216 1360 CURVE SMOOTH",
"216 0 LINE"
);
}
);
width = 1856;
},
{
guideLines = (
{
position = "{-140, 2092}";
}
);
layerId = "5C20EF92-B63D-42A8-8878-93C2863E0093";
paths = (
{
closed = 1;
nodes = (
"688 0 LINE",
"688 1340 LINE SMOOTH",
"688 1534 OFFCURVE",
"776 1652 OFFCURVE",
"920 1652 CURVE SMOOTH",
"1059 1652 OFFCURVE",
"1201 1605 OFFCURVE",
"1296 1528 CURVE",
"944 1188 LINE",
"944 900 LINE",
"1124 900 LINE SMOOTH",
"1348 900 OFFCURVE",
"1484 788 OFFCURVE",
"1484 604 CURVE SMOOTH",
"1484 472 OFFCURVE",
"1375 392 OFFCURVE",
"1196 392 CURVE SMOOTH",
"1110 392 OFFCURVE",
"996 416 OFFCURVE",
"896 456 CURVE",
"752 64 LINE",
"876 10 OFFCURVE",
"1081 -28 OFFCURVE",
"1248 -28 CURVE SMOOTH",
"1691 -28 OFFCURVE",
"2004 234 OFFCURVE",
"2004 604 CURVE SMOOTH",
"2004 894 OFFCURVE",
"1790 1141 OFFCURVE",
"1488 1200 CURVE",
"1944 1692 LINE",
"1641 1917 OFFCURVE",
"1216 2076 OFFCURVE",
"920 2076 CURVE SMOOTH",
"458 2076 OFFCURVE",
"132 1771 OFFCURVE",
"132 1340 CURVE SMOOTH",
"132 0 LINE"
);
}
);
width = 2084;
}
);
leftKerningGroup = B;
leftMetricsKey = B;
rightKerningGroup = S;
rightMetricsKey = S;
unicode = 1E9E;
userData = {
interface.gridadjust.original = "{'width': 1819, 'leftMargin': 188, 'rightMargin': 122}";
"interface.width-adjustments" = (
-16
);
};
},
{
glyphname = Schwa;
lastChange = "2021-06-16 15:59:25 +0000";
layers = (
{
layerId = "B1F27B51-9973-4381-9301-4FE46FE1CA59";
paths = (
{
closed = 1;
nodes = (
"1400 -28 OFFCURVE",
"1702 353 OFFCURVE",
"1702 954 CURVE SMOOTH",
"1702 1024 LINE",
"1702 1682 OFFCURVE",
"1394 2076 OFFCURVE",
"880 2076 CURVE SMOOTH",
"690 2076 OFFCURVE",
"524 2030 OFFCURVE",
"348 1930 CURVE",
"374 1872 LINE",
"556 1971 OFFCURVE",
"705 2012 OFFCURVE",
"880 2012 CURVE SMOOTH",
"1358 2012 OFFCURVE",
"1638 1647 OFFCURVE",
"1638 1024 CURVE SMOOTH",
"1638 956 LINE SMOOTH",
"1638 388 OFFCURVE",
"1365 36 OFFCURVE",
"924 36 CURVE SMOOTH",
"496 36 OFFCURVE",
"212 391 OFFCURVE",
"212 926 CURVE SMOOTH",
"212 932 LINE",
"1664 932 LINE",
"1666 996 LINE",
"146 996 LINE",
"146 964 LINE SMOOTH",
"146 358 OFFCURVE",
"449 -28 OFFCURVE",
"924 -28 CURVE SMOOTH"
);
}
);
width = 1848;
},
{
background = {
paths = (
{
closed = 1;
nodes = (
"1476 -28 OFFCURVE",
"1848 368 OFFCURVE",
"1848 940 CURVE SMOOTH",
"1848 1056 LINE SMOOTH",
"1848 1628 OFFCURVE",
"1524 2032 OFFCURVE",
"936 2032 CURVE SMOOTH",
"620 2032 OFFCURVE",
"436 1936 OFFCURVE",
"380 1900 CURVE",
"448 1692 LINE",
"548 1736 OFFCURVE",
"700 1796 OFFCURVE",
"936 1796 CURVE SMOOTH",
"1380 1796 OFFCURVE",
"1560 1468 OFFCURVE",
"1560 1056 CURVE SMOOTH",
"1560 940 LINE SMOOTH",
"1560 532 OFFCURVE",
"1364 204 OFFCURVE",
"1016 204 CURVE SMOOTH",
"608 204 OFFCURVE",
"472 468 OFFCURVE",
"472 804 CURVE SMOOTH",
"472 848 LINE",
"1672 848 LINE",
"1672 1064 LINE",
"188 1064 LINE",
"188 892 LINE SMOOTH",
"188 328 OFFCURVE",
"468 -28 OFFCURVE",
"1016 -28 CURVE SMOOTH"
);
}
);
};
layerId = "C698F293-3EC0-4A5A-A3A0-0FDB1F5CF265";
paths = (
{
closed = 1;
nodes = (
"1482 -28 OFFCURVE",
"1816 386 OFFCURVE",
"1816 940 CURVE SMOOTH",
"1816 1100 LINE SMOOTH",
"1816 1701 OFFCURVE",
"1461 2076 OFFCURVE",
"904 2076 CURVE SMOOTH",
"694 2076 OFFCURVE",
"469 2021 OFFCURVE",
"348 1944 CURVE",
"416 1736 LINE",
"577 1807 OFFCURVE",
"741 1840 OFFCURVE",
"888 1840 CURVE SMOOTH",
"1308 1840 OFFCURVE",
"1528 1569 OFFCURVE",
"1528 1100 CURVE SMOOTH",
"1528 940 LINE SMOOTH",
"1528 501 OFFCURVE",
"1321 204 OFFCURVE",
"950 204 CURVE SMOOTH",
"640 204 OFFCURVE",
"440 411 OFFCURVE",
"440 804 CURVE SMOOTH",
"440 848 LINE",
"1640 848 LINE",
"1640 1064 LINE",
"156 1064 LINE",
"156 892 LINE SMOOTH",
"156 306 OFFCURVE",
"478 -28 OFFCURVE",
"954 -28 CURVE SMOOTH"
);
}
);
width = 1968;
},
{
background = {
paths = (
{
closed = 1;
nodes = (
"1649 -28 OFFCURVE",
"2045 336 OFFCURVE",
"2044 856 CURVE SMOOTH",
"2044 1140 LINE SMOOTH",
"2045 1660 OFFCURVE",
"1693 2032 OFFCURVE",
"1016 2032 CURVE SMOOTH",
"721 2032 OFFCURVE",
"373 1968 OFFCURVE",
"312 1944 CURVE",
"384 1484 LINE",
"501 1512 OFFCURVE",
"713 1548 OFFCURVE",
"980 1548 CURVE SMOOTH",
"1393 1548 OFFCURVE",
"1509 1360 OFFCURVE",
"1508 1140 CURVE SMOOTH",
"1508 856 LINE SMOOTH",
"1509 632 OFFCURVE",
"1385 452 OFFCURVE",
"1124 452 CURVE SMOOTH",
"841 452 OFFCURVE",
"725 568 OFFCURVE",
"724 720 CURVE SMOOTH",
"724 760 LINE",
"1628 760 LINE",
"1628 1204 LINE",
"188 1204 LINE",
"188 932 LINE SMOOTH",
"189 344 OFFCURVE",
"517 -28 OFFCURVE",
"1124 -28 CURVE SMOOTH"
);
}
);
};
layerId = "5C20EF92-B63D-42A8-8878-93C2863E0093";
paths = (
{
closed = 1;
nodes = (
"1665 -28 OFFCURVE",
"2044 336 OFFCURVE",
"2044 856 CURVE SMOOTH",
"2044 1184 LINE SMOOTH",
"2044 1704 OFFCURVE",
"1693 2076 OFFCURVE",
"1016 2076 CURVE SMOOTH",
"721 2076 OFFCURVE",
"373 2012 OFFCURVE",
"312 1988 CURVE",
"384 1528 LINE",
"501 1556 OFFCURVE",
"741 1592 OFFCURVE",
"948 1592 CURVE SMOOTH",
"1421 1592 OFFCURVE",
"1508 1404 OFFCURVE",
"1508 1184 CURVE SMOOTH",
"1508 856 LINE SMOOTH",
"1508 632 OFFCURVE",
"1397 452 OFFCURVE",
"1098 452 CURVE SMOOTH",
"853 452 OFFCURVE",
"725 568 OFFCURVE",
"724 720 CURVE SMOOTH",
"724 760 LINE",
"1628 760 LINE",
"1628 1204 LINE",
"188 1204 LINE",
"188 932 LINE SMOOTH",
"189 344 OFFCURVE",
"533 -28 OFFCURVE",
"1100 -28 CURVE SMOOTH"
);
}
);
width = 2232;
}
);
unicode = 018F;
userData = {
interface.gridadjust.original = "{'width': 1940, 'leftMargin': 120, 'rightMargin': 159}";
"interface.width-adjustments" = (
-16
);
};
},
{
color = (219,235,247,1);
glyphname = T;
lastChange = "2021-06-16 15:59:25 +0000";
layers = (
{
anchors = (
{
name = bottom;
position = "{832, 0}";
},
{
name = cedilla;
position = "{832, -8}";
},
{
name = cross;
position = "{832, 1056}";
},
{
name = cyrtic;
position = "{892, 8}";
},
{
name = right;
position = "{848, 0}";
},
{
name = top;
position = "{832, 2304}";
}
);
layerId = "B1F27B51-9973-4381-9301-4FE46FE1CA59";
paths = (
{
closed = 1;
nodes = (
"800 1984 LINE",
"800 0 LINE",
"864 0 LINE",
"864 1984 LINE",
"1524 1984 LINE",
"1524 2048 LINE",
"140 2048 LINE",
"140 1984 LINE"
);
}
);
width = 1664;
},
{
anchors = (
{
name = bottom;
position = "{872, 0}";
},
{
name = cedilla;
position = "{904, 0}";
},
{
name = cross;
position = "{872, 1056}";
},
{
name = cyrtic;
position = "{1108, 88}";
},
{
name = right;
position = "{928, 0}";
},
{
name = top;
position = "{872, 2304}";
}
);
guideLines = (
{
alignment = center;
angle = 90;
position = "{1200, 176}";
}
);
layerId = "C698F293-3EC0-4A5A-A3A0-0FDB1F5CF265";
paths = (
{
closed = 1;
nodes = (
"748 1828 LINE",
"748 0 LINE",
"996 0 LINE",
"996 1828 LINE",
"1640 1828 LINE",
"1640 2048 LINE",
"104 2048 LINE",
"104 1828 LINE"
);
}
);
width = 1744;
},
{
anchors = (
{
name = bottom;
position = "{964, 0}";
},
{
name = cedilla;
position = "{956, 0}";
},
{
name = cross;
position = "{964, 916}";
},
{
name = cyrtic;
position = "{1480, 224}";
},
{
name = right;
position = "{1176, 0}";
},
{
name = top;
position = "{968, 2304}";
}
);
guideLines = (
{
alignment = center;
angle = 90;
position = "{824, 956}";
}
);
layerId = "5C20EF92-B63D-42A8-8878-93C2863E0093";
paths = (
{
closed = 1;
nodes = (
"692 1600 LINE",
"692 0 LINE",
"1240 0 LINE",
"1240 1600 LINE",
"1856 1600 LINE",
"1856 2048 LINE",
"76 2048 LINE",
"76 1600 LINE"
);
}
);
width = 1932;
}
);
leftKerningGroup = T;
rightKerningGroup = T;
unicode = 0054;
userData = {
"interface.width-adjustments" = (
-16
);
};
},
{
glyphname = Thook;
lastChange = "2021-06-16 15:59:25 +0000";
layers = (
{
layerId = "B1F27B51-9973-4381-9301-4FE46FE1CA59";
paths = (
{
closed = 1;
nodes = (
"412 2048 LINE SMOOTH",
"236 2048 OFFCURVE",
"141 1947 OFFCURVE",
"140 1760 CURVE SMOOTH",
"140 1688 LINE",
"204 1688 LINE",
"204 1724 LINE SMOOTH",
"204 1912 OFFCURVE",
"263 1984 OFFCURVE",
"416 1984 CURVE SMOOTH",
"592 1984 LINE {name = hr00;}",
"592 2048 LINE"
);
},
{
closed = 1;
nodes = (
"480 2048 LINE",
"480 1984 LINE",
"800 1984 LINE",
"800 0 LINE",
"864 0 LINE",
"864 1984 LINE",
"1524 1984 LINE",
"1524 2048 LINE"
);
}
);
width = 1664;
},
{
background = {
components = (
{
name = T;
transform = "{1, 0, 0, 1, 112, 0}";
}
);
};
layerId = "C698F293-3EC0-4A5A-A3A0-0FDB1F5CF265";
paths = (
{
closed = 1;
nodes = (
"512 2048 LINE SMOOTH",
"260 2048 OFFCURVE",
"104 1884 OFFCURVE",
"104 1644 CURVE SMOOTH",
"104 1524 LINE",
"328 1524 LINE",
"328 1600 LINE SMOOTH",
"328 1716 OFFCURVE",
"372 1828 OFFCURVE",
"512 1828 CURVE SMOOTH",
"984 1828 LINE",
"984 2048 LINE"
);
},
{
closed = 1;
nodes = (
"664 2048 LINE",
"664 1828 LINE",
"860 1828 LINE",
"860 0 LINE",
"1108 0 LINE",
"1108 1828 LINE",
"1752 1828 LINE",
"1752 2048 LINE"
);
}
);
width = 1856;
},
{
background = {
components = (
{
name = T;
transform = "{1, 0, 0, 1, 88, 0}";
}
);
};
layerId = "5C20EF92-B63D-42A8-8878-93C2863E0093";
paths = (
{
closed = 1;
nodes = (
"740 2048 LINE SMOOTH",
"302 2048 OFFCURVE",
"76 1820 OFFCURVE",
"76 1436 CURVE SMOOTH",
"76 1188 LINE",
"524 1188 LINE",
"524 1336 LINE SMOOTH",
"524 1464 OFFCURVE",
"558 1600 OFFCURVE",
"740 1600 CURVE SMOOTH",
"1052 1600 LINE",
"1052 2048 LINE"
);
},
{
closed = 1;
nodes = (
"764 2048 LINE",
"764 1600 LINE",
"780 1600 LINE",
"780 0 LINE",
"1328 0 LINE",
"1328 1600 LINE",
"1944 1600 LINE",
"1944 2048 LINE"
);
}
);
width = 2020;
}
);
leftKerningGroup = T;
leftMetricsKey = T;
note = "!post:RemoveOverlap";
rightKerningGroup = T;
rightMetricsKey = T;
unicode = 01AC;
userData = {
interface.gridadjust.original = "{'width': 1772, 'leftMargin': 41, 'rightMargin': 63}";
"interface.width-adjustments" = (
-16
);
};
},
{
glyphname = Tonefive;
lastChange = "2021-06-16 15:59:25 +0000";
layers = (
{
components = (
{
alignment = -1;
name = five;
transform = "{1, 0, 0, 1, -48, 0}";
}
);
layerId = "B1F27B51-9973-4381-9301-4FE46FE1CA59";
paths = (
{
closed = 1;
nodes = (
"52 2048 LINE",
"52 1984 LINE",
"384 1984 LINE",
"384 2048 LINE"
);
}
);
width = 1506;
},
{
associatedMasterId = "B1F27B51-9973-4381-9301-4FE46FE1CA59";
components = (
{
alignment = -1;
name = five;
transform = "{1, 0, 0, 1, -48, 0}";
}
);
layerId = "64AB79B3-1332-4181-BA6A-2F36CD0AA979";
name = "May 22, 21 14:06";
paths = (
{
closed = 1;
nodes = (
"52 2048 LINE",
"52 1984 LINE",
"384 1984 LINE",
"384 2048 LINE"
);
}
);
width = 1506;
},
{
components = (
{
name = five;
}
);
layerId = "C698F293-3EC0-4A5A-A3A0-0FDB1F5CF265";
paths = (
{
closed = 1;
nodes = (
"60 2048 LINE",
"60 1828 LINE",
"504 1828 LINE",
"504 2048 LINE {name = hr00;}"
);
}
);
width = 1616;
},
{
components = (
{
name = five;
transform = "{1, 0, 0, 1, 80, 0}";
}
);
layerId = "5C20EF92-B63D-42A8-8878-93C2863E0093";
paths = (
{
closed = 1;
nodes = (
"104 2048 LINE",
"104 1604 LINE",
"548 1604 LINE",
"548 2048 LINE"
);
}
);
width = 1864;
}
);
unicode = 01BC;
userData = {
interface.gridadjust.original = "{'width': 1587, 'leftMargin': 89, 'rightMargin': 43}";
"interface.width-adjustments" = (
-16
);
};
},
{
glyphname = Tonesix;
lastChange = "2021-06-16 15:59:25 +0000";
layers = (
{
layerId = "B1F27B51-9973-4381-9301-4FE46FE1CA59";
paths = (
{
closed = 1;
nodes = (
"-10 2048 LINE",
"-10 1984 LINE",
"520 1984 LINE",
"520 2048 LINE"
);
},
{
closed = 1;
nodes = (
"492 1004 LINE",
"1224 1004 LINE SMOOTH",
"1532 1004 OFFCURVE",
"1733 828 OFFCURVE",
"1732 560 CURVE SMOOTH",
"1731 247 OFFCURVE",
"1544 64 OFFCURVE",
"1224 64 CURVE SMOOTH",
"520 64 LINE",
"520 2048 LINE",
"456 2048 LINE",
"456 0 LINE",
"1224 0 LINE SMOOTH",
"1577 0 OFFCURVE",
"1796 213 OFFCURVE",
"1796 556 CURVE SMOOTH",
"1796 867 OFFCURVE",
"1571 1068 OFFCURVE",
"1224 1068 CURVE SMOOTH",
"492 1068 LINE"
);
}
);
width = 1710;
},
{
layerId = "C698F293-3EC0-4A5A-A3A0-0FDB1F5CF265";
paths = (
{
closed = 1;
nodes = (
"-4 2048 LINE",
"-4 1828 LINE",
"724 1828 LINE",
"724 2048 LINE"
);
},
{
closed = 1;
nodes = (
"660 968 LINE",
"1244 968 LINE",
"1524 968 OFFCURVE",
"1680 804 OFFCURVE",
"1680 608 CURVE",
"1680 408 OFFCURVE",
"1524 216 OFFCURVE",
"1244 216 CURVE",
"724 216 LINE",
"724 2048 LINE",
"476 2048 LINE",
"476 0 LINE",
"1244 0 LINE",
"1684 0 OFFCURVE",
"1924 248 OFFCURVE",
"1924 604 CURVE",
"1924 960 OFFCURVE",
"1684 1188 OFFCURVE",
"1244 1188 CURVE",
"660 1188 LINE"
);
}
);
width = 1948;
},
{
layerId = "5C20EF92-B63D-42A8-8878-93C2863E0093";
paths = (
{
closed = 1;
nodes = (
"40 2048 LINE",
"40 1600 LINE",
"980 1600 LINE",
"980 2048 LINE"
);
},
{
closed = 1;
nodes = (
"884 936 LINE",
"1308 936 LINE",
"1508 936 OFFCURVE",
"1616 832 OFFCURVE",
"1616 692 CURVE",
"1616 544 OFFCURVE",
"1508 436 OFFCURVE",
"1308 436 CURVE",
"1100 436 LINE",
"1100 2048 LINE",
"544 2048 LINE",
"544 0 LINE",
"1308 0 LINE",
"1824 0 OFFCURVE",
"2168 280 OFFCURVE",
"2168 688 CURVE",
"2168 1096 OFFCURVE",
"1824 1360 OFFCURVE",
"1308 1360 CURVE",
"884 1360 LINE"
);
}
);
width = 2340;
}
);
unicode = 0184;
userData = {
interface.gridadjust.original = "{'width': 1917, 'leftMargin': 136, 'rightMargin': 157}";
"interface.width-adjustments" = (
-16
);
};
},
{
glyphname = Tonetwo;
lastChange = "2021-06-16 15:59:25 +0000";
layers = (
{
anchors = (
{
name = bottom;
position = "{828, -32}";
},
{
name = cedilla;
position = "{828, 0}";
},
{
name = top;
position = "{828, 2304}";
}
);
layerId = "B1F27B51-9973-4381-9301-4FE46FE1CA59";
paths = (
{
closed = 1;
nodes = (
"296 1816 OFFCURVE",
"503 2016 OFFCURVE",
"820 2016 CURVE SMOOTH",
"1133 2016 OFFCURVE",
"1364 1821 OFFCURVE",
"1364 1552 CURVE SMOOTH",
"1364 1344 OFFCURVE",
"1226 1202 OFFCURVE",
"932 1112 CURVE SMOOTH",
"700 1040 LINE SMOOTH",
"346 931 OFFCURVE",
"184 772 OFFCURVE",
"184 520 CURVE SMOOTH",
"184 199 OFFCURVE",
"448 -32 OFFCURVE",
"836 -32 CURVE SMOOTH",
"1210 -32 OFFCURVE",
"1456 179 OFFCURVE",
"1476 480 CURVE",
"1412 480 LINE",
"1392 215 OFFCURVE",
"1174 32 OFFCURVE",
"836 32 CURVE SMOOTH",
"484 32 OFFCURVE",
"248 230 OFFCURVE",
"248 520 CURVE SMOOTH",
"248 740 OFFCURVE",
"385 873 OFFCURVE",
"716 976 CURVE SMOOTH",
"948 1048 LINE SMOOTH",
"1270 1149 OFFCURVE",
"1428 1315 OFFCURVE",
"1428 1552 CURVE SMOOTH",
"1428 1854 OFFCURVE",
"1170 2080 OFFCURVE",
"820 2080 CURVE SMOOTH",
"469 2080 OFFCURVE",
"232 1852 OFFCURVE",
"212 1536 CURVE",
"276 1536 LINE"
);
}
);
width = 1660;
},
{
anchors = (
{
name = bottom;
position = "{864, -36}";
},
{
name = cedilla;
position = "{864, 0}";
},
{
name = top;
position = "{868, 2304}";
}
);
layerId = "C698F293-3EC0-4A5A-A3A0-0FDB1F5CF265";
paths = (
{
closed = 1;
nodes = (
"420 1738 OFFCURVE",
"608 1856 OFFCURVE",
"856 1856 CURVE SMOOTH",
"1128 1856 OFFCURVE",
"1308 1712 OFFCURVE",
"1308 1516 CURVE SMOOTH",
"1308 1296 OFFCURVE",
"1064 1216 OFFCURVE",
"912 1176 CURVE SMOOTH",
"704 1120 LINE SMOOTH",
"492 1064 OFFCURVE",
"128 940 OFFCURVE",
"128 556 CURVE SMOOTH",
"128 224 OFFCURVE",
"396 -36 OFFCURVE",
"868 -36 CURVE SMOOTH",
"1308 -36 OFFCURVE",
"1580 192 OFFCURVE",
"1604 528 CURVE",
"1348 528 LINE",
"1328 296 OFFCURVE",
"1112 188 OFFCURVE",
"868 188 CURVE SMOOTH",
"584 188 OFFCURVE",
"368 336 OFFCURVE",
"368 560 CURVE SMOOTH",
"368 764 OFFCURVE",
"560 840 OFFCURVE",
"776 900 CURVE SMOOTH",
"1028 972 LINE SMOOTH",
"1348 1064 OFFCURVE",
"1548 1228 OFFCURVE",
"1548 1504 CURVE SMOOTH",
"1548 1848 OFFCURVE",
"1240 2076 OFFCURVE",
"848 2076 CURVE SMOOTH",
"452 2076 OFFCURVE",
"167 1845 OFFCURVE",
"156 1536 CURVE",
"396 1536 LINE"
);
}
);
width = 1732;
},
{
anchors = (
{
name = bottom;
position = "{928, 0}";
},
{
name = cedilla;
position = "{932, 0}";
},
{
name = top;
position = "{936, 2304}";
}
);
layerId = "5C20EF92-B63D-42A8-8878-93C2863E0093";
paths = (
{
closed = 1;
nodes = (
"651 1541 OFFCURVE",
"736 1620 OFFCURVE",
"916 1620 CURVE SMOOTH",
"1088 1620 OFFCURVE",
"1163 1554 OFFCURVE",
"1164 1464 CURVE SMOOTH",
"1169 1366 OFFCURVE",
"1082 1309 OFFCURVE",
"888 1268 CURVE SMOOTH",
"720 1232 LINE SMOOTH",
"268 1135 OFFCURVE",
"82 916 OFFCURVE",
"80 604 CURVE SMOOTH",
"82 200 OFFCURVE",
"393 -24 OFFCURVE",
"912 -24 CURVE SMOOTH",
"1446 -24 OFFCURVE",
"1794 206 OFFCURVE",
"1796 720 CURVE",
"1268 720 LINE",
"1259 532 OFFCURVE",
"1133 432 OFFCURVE",
"920 432 CURVE SMOOTH",
"742 432 OFFCURVE",
"650 503 OFFCURVE",
"648 604 CURVE SMOOTH {name = hr00;}",
"650 697 OFFCURVE",
"728 754 OFFCURVE",
"956 804 CURVE SMOOTH",
"1160 848 LINE SMOOTH",
"1523 926 OFFCURVE",
"1745 1104 OFFCURVE",
"1744 1424 CURVE SMOOTH",
"1747 1814 OFFCURVE",
"1403 2076 OFFCURVE",
"916 2076 CURVE SMOOTH",
"420 2076 OFFCURVE",
"110 1810 OFFCURVE",
"108 1408 CURVE",
"640 1408 LINE"
);
}
);
width = 1876;
}
);
leftKerningGroup = S;
leftMetricsKey = S;
rightKerningGroup = B;
rightMetricsKey = S;
unicode = 01A7;
userData = {
interface.gridadjust.original = "{'width': 1672.0, 'leftMargin': 105, 'rightMargin': 109.0}";
"interface.width-adjustments" = (
-16
);
};
},
{
glyphname = Trthook;
lastChange = "2021-06-16 15:59:25 +0000";
layers = (
{
components = (
{
alignment = -1;
name = T;
}
);
layerId = "B1F27B51-9973-4381-9301-4FE46FE1CA59";
paths = (
{
closed = 1;
nodes = (
"800 0 LINE",
"800 -232 LINE SMOOTH",
"800 -454 OFFCURVE",
"898 -572 OFFCURVE",
"1072 -572 CURVE",
"1140 -572 LINE",
"1140 -508 LINE",
"1078 -508 LINE",
"936 -508 OFFCURVE",
"864 -420 OFFCURVE",
"864 -232 CURVE SMOOTH",
"864 0 LINE"
);
}
);
width = 1664;
},
{
components = (
{
name = T;
}
);
layerId = "C698F293-3EC0-4A5A-A3A0-0FDB1F5CF265";
paths = (
{
closed = 1;
nodes = (
"748 0 LINE",
"748 -168 LINE SMOOTH",
"748 -432 OFFCURVE",
"952 -576 OFFCURVE",
"1176 -576 CURVE",
"1312 -576 LINE",
"1312 -356 LINE",
"1236 -356 LINE",
"1108 -356 OFFCURVE",
"996 -324 OFFCURVE",
"996 -164 CURVE SMOOTH",
"996 0 LINE"
);
}
);
width = 1744;
},
{
components = (
{
name = T;
}
);
layerId = "5C20EF92-B63D-42A8-8878-93C2863E0093";
paths = (
{
closed = 1;
nodes = (
"692 0 LINE",
"692 -44 LINE SMOOTH",
"692 -528 OFFCURVE",
"1002 -576 OFFCURVE",
"1296 -576 CURVE",
"1536 -576 LINE",
"1536 -164 LINE",
"1444 -164 LINE",
"1346 -164 OFFCURVE",
"1240 -140 OFFCURVE",
"1240 -48 CURVE SMOOTH",
"1240 0 LINE"
);
}
);
width = 1932;
}
);
leftKerningGroup = T;
leftMetricsKey = T;
rightKerningGroup = T;
rightMetricsKey = T;
unicode = 01AE;
userData = {
interface.gridadjust.original = "{'width': 1680, 'leftMargin': 67, 'rightMargin': 63}";
"interface.width-adjustments" = (
-16
);
};
},
{
color = (219,235,247,1);
glyphname = U;
lastChange = "2021-06-16 15:59:25 +0000";
layers = (
{
anchors = (
{
name = bottom;
position = "{1024, -32}";
},
{
name = ogonek;
position = "{1110, 0}";
},
{
name = right;
position = "{1108, 0}";
},
{
name = top;
position = "{1024, 2304}";
}
);
layerId = "B1F27B51-9973-4381-9301-4FE46FE1CA59";
paths = (
{
closed = 1;
nodes = (
"1696 692 LINE SMOOTH",
"1696 313 OFFCURVE",
"1410 32 OFFCURVE",
"1024 32 CURVE SMOOTH",
"638 32 OFFCURVE",
"352 313 OFFCURVE",
"352 692 CURVE SMOOTH",
"352 2048 LINE",
"288 2048 LINE",
"288 692 LINE SMOOTH",
"286 278 OFFCURVE",
"605 -32 OFFCURVE",
"1024 -32 CURVE SMOOTH",
"1445 -32 OFFCURVE",
"1760 277 OFFCURVE",
"1760 692 CURVE SMOOTH",
"1760 2048 LINE",
"1696 2048 LINE"
);
}
);
width = 2048;
},
{
anchors = (
{
name = bottom;
position = "{1012, -28}";
},
{
name = ogonek;
position = "{1208, 4}";
},
{
name = right;
position = "{1128, 0}";
},
{
name = top;
position = "{1012, 2304}";
}
);
guideLines = (
{
alignment = center;
angle = 90;
position = "{972, 2084}";
}
);
layerId = "C698F293-3EC0-4A5A-A3A0-0FDB1F5CF265";
paths = (
{
closed = 1;
nodes = (
"1560 712 LINE SMOOTH",
"1560 412 OFFCURVE",
"1354 196 OFFCURVE",
"1012 196 CURVE SMOOTH",
"670 196 OFFCURVE",
"464 412 OFFCURVE",
"464 712 CURVE SMOOTH",
"464 2048 LINE",
"216 2048 LINE",
"216 692 LINE SMOOTH",
"216 272 OFFCURVE",
"530 -36 OFFCURVE",
"1012 -36 CURVE SMOOTH",
"1494 -36 OFFCURVE",
"1808 272 OFFCURVE",
"1808 692 CURVE SMOOTH",
"1808 2048 LINE",
"1560 2048 LINE"
);
}
);
width = 2024;
},
{
anchors = (
{
name = bottom;
position = "{1016, 12}";
},
{
name = ogonek;
position = "{1320, 0}";
},
{
name = right;
position = "{1192, 0}";
},
{
name = top;
position = "{1016, 2304}";
}
);
background = {
paths = (
{
closed = 1;
nodes = (
"726 1994 LINE",
"142 1994 LINE",
"142 718 LINE SMOOTH",
"142 264 OFFCURVE",
"492 -24 OFFCURVE",
"1016 -24 CURVE SMOOTH",
"1540 -24 OFFCURVE",
"1892 264 OFFCURVE",
"1892 718 CURVE SMOOTH",
"1892 1994 LINE",
"1308 1994 LINE",
"1308 782 LINE SMOOTH",
"1308 572 OFFCURVE",
"1204 458 OFFCURVE",
"1016 458 CURVE SMOOTH",
"828 458 OFFCURVE",
"726 572 OFFCURVE",
"726 782 CURVE SMOOTH"
);
}
);
};
guideLines = (
{
position = "{-136, 1240}";
},
{
position = "{-136, 764}";
},
{
position = "{-136, 1552}";
},
{
alignment = center;
angle = 90;
position = "{884, 564}";
}
);
layerId = "5C20EF92-B63D-42A8-8878-93C2863E0093";
paths = (
{
closed = 1;
nodes = (
"1344 784 LINE SMOOTH",
"1344 593 OFFCURVE",
"1207 456 OFFCURVE",
"1016 456 CURVE SMOOTH",
"825 456 OFFCURVE",
"688 593 OFFCURVE",
"688 784 CURVE SMOOTH",
"688 2048 LINE",
"132 2048 LINE",
"132 736 LINE SMOOTH",
"132 268 OFFCURVE",
"486 -24 OFFCURVE",
"1016 -24 CURVE SMOOTH",
"1542 -24 OFFCURVE",
"1900 268 OFFCURVE",
"1900 736 CURVE SMOOTH",
"1900 2048 LINE",
"1344 2048 LINE"
);
}
);
width = 2032;
}
);
leftKerningGroup = U;
leftMetricsKey = H;
rightKerningGroup = J;
rightMetricsKey = H;
unicode = 0055;
userData = {
com.typemytype.robofont.guideline.magnetic.icXM2D4lH7 = 5;
"interface.width-adjustments" = (
-16
);
};
},
{
glyphname = Uhorn;
lastChange = "2021-06-16 15:59:25 +0000";
layers = (
{
components = (
{
alignment = -1;
name = U;
}
);
layerId = "B1F27B51-9973-4381-9301-4FE46FE1CA59";
paths = (
{
closed = 1;
nodes = (
"2027 1985 OFFCURVE",
"1961 1897 OFFCURVE",
"1752 1844 CURVE",
"1752 1780 LINE",
"1996 1832 OFFCURVE",
"2093 1952 OFFCURVE",
"2092 2204 CURVE",
"2028 2204 LINE"
);
}
);
width = 2232;
},
{
components = (
{
name = U;
}
);
guideLines = (
{
angle = 90;
position = "{972, 244}";
}
);
layerId = "C698F293-3EC0-4A5A-A3A0-0FDB1F5CF265";
paths = (
{
closed = 1;
nodes = (
"2036 1908 OFFCURVE",
"1960 1768 OFFCURVE",
"1680 1768 CURVE",
"1680 1572 LINE",
"2104 1572 OFFCURVE",
"2268 1780 OFFCURVE",
"2268 2172 CURVE",
"2036 2172 LINE"
);
}
);
width = 2372;
},
{
components = (
{
name = U;
}
);
layerId = "5C20EF92-B63D-42A8-8878-93C2863E0093";
paths = (
{
closed = 1;
nodes = (
"2080 1824 OFFCURVE",
"2084 1652 OFFCURVE",
"1760 1652 CURVE",
"1760 1408 LINE",
"2260 1408 OFFCURVE",
"2384 1668 OFFCURVE",
"2384 2088 CURVE",
"2080 2088 LINE"
);
}
);
width = 2460;
}
);
leftKerningGroup = U;
leftMetricsKey = U;
rightKerningGroup = T;
rightMetricsKey = T;
unicode = 01AF;
userData = {
com.typemytype.robofont.guideline.magnetic.w9xhz5LEo8 = 5;
interface.gridadjust.original = "{'width': 1968, 'leftMargin': 256, 'rightMargin': -199}";
};
},
{
glyphname = Upsilon2;
lastChange = "2021-06-16 15:59:25 +0000";
layers = (
{
layerId = "B1F27B51-9973-4381-9301-4FE46FE1CA59";
paths = (
{
closed = 1;
nodes = (
"175 408 OFFCURVE",
"535 -28 OFFCURVE",
"1016 -28 CURVE SMOOTH",
"1500 -28 OFFCURVE",
"1857 405 OFFCURVE",
"1856 1000 CURVE SMOOTH",
"1855 1436 OFFCURVE",
"1676 1764 OFFCURVE",
"1276 1968 CURVE",
"1276 1984 LINE",
"1856 1984 LINE",
"1856 2048 LINE",
"1212 2048 LINE",
"1212 1956 LINE",
"1538 1783 OFFCURVE",
"1794 1494 OFFCURVE",
"1792 1004 CURVE SMOOTH",
"1790 461 OFFCURVE",
"1481 38 OFFCURVE",
"1016 36 CURVE SMOOTH",
"554 34 OFFCURVE",
"238 461 OFFCURVE",
"240 1004 CURVE SMOOTH",
"242 1498 OFFCURVE",
"492 1782 OFFCURVE",
"820 1956 CURVE",
"820 2048 LINE",
"176 2048 LINE",
"176 1984 LINE",
"756 1984 LINE",
"756 1968 LINE",
"358 1764 OFFCURVE",
"177 1433 OFFCURVE",
"176 1000 CURVE SMOOTH"
);
}
);
width = 2032;
},
{
layerId = "C698F293-3EC0-4A5A-A3A0-0FDB1F5CF265";
paths = (
{
closed = 1;
nodes = (
"136 384 OFFCURVE",
"512 -28 OFFCURVE",
"1040 -28 CURVE SMOOTH",
"1568 -28 OFFCURVE",
"1944 384 OFFCURVE",
"1944 968 CURVE SMOOTH",
"1944 1356 OFFCURVE",
"1780 1644 OFFCURVE",
"1516 1812 CURVE",
"1516 1828 LINE",
"1944 1828 LINE",
"1944 2048 LINE",
"1216 2048 LINE",
"1216 1768 LINE",
"1480 1656 OFFCURVE",
"1704 1352 OFFCURVE",
"1704 968 CURVE SMOOTH",
"1704 540 OFFCURVE",
"1428 204 OFFCURVE",
"1040 204 CURVE SMOOTH",
"652 204 OFFCURVE",
"376 540 OFFCURVE",
"376 968 CURVE SMOOTH",
"376 1352 OFFCURVE",
"600 1656 OFFCURVE",
"864 1768 CURVE",
"864 2048 LINE",
"136 2048 LINE",
"136 1828 LINE",
"564 1828 LINE",
"564 1812 LINE",
"300 1640 OFFCURVE",
"136 1356 OFFCURVE",
"136 968 CURVE SMOOTH"
);
}
);
width = 2080;
},
{
layerId = "5C20EF92-B63D-42A8-8878-93C2863E0093";
paths = (
{
closed = 1;
nodes = (
"100 364 OFFCURVE",
"520 -28 OFFCURVE",
"1112 -28 CURVE SMOOTH",
"1704 -28 OFFCURVE",
"2124 364 OFFCURVE",
"2124 916 CURVE",
"2124 1228 OFFCURVE",
"1988 1448 OFFCURVE",
"1772 1584 CURVE",
"1772 1600 LINE",
"2124 1600 LINE",
"2124 2048 LINE",
"1256 2048 LINE",
"1256 1488 LINE",
"1440 1416 OFFCURVE",
"1556 1212 OFFCURVE",
"1556 972 CURVE SMOOTH",
"1556 672 OFFCURVE",
"1372 460 OFFCURVE",
"1112 460 CURVE SMOOTH",
"852 460 OFFCURVE",
"668 672 OFFCURVE",
"668 972 CURVE",
"668 1212 OFFCURVE",
"784 1416 OFFCURVE",
"968 1488 CURVE",
"968 2048 LINE",
"100 2048 LINE",
"100 1600 LINE",
"452 1600 LINE",
"452 1584 LINE",
"236 1448 OFFCURVE",
"100 1228 OFFCURVE",
"100 916 CURVE SMOOTH"
);
}
);
width = 2224;
}
);
unicode = 01B1;
userData = {
interface.gridadjust.original = "{'width': 1871, 'leftMargin': 164, 'rightMargin': 163}";
"interface.width-adjustments" = (
-16
);
};
},
{
glyphname = Utildeacute;
lastChange = "2021-06-16 16:02:02 +0000";
layers = (
{
components = (
{
name = U;
},
{
name = tildeacutecomb.uc;
transform = "{1, 0, 0, 1, 1568, 0}";
}
);
layerId = "B1F27B51-9973-4381-9301-4FE46FE1CA59";
width = 2048;
},
{
background = {
paths = (
{
closed = 1;
nodes = (
"504 2048 LINE",
"256 2048 LINE",
"256 748 LINE SMOOTH",
"256 323 OFFCURVE",
"550 17 OFFCURVE",
"1044 16 CURVE SMOOTH",
"1534 15 OFFCURVE",
"1832 323 OFFCURVE",
"1832 748 CURVE SMOOTH",
"1832 2048 LINE",
"1584 2048 LINE",
"1584 764 LINE SMOOTH",
"1584 463 OFFCURVE",
"1386 246 OFFCURVE",
"1044 248 CURVE SMOOTH",
"698 250 OFFCURVE",
"504 463 OFFCURVE",
"504 764 CURVE SMOOTH"
);
},
{
closed = 1;
nodes = (
"1419 2234 OFFCURVE",
"1545 2378 OFFCURVE",
"1544 2560 CURVE",
"1360 2560 LINE",
"1352 2454 OFFCURVE",
"1295 2408 OFFCURVE",
"1228 2408 CURVE SMOOTH",
"1081 2408 OFFCURVE",
"1083 2584 OFFCURVE",
"852 2584 CURVE SMOOTH",
"665 2584 OFFCURVE",
"539 2447 OFFCURVE",
"540 2252 CURVE",
"728 2252 LINE",
"731 2353 OFFCURVE",
"777 2406 OFFCURVE",
"856 2408 CURVE SMOOTH",
"1004 2412 OFFCURVE",
"1001 2229 OFFCURVE",
"1236 2232 CURVE SMOOTH"
);
},
{
closed = 1;
nodes = (
"1008 2640 LINE",
"1268 2640 LINE",
"1608 2944 LINE",
"1308 2944 LINE"
);
}
);
};
components = (
{
name = U;
},
{
name = tildeacutecomb.uc;
transform = "{1, 0, 0, 1, 1536, 0}";
}
);
layerId = "C698F293-3EC0-4A5A-A3A0-0FDB1F5CF265";
width = 2024;
},
{
background = {
paths = (
{
closed = 1;
nodes = (
"728 2048 LINE",
"148 2048 LINE",
"148 772 LINE SMOOTH",
"148 318 OFFCURVE",
"496 30 OFFCURVE",
"1020 28 CURVE SMOOTH",
"1544 26 OFFCURVE",
"1896 318 OFFCURVE",
"1896 772 CURVE SMOOTH",
"1896 2048 LINE",
"1312 2048 LINE",
"1312 836 LINE SMOOTH",
"1312 626 OFFCURVE",
"1208 512 OFFCURVE",
"1020 512 CURVE SMOOTH",
"832 512 OFFCURVE",
"728 626 OFFCURVE",
"728 836 CURVE SMOOTH"
);
},
{
closed = 1;
nodes = (
"1408 2176 OFFCURVE",
"1563 2329 OFFCURVE",
"1564 2588 CURVE",
"1288 2588 LINE",
"1283 2501 OFFCURVE",
"1255 2440 OFFCURVE",
"1192 2440 CURVE SMOOTH",
"1097 2440 OFFCURVE",
"1020 2606 OFFCURVE",
"820 2608 CURVE SMOOTH",
"632 2610 OFFCURVE",
"477 2461 OFFCURVE",
"476 2204 CURVE",
"752 2204 LINE",
"757 2276 OFFCURVE",
"785 2342 OFFCURVE",
"848 2344 CURVE SMOOTH",
"943 2347 OFFCURVE",
"1020 2176 OFFCURVE",
"1220 2176 CURVE SMOOTH"
);
},
{
closed = 1;
nodes = (
"808 2712 LINE",
"1200 2712 LINE",
"1528 3096 LINE",
"1084 3096 LINE"
);
}
);
};
components = (
{
name = U;
},
{
name = tildeacutecomb.uc;
transform = "{1, 0, 0, 1, 1584, 0}";
}
);
layerId = "5C20EF92-B63D-42A8-8878-93C2863E0093";
width = 2032;
}
);
leftKerningGroup = U;
rightKerningGroup = J;
unicode = 1E78;
},
{
color = (219,235,247,1);
glyphname = V;
lastChange = "2021-06-16 15:59:25 +0000";
layers = (
{
anchors = (
{
name = bottom;
position = "{836, 0}";
},
{
name = top;
position = "{836, 2304}";
}
);
layerId = "B1F27B51-9973-4381-9301-4FE46FE1CA59";
paths = (
{
closed = 1;
nodes = (
"60 2048 LINE",
"792 0 LINE",
"880 0 LINE",
"1612 2048 LINE",
"1544 2048 LINE",
"840 80 LINE",
"832 80 LINE",
"128 2048 LINE"
);
}
);
width = 1672;
},
{
anchors = (
{
name = bottom;
position = "{920, 0}";
},
{
name = top;
position = "{920, 2304}";
}
);
guideLines = (
{
alignment = center;
angle = 90;
position = "{880, 476}";
},
{
angle = 90;
position = "{248, 2088}";
},
{
angle = 90;
position = "{1488, 2196}";
}
);
layerId = "C698F293-3EC0-4A5A-A3A0-0FDB1F5CF265";
paths = (
{
closed = 1;
nodes = (
"40 2048 LINE",
"792 0 LINE",
"1048 0 LINE",
"1800 2048 LINE",
"1540 2048 LINE",
"932 324 LINE",
"908 324 LINE",
"300 2048 LINE"
);
}
);
width = 1840;
},
{
anchors = (
{
name = bottom;
position = "{1120, 0}";
},
{
name = top;
position = "{1120, 2304}";
}
);
guideLines = (
{
alignment = center;
angle = 90;
position = "{892, 1048}";
}
);
layerId = "5C20EF92-B63D-42A8-8878-93C2863E0093";
paths = (
{
closed = 1;
nodes = (
"64 2048 LINE",
"740 0 LINE",
"1500 0 LINE",
"2176 2048 LINE",
"1548 2048 LINE",
"1128 604 LINE",
"1112 604 LINE",
"692 2048 LINE"
);
}
);
width = 2240;
},
{
anchors = (
{
name = bottom;
position = "{1116, 0}";
},
{
name = top;
position = "{1116, 2180}";
}
);
associatedMasterId = "5C20EF92-B63D-42A8-8878-93C2863E0093";
guideLines = (
{
alignment = center;
angle = 90;
position = "{1040, 1048}";
}
);
layerId = "6DA4A48D-2A01-425A-BC25-49F594E7EDF2";
name = "Oct 2 18, 14:43";
paths = (
{
closed = 1;
nodes = (
"64 2048 LINE",
"760 0 LINE",
"1472 0 LINE",
"2168 2048 LINE",
"1552 2048 LINE",
"1128 684 LINE",
"1104 684 LINE",
"680 2048 LINE"
);
}
);
width = 2232;
}
);
leftKerningGroup = V;
leftMetricsKey = A;
rightKerningGroup = V;
rightMetricsKey = A;
unicode = 0056;
userData = {
com.typemytype.robofont.guideline.magnetic.IJvllllLzF = 5;
com.typemytype.robofont.guideline.magnetic.KeOP4W9VuQ = 5;
com.typemytype.robofont.guideline.magnetic.yHrbtxZ5FX = 5;
"interface.width-adjustments" = (
-16
);
};
},
{
glyphname = Gamma1;
lastChange = "2021-06-16 15:59:25 +0000";
layers = (
{
layerId = "B1F27B51-9973-4381-9301-4FE46FE1CA59";
paths = (
{
closed = 1;
nodes = (
"672 152 LINE SMOOTH",
"825 -229 OFFCURVE",
"865 -348 OFFCURVE",
"864 -404 CURVE SMOOTH",
"863 -482 OFFCURVE",
"795 -544 OFFCURVE",
"696 -544 CURVE SMOOTH",
"594 -544 OFFCURVE",
"526 -482 OFFCURVE",
"526 -404 CURVE SMOOTH",
"526 -348 OFFCURVE",
"572 -226 OFFCURVE",
"714 126 CURVE SMOOTH",
"1488 2048 LINE",
"1418 2048 LINE",
"620 68 LINE SMOOTH",
"488 -259 OFFCURVE",
"462 -336 OFFCURVE",
"462 -396 CURVE SMOOTH",
"462 -514 OFFCURVE",
"552 -608 OFFCURVE",
"696 -608 CURVE SMOOTH",
"838 -608 OFFCURVE",
"928 -514 OFFCURVE",
"928 -396 CURVE SMOOTH",
"928 -336 OFFCURVE",
"896 -236 OFFCURVE",
"762 98 CURVE SMOOTH",
"-22 2048 LINE",
"-92 2048 LINE"
);
}
);
width = 1390;
},
{
layerId = "C698F293-3EC0-4A5A-A3A0-0FDB1F5CF265";
paths = (
{
closed = 1;
nodes = (
"816 156 LINE SMOOTH",
"920 -84 OFFCURVE",
"976 -192 OFFCURVE",
"976 -272 CURVE SMOOTH",
"976 -332 OFFCURVE",
"928 -384 OFFCURVE",
"856 -384 CURVE SMOOTH",
"784 -384 OFFCURVE",
"736 -336 OFFCURVE",
"736 -272 CURVE SMOOTH",
"736 -192 OFFCURVE",
"800 -76 OFFCURVE",
"900 156 CURVE SMOOTH",
"1716 2048 LINE",
"1448 2048 LINE",
"740 388 LINE SMOOTH",
"584 20 OFFCURVE",
"484 -136 OFFCURVE",
"484 -272 CURVE SMOOTH",
"484 -488 OFFCURVE",
"624 -608 OFFCURVE",
"856 -608 CURVE SMOOTH",
"1088 -608 OFFCURVE",
"1228 -488 OFFCURVE",
"1228 -272 CURVE SMOOTH",
"1228 -144 OFFCURVE",
"1120 20 OFFCURVE",
"964 388 CURVE SMOOTH",
"264 2048 LINE",
"-4 2048 LINE"
);
}
);
width = 1712;
},
{
background = {
paths = (
{
closed = 1;
nodes = (
"1104 172 LINE SMOOTH",
"1184 16 OFFCURVE",
"1212 -68 OFFCURVE",
"1212 -148 CURVE SMOOTH",
"1212 -196 OFFCURVE",
"1216 -248 OFFCURVE",
"1156 -248 CURVE SMOOTH",
"1100 -248 OFFCURVE",
"1100 -204 OFFCURVE",
"1100 -148 CURVE SMOOTH",
"1100 -60 OFFCURVE",
"1136 20 OFFCURVE",
"1212 172 CURVE SMOOTH",
"2136 1988 LINE",
"1492 1988 LINE",
"1016 884 LINE SMOOTH",
"824 440 OFFCURVE",
"552 -40 OFFCURVE",
"552 -172 CURVE SMOOTH",
"552 -492 OFFCURVE",
"856 -600 OFFCURVE",
"1156 -600 CURVE SMOOTH",
"1456 -600 OFFCURVE",
"1740 -492 OFFCURVE",
"1740 -172 CURVE SMOOTH",
"1740 -36 OFFCURVE",
"1496 448 OFFCURVE",
"1304 884 CURVE SMOOTH",
"816 1988 LINE",
"176 1988 LINE"
);
}
);
};
layerId = "5C20EF92-B63D-42A8-8878-93C2863E0093";
paths = (
{
closed = 1;
nodes = (
"1104 232 LINE SMOOTH",
"1169 109 OFFCURVE",
"1212 -49 OFFCURVE",
"1212 -160 CURVE SMOOTH",
"1212 -227 OFFCURVE",
"1195 -256 OFFCURVE",
"1156 -256 CURVE SMOOTH",
"1117 -256 OFFCURVE",
"1100 -226 OFFCURVE",
"1100 -162 CURVE SMOOTH",
"1100 -52 OFFCURVE",
"1143 102 OFFCURVE",
"1212 232 CURVE SMOOTH",
"2176 2048 LINE",
"1532 2048 LINE",
"1016 946 LINE SMOOTH",
"602 63 OFFCURVE",
"552 -76 OFFCURVE",
"552 -192 CURVE SMOOTH",
"552 -449 OFFCURVE",
"799 -608 OFFCURVE",
"1156 -608 CURVE SMOOTH",
"1506 -608 OFFCURVE",
"1740 -433 OFFCURVE",
"1740 -208 CURVE SMOOTH",
"1740 -38 OFFCURVE",
"1594 337 OFFCURVE",
"1304 944 CURVE SMOOTH",
"776 2048 LINE",
"136 2048 LINE"
);
}
);
width = 2312;
}
);
leftKerningGroup = V;
rightKerningGroup = V;
unicode = 0194;
userData = {
interface.gridadjust.original = "{'width': 1778, 'leftMargin': 28, 'rightMargin': 28}";
"interface.width-adjustments" = (
-16
);
};
},
{
glyphname = Vcursive;
lastChange = "2021-06-16 15:59:25 +0000";
layers = (
{
background = {
paths = (
{
closed = 1;
nodes = (
"1232 -32 OFFCURVE",
"1502 218 OFFCURVE",
"1502 652 CURVE SMOOTH",
"1502 1694 LINE SMOOTH",
"1502 1920 OFFCURVE",
"1408 2034 OFFCURVE",
"1214 2034 CURVE SMOOTH",
"1172 2034 OFFCURVE",
"1134 2030 OFFCURVE",
"1094 2016 CURVE",
"1094 1952 LINE",
"1136 1966 OFFCURVE",
"1166 1970 OFFCURVE",
"1206 1970 CURVE SMOOTH",
"1372 1970 OFFCURVE",
"1438 1888 OFFCURVE",
"1438 1694 CURVE SMOOTH",
"1438 652 LINE SMOOTH",
"1438 254 OFFCURVE",
"1196 32 OFFCURVE",
"826 32 CURVE SMOOTH",
"464 32 OFFCURVE",
"234 248 OFFCURVE",
"234 652 CURVE SMOOTH",
"234 2002 LINE",
"170 2002 LINE",
"170 652 LINE SMOOTH",
"170 212 OFFCURVE",
"428 -32 OFFCURVE",
"826 -32 CURVE SMOOTH"
);
}
);
};
layerId = "B1F27B51-9973-4381-9301-4FE46FE1CA59";
paths = (
{
closed = 1;
nodes = (
"1200 -32 OFFCURVE",
"1470 218 OFFCURVE",
"1470 652 CURVE SMOOTH",
"1470 1736 LINE SMOOTH",
"1470 1962 OFFCURVE",
"1376 2076 OFFCURVE",
"1180 2076 CURVE SMOOTH",
"1140 2076 OFFCURVE",
"1102 2071 OFFCURVE",
"1062 2058 CURVE",
"1062 1994 LINE",
"1104 2007 OFFCURVE",
"1134 2012 OFFCURVE",
"1174 2012 CURVE SMOOTH",
"1340 2012 OFFCURVE",
"1406 1930 OFFCURVE",
"1406 1736 CURVE SMOOTH",
"1406 652 LINE SMOOTH",
"1406 254 OFFCURVE",
"1164 32 OFFCURVE",
"794 32 CURVE SMOOTH",
"432 32 OFFCURVE",
"202 248 OFFCURVE",
"202 652 CURVE SMOOTH",
"202 2048 LINE",
"138 2048 LINE",
"138 652 LINE SMOOTH",
"138 212 OFFCURVE",
"396 -32 OFFCURVE",
"794 -32 CURVE SMOOTH"
);
}
);
width = 1608;
},
{
background = {
paths = (
{
closed = 1;
nodes = (
"1276 -28 OFFCURVE",
"1620 196 OFFCURVE",
"1620 648 CURVE SMOOTH",
"1620 1552 LINE SMOOTH",
"1620 1860 OFFCURVE",
"1436 2032 OFFCURVE",
"1172 2032 CURVE SMOOTH",
"1128 2032 OFFCURVE",
"1056 2020 OFFCURVE",
"1016 2008 CURVE",
"1016 1788 LINE",
"1040 1796 OFFCURVE",
"1080 1796 OFFCURVE",
"1104 1796 CURVE SMOOTH",
"1252 1796 OFFCURVE",
"1332 1732 OFFCURVE",
"1332 1552 CURVE SMOOTH",
"1332 648 LINE SMOOTH",
"1332 340 OFFCURVE",
"1156 200 OFFCURVE",
"888 200 CURVE SMOOTH",
"620 200 OFFCURVE",
"444 340 OFFCURVE",
"444 648 CURVE SMOOTH",
"444 2004 LINE",
"160 2004 LINE",
"160 648 LINE SMOOTH",
"160 196 OFFCURVE",
"476 -28 OFFCURVE",
"888 -28 CURVE SMOOTH"
);
}
);
};
layerId = "C698F293-3EC0-4A5A-A3A0-0FDB1F5CF265";
paths = (
{
closed = 1;
nodes = (
"1244 -28 OFFCURVE",
"1588 196 OFFCURVE",
"1588 648 CURVE SMOOTH",
"1588 1596 LINE SMOOTH",
"1588 1904 OFFCURVE",
"1398 2076 OFFCURVE",
"1154 2076 CURVE SMOOTH",
"1090 2076 OFFCURVE",
"1024 2064 OFFCURVE",
"984 2052 CURVE",
"984 1832 LINE",
"1008 1838 OFFCURVE",
"1052 1840 OFFCURVE",
"1076 1840 CURVE SMOOTH",
"1218 1840 OFFCURVE",
"1300 1776 OFFCURVE",
"1300 1596 CURVE SMOOTH",
"1300 648 LINE SMOOTH",
"1300 340 OFFCURVE",
"1124 200 OFFCURVE",
"856 200 CURVE SMOOTH",
"588 200 OFFCURVE",
"412 340 OFFCURVE",
"412 648 CURVE SMOOTH",
"412 2048 LINE",
"128 2048 LINE",
"128 648 LINE SMOOTH",
"128 196 OFFCURVE",
"444 -28 OFFCURVE",
"856 -28 CURVE SMOOTH"
);
}
);
width = 1712;
},
{
background = {
paths = (
{
closed = 1;
nodes = (
"1493 -28 OFFCURVE",
"1817 244 OFFCURVE",
"1816 716 CURVE SMOOTH",
"1816 1408 LINE SMOOTH",
"1817 1808 OFFCURVE",
"1589 2028 OFFCURVE",
"1204 2028 CURVE SMOOTH",
"1105 2028 OFFCURVE",
"1049 2024 OFFCURVE",
"964 2004 CURVE",
"964 1576 LINE",
"1021 1584 OFFCURVE",
"1065 1588 OFFCURVE",
"1108 1588 CURVE SMOOTH",
"1245 1588 OFFCURVE",
"1273 1548 OFFCURVE",
"1272 1408 CURVE SMOOTH",
"1272 716 LINE SMOOTH",
"1273 520 OFFCURVE",
"1201 400 OFFCURVE",
"980 400 CURVE SMOOTH",
"757 400 OFFCURVE",
"677 520 OFFCURVE",
"676 716 CURVE SMOOTH",
"676 2004 LINE",
"140 2004 LINE",
"140 716 LINE SMOOTH",
"141 240 OFFCURVE",
"481 -28 OFFCURVE",
"980 -28 CURVE SMOOTH"
);
}
);
};
layerId = "5C20EF92-B63D-42A8-8878-93C2863E0093";
paths = (
{
closed = 1;
nodes = (
"1493 -28 OFFCURVE",
"1816 244 OFFCURVE",
"1816 716 CURVE SMOOTH",
"1816 1456 LINE SMOOTH",
"1816 1856 OFFCURVE",
"1595 2076 OFFCURVE",
"1190 2076 CURVE SMOOTH",
"1111 2076 OFFCURVE",
"1049 2069 OFFCURVE",
"964 2052 CURVE",
"964 1624 LINE",
"1021 1632 OFFCURVE",
"1065 1636 OFFCURVE",
"1108 1636 CURVE SMOOTH",
"1245 1636 OFFCURVE",
"1272 1596 OFFCURVE",
"1272 1456 CURVE SMOOTH",
"1272 716 LINE SMOOTH",
"1272 520 OFFCURVE",
"1201 400 OFFCURVE",
"980 400 CURVE SMOOTH",
"757 400 OFFCURVE",
"676 520 OFFCURVE",
"676 716 CURVE SMOOTH",
"676 2048 LINE",
"140 2048 LINE",
"140 716 LINE SMOOTH",
"140 240 OFFCURVE",
"481 -28 OFFCURVE",
"980 -28 CURVE SMOOTH"
);
}
);
width = 1952;
}
);
unicode = 01B2;
userData = {
interface.gridadjust.original = "{'width': 1830, 'leftMargin': 186, 'rightMargin': 185}";
"interface.width-adjustments" = (
-16
);
};
},
{
color = (219,235,247,1);
glyphname = W;
lastChange = "2021-06-16 15:59:25 +0000";
layers = (
{
anchors = (
{
name = bottom;
position = "{1224, 16}";
},
{
name = top;
position = "{1224, 2304}";
}
);
layerId = "B1F27B51-9973-4381-9301-4FE46FE1CA59";
leftMetricsKey = "=A-12";
rightMetricsKey = "=A-12";
paths = (
{
closed = 1;
nodes = (
"700 0 LINE",
"1220 1948 LINE",
"1228 1948 LINE",
"1748 0 LINE",
"1836 0 LINE",
"2400 2048 LINE",
"2332 2048 LINE",
"1796 100 LINE",
"1788 100 LINE",
"1268 2048 LINE",
"1180 2048 LINE",
"660 100 LINE",
"652 100 LINE",
"116 2048 LINE",
"48 2048 LINE",
"612 0 LINE"
);
}
);
width = 2448;
},
{
anchors = (
{
name = bottom;
position = "{1216, 28}";
},
{
name = top;
position = "{1216, 2380}";
}
);
associatedMasterId = "B1F27B51-9973-4381-9301-4FE46FE1CA59";
background = {
paths = (
{
closed = 1;
nodes = (
"692 0 LINE",
"1208 1924 LINE",
"1224 1924 LINE",
"1736 0 LINE",
"1828 0 LINE",
"2360 2048 LINE",
"2328 2048 LINE",
"1812 140 LINE",
"1792 140 LINE",
"1292 2048 LINE",
"1136 2048 LINE",
"640 136 LINE",
"616 136 LINE",
"100 2048 LINE",
"68 2048 LINE",
"600 0 LINE"
);
}
);
};
layerId = "11917E52-1163-4D25-A7C8-D834BC2206AE";
name = "Nov 25 18, 14:25";
paths = (
{
closed = 1;
nodes = (
"64 2048 LINE",
"628 0 LINE",
"716 0 LINE",
"1256 2048 LINE",
"1188 2048 LINE",
"676 100 LINE",
"668 100 LINE",
"128 2048 LINE"
);
},
{
closed = 1;
nodes = (
"1816 100 LINE",
"1808 100 LINE",
"1296 2048 LINE",
"1228 2048 LINE",
"1768 0 LINE",
"1856 0 LINE",
"2420 2048 LINE",
"2356 2048 LINE"
);
}
);
width = 2432;
},
{
anchors = (
{
name = bottom;
position = "{1310, 16}";
},
{
name = top;
position = "{1310, 2304}";
}
);
guideLines = (
{
position = "{1070, 360}";
},
{
alignment = center;
angle = 90;
position = "{-34, 2096}";
},
{
angle = 90;
position = "{682, 332}";
},
{
angle = 90;
position = "{1858, 356}";
}
);
layerId = "C698F293-3EC0-4A5A-A3A0-0FDB1F5CF265";
leftMetricsKey = "=A*0.84";
rightMetricsKey = "=A*0.84";
paths = (
{
closed = 1;
nodes = (
"850 0 LINE",
"1302 1632 LINE",
"1318 1632 LINE",
"1770 0 LINE",
"2026 0 LINE",
"2586 2048 LINE",
"2334 2048 LINE",
"1906 380 LINE",
"1886 380 LINE",
"1450 2048 LINE",
"1170 2048 LINE",
"734 380 LINE",
"714 380 LINE",
"286 2048 LINE",
"34 2048 LINE",
"594 0 LINE"
);
}
);
width = 2620;
},
{
anchors = (
{
name = bottom;
position = "{1540, 0}";
},
{
name = top;
position = "{1540, 2304}";
}
);
guideLines = (
{
alignment = center;
angle = 90;
position = "{1284, 2076}";
}
);
layerId = "5C20EF92-B63D-42A8-8878-93C2863E0093";
leftMetricsKey = "=A-16";
rightMetricsKey = "=A-16";
paths = (
{
closed = 1;
nodes = (
"1184 0 LINE",
"1532 1144 LINE",
"1548 1144 LINE",
"1896 0 LINE",
"2428 0 LINE",
"3032 2048 LINE",
"2412 2048 LINE",
"2132 784 LINE",
"2116 784 LINE",
"1784 2048 LINE",
"1296 2048 LINE",
"964 788 LINE",
"948 788 LINE",
"668 2048 LINE",
"48 2048 LINE",
"652 0 LINE"
);
}
);
width = 3080;
}
);
leftKerningGroup = W;
rightKerningGroup = W;
unicode = 0057;
userData = {
com.typemytype.robofont.guideline.magnetic.8gZT6dIVxI = 5;
com.typemytype.robofont.guideline.magnetic.ZoWqubfLj9 = 5;
com.typemytype.robofont.guideline.magnetic.k6chDe7LUI = 5;
com.typemytype.robofont.guideline.magnetic.tUpIEqa0MC = 5;
"interface.width-adjustments" = (
-16
);
};
},
{
color = (219,235,247,1);
glyphname = X;
lastChange = "2021-06-16 15:59:25 +0000";
layers = (
{
anchors = (
{
name = bottom;
position = "{792, 16}";
},
{
name = cross;
position = "{792, 1024}";
},
{
name = cyrtic;
position = "{1516, 8}";
},
{
name = right;
position = "{1452, 0}";
},
{
name = top;
position = "{792, 2304}";
}
);
layerId = "B1F27B51-9973-4381-9301-4FE46FE1CA59";
paths = (
{
closed = 1;
nodes = (
"64 2048 LINE",
"752 1024 LINE",
"64 0 LINE",
"144 0 LINE",
"788 964 LINE",
"796 964 LINE",
"1440 0 LINE",
"1520 0 LINE",
"832 1024 LINE",
"1520 2048 LINE",
"1440 2048 LINE",
"796 1084 LINE",
"788 1084 LINE",
"144 2048 LINE"
);
}
);
width = 1584;
},
{
anchors = (
{
name = bottom;
position = "{804, 32}";
},
{
name = cross;
position = "{800, 1024}";
},
{
name = cyrtic;
position = "{1524, 8}";
},
{
name = right;
position = "{1420, 0}";
},
{
name = top;
position = "{804, 2380}";
}
);
associatedMasterId = "B1F27B51-9973-4381-9301-4FE46FE1CA59";
background = {
paths = (
{
closed = 1;
nodes = (
"60 2048 LINE",
"752 1024 LINE",
"72 0 LINE",
"160 0 LINE",
"796 972 LINE",
"812 972 LINE",
"1448 0 LINE",
"1532 0 LINE",
"884 1024 LINE",
"1548 2048 LINE",
"1452 2048 LINE",
"812 1044 LINE",
"796 1044 LINE",
"152 2048 LINE"
);
}
);
};
layerId = "E8D82951-B715-498B-B293-BF1B194F0E0C";
name = "Nov 25 18, 14:33";
paths = (
{
closed = 0;
nodes = (
"88 2084 LINE",
"1512 -36 LINE"
);
},
{
closed = 0;
nodes = (
"1512 2084 LINE",
"88 -36 LINE"
);
}
);
width = 1600;
},
{
anchors = (
{
name = bottom;
position = "{804, 32}";
},
{
name = cross;
position = "{800, 1024}";
},
{
name = cyrtic;
position = "{1524, 8}";
},
{
name = right;
position = "{1420, 0}";
},
{
name = top;
position = "{804, 2380}";
}
);
associatedMasterId = "B1F27B51-9973-4381-9301-4FE46FE1CA59";
background = {
paths = (
{
closed = 1;
nodes = (
"60 2048 LINE",
"752 1024 LINE",
"72 0 LINE",
"160 0 LINE",
"796 972 LINE",
"812 972 LINE",
"1448 0 LINE",
"1532 0 LINE",
"884 1024 LINE",
"1548 2048 LINE",
"1452 2048 LINE",
"812 1044 LINE",
"796 1044 LINE",
"152 2048 LINE"
);
}
);
};
layerId = "46A46977-E9DE-4073-9A61-A08C35965B24";
name = "Nov 25 18, 14:35";
paths = (
{
closed = 1;
nodes = (
"1528 0 LINE",
"152 2048 LINE",
"72 2048 LINE",
"1448 0 LINE"
);
},
{
closed = 1;
nodes = (
"152 0 LINE",
"1528 2048 LINE",
"1448 2048 LINE",
"72 0 LINE"
);
},
{
closed = 1;
nodes = (
"792 960 LINE",
"808 960 LINE",
"808 1088 LINE",
"792 1088 LINE"
);
}
);
width = 1600;
},
{
anchors = (
{
name = bottom;
position = "{872, 16}";
},
{
name = cross;
position = "{872, 1024}";
},
{
name = cyrtic;
position = "{1656, 88}";
},
{
name = right;
position = "{1520, 0}";
},
{
name = top;
position = "{872, 2304}";
}
);
guideLines = (
{
angle = 90;
position = "{1660, 2180}";
},
{
alignment = center;
angle = 90;
position = "{832, 1372}";
},
{
angle = 90;
position = "{4, 2060}";
},
{
alignment = center;
position = "{1288, 1024}";
}
);
layerId = "C698F293-3EC0-4A5A-A3A0-0FDB1F5CF265";
paths = (
{
closed = 1;
nodes = (
"44 2048 LINE",
"704 1024 LINE",
"44 0 LINE",
"336 0 LINE",
"864 836 LINE",
"880 836 LINE",
"1408 0 LINE",
"1700 0 LINE",
"1056 1024 LINE",
"1700 2048 LINE",
"1408 2048 LINE",
"880 1196 LINE",
"864 1196 LINE",
"336 2048 LINE"
);
}
);
width = 1744;
},
{
anchors = (
{
name = bottom;
position = "{1072, -8}";
},
{
name = cross;
position = "{1072, 1024}";
},
{
name = cyrtic;
position = "{1960, 224}";
},
{
name = right;
position = "{1776, 0}";
},
{
name = top;
position = "{1072, 2304}";
}
);
guideLines = (
{
alignment = center;
angle = 90;
position = "{848, 2152}";
},
{
angle = 90;
position = "{-52, 2084}";
},
{
angle = 90;
position = "{1748, 2080}";
},
{
alignment = center;
position = "{1008, 1024}";
}
);
layerId = "5C20EF92-B63D-42A8-8878-93C2863E0093";
paths = (
{
closed = 1;
nodes = (
"104 2048 LINE",
"712 1024 LINE",
"84 0 LINE",
"716 0 LINE",
"1064 608 LINE",
"1080 608 LINE",
"1428 0 LINE",
"2064 0 LINE",
"1428 1024 LINE",
"2040 2048 LINE",
"1420 2048 LINE",
"1080 1452 LINE",
"1064 1452 LINE",
"728 2048 LINE"
);
}
);
width = 2148;
}
);
leftKerningGroup = X;
note = "recipe: offset curve 32, no auto";
rightKerningGroup = X;
unicode = 0058;
userData = {
com.typemytype.robofont.guideline.magnetic.1jwe8yH4eD = 5;
com.typemytype.robofont.guideline.magnetic.AJAcp0DKEy = 5;
com.typemytype.robofont.guideline.magnetic.QFtArEHSdm = 5;
com.typemytype.robofont.guideline.magnetic.TR4vAYYyfi = 5;
com.typemytype.robofont.guideline.magnetic.nnmV4p3je2 = 5;
"interface.width-adjustments" = (
-16
);
};
},
{
color = (219,235,247,1);
glyphname = Y;
lastChange = "2021-06-16 15:59:25 +0000";
layers = (
{
anchors = (
{
name = bottom;
position = "{828, 0}";
},
{
name = cross;
position = "{832, 832}";
},
{
name = ogonek;
position = "{864, 0}";
},
{
name = tonos;
position = "{28, 2048}";
},
{
name = top;
position = "{832, 2304}";
}
);
layerId = "B1F27B51-9973-4381-9301-4FE46FE1CA59";
paths = (
{
closed = 1;
nodes = (
"800 972 LINE",
"800 0 LINE",
"864 0 LINE",
"864 972 LINE",
"1600 2048 LINE",
"1520 2048 LINE",
"836 1044 LINE",
"828 1044 LINE",
"144 2048 LINE",
"64 2048 LINE"
);
}
);
width = 1664;
},
{
anchors = (
{
name = bottom;
position = "{840, 0}";
},
{
name = cross;
position = "{840, 848}";
},
{
name = tonos;
position = "{40, 2048}";
},
{
name = top;
position = "{840, 2304}";
}
);
associatedMasterId = "B1F27B51-9973-4381-9301-4FE46FE1CA59";
background = {
paths = (
{
closed = 1;
nodes = (
"808 964 LINE",
"808 0 LINE",
"872 0 LINE",
"872 964 LINE",
"1604 2048 LINE",
"1524 2048 LINE",
"852 1020 LINE",
"824 1020 LINE",
"156 2048 LINE",
"72 2048 LINE"
);
}
);
};
layerId = "519B55C8-6087-452D-A6A5-C177CD7F711A";
name = "Nov 25 18, 15:20";
paths = (
{
closed = 1;
nodes = (
"808 972 LINE",
"872 972 LINE",
"1608 2048 LINE",
"1528 2048 LINE",
"844 1044 LINE",
"836 1044 LINE",
"152 2048 LINE",
"72 2048 LINE"
);
},
{
closed = 1;
nodes = (
"808 0 LINE",
"872 0 LINE",
"872 1012 LINE",
"808 1012 LINE"
);
}
);
width = 1680;
},
{
anchors = (
{
name = bottom;
position = "{904, 0}";
},
{
name = cross;
position = "{904, 816}";
},
{
name = ogonek;
position = "{1028, 0}";
},
{
name = tonos;
position = "{-36, 2048}";
},
{
name = top;
position = "{904, 2304}";
}
);
guideLines = (
{
alignment = center;
angle = 90;
position = "{864, 1360}";
},
{
angle = 90;
position = "{268, 2092}";
},
{
angle = 90;
position = "{1428, 2100}";
}
);
layerId = "C698F293-3EC0-4A5A-A3A0-0FDB1F5CF265";
paths = (
{
closed = 1;
nodes = (
"780 844 LINE",
"780 0 LINE",
"1028 0 LINE",
"1028 844 LINE",
"1768 2048 LINE",
"1484 2048 LINE",
"916 1092 LINE",
"892 1092 LINE",
"324 2048 LINE",
"40 2048 LINE"
);
}
);
width = 1808;
},
{
anchors = (
{
name = bottom;
position = "{1076, 0}";
},
{
name = cross;
position = "{1076, 764}";
},
{
name = ogonek;
position = "{1352, 0}";
},
{
name = tonos;
position = "{-96, 2048}";
},
{
name = top;
position = "{1076, 2304}";
}
);
guideLines = (
{
alignment = center;
angle = 90;
position = "{832, 1724}";
}
);
layerId = "5C20EF92-B63D-42A8-8878-93C2863E0093";
paths = (
{
closed = 1;
nodes = (
"800 644 LINE",
"800 0 LINE",
"1352 0 LINE",
"1352 644 LINE",
"2104 2048 LINE",
"1484 2048 LINE",
"1084 1216 LINE",
"1068 1216 LINE",
"668 2048 LINE",
"48 2048 LINE"
);
}
);
width = 2152;
}
);
leftKerningGroup = Y;
rightKerningGroup = Y;
unicode = 0059;
userData = {
com.typemytype.robofont.guideline.magnetic.KceIXUepDd = 5;
com.typemytype.robofont.guideline.magnetic.TWkdg41wEI = 5;
com.typemytype.robofont.guideline.magnetic.o5DXjGQkF9 = 5;
"interface.width-adjustments" = (
-16
);
};
},
{
glyphname = YR;
lastChange = "2021-06-16 15:59:25 +0000";
layers = (
{
background = {
paths = (
{
closed = 1;
nodes = (
"214 1864 LINE",
"214 2144 LINE",
"150 2144 LINE",
"150 1864 LINE"
);
},
{
closed = 1;
nodes = (
"150 0 LINE",
"214 0 LINE",
"214 1944 LINE",
"750 1944 LINE SMOOTH",
"1056 1944 OFFCURVE",
"1273 1738 OFFCURVE",
"1274 1424 CURVE SMOOTH",
"1275 1112 OFFCURVE",
"1056 908 OFFCURVE",
"824 908 CURVE SMOOTH",
"182 908 LINE",
"182 844 LINE",
"890 844 LINE",
"908 850 LINE",
"1166 912 OFFCURVE",
"1338 1132 OFFCURVE",
"1338 1424 CURVE SMOOTH",
"1338 1775 OFFCURVE",
"1093 2008 OFFCURVE",
"750 2008 CURVE SMOOTH",
"150 2008 LINE"
);
},
{
closed = 1;
nodes = (
"1684 -512 LINE",
"1684 -504 LINE",
"930 892 LINE",
"858 892 LINE",
"1616 -512 LINE"
);
}
);
};
guideLines = (
{
position = "{296, 2588}";
}
);
layerId = "B1F27B51-9973-4381-9301-4FE46FE1CA59";
paths = (
{
closed = 1;
nodes = (
"182 1904 LINE",
"182 2184 LINE",
"118 2184 LINE",
"118 1904 LINE"
);
},
{
closed = 1;
nodes = (
"118 0 LINE",
"182 0 LINE",
"182 1984 LINE",
"718 1984 LINE SMOOTH",
"1024 1984 OFFCURVE",
"1241 1778 OFFCURVE",
"1242 1464 CURVE SMOOTH",
"1243 1152 OFFCURVE",
"1024 948 OFFCURVE",
"792 948 CURVE SMOOTH",
"150 948 LINE",
"150 884 LINE",
"858 884 LINE",
"876 890 LINE",
"1134 952 OFFCURVE",
"1306 1172 OFFCURVE",
"1306 1464 CURVE SMOOTH",
"1306 1815 OFFCURVE",
"1061 2048 OFFCURVE",
"718 2048 CURVE SMOOTH",
"118 2048 LINE"
);
},
{
closed = 1;
nodes = (
"1652 -512 LINE",
"1652 -504 LINE",
"886 914 LINE",
"814 914 LINE",
"1584 -512 LINE"
);
}
);
width = 1796;
},
{
background = {
paths = (
{
closed = 1;
nodes = (
"440 1864 LINE",
"440 2144 LINE",
"152 2144 LINE",
"152 1864 LINE {name = hr00;}"
);
},
{
closed = 1;
nodes = (
"152 0 LINE",
"440 0 LINE",
"440 1772 LINE",
"820 1772 LINE SMOOTH",
"1120 1772 OFFCURVE",
"1240 1624 OFFCURVE",
"1240 1400 CURVE SMOOTH",
"1240 1196 OFFCURVE",
"1100 1036 OFFCURVE",
"820 1036 CURVE SMOOTH",
"376 1036 LINE",
"376 808 LINE",
"984 808 LINE",
"1060 836 LINE",
"1352 916 OFFCURVE",
"1524 1124 OFFCURVE",
"1524 1400 CURVE SMOOTH",
"1524 1792 OFFCURVE",
"1276 2004 OFFCURVE",
"820 2004 CURVE SMOOTH",
"152 2004 LINE"
);
},
{
closed = 1;
nodes = (
"1880 -496 LINE",
"1880 -480 LINE",
"1128 912 LINE",
"828 912 LINE",
"1576 -496 LINE"
);
}
);
};
layerId = "C698F293-3EC0-4A5A-A3A0-0FDB1F5CF265";
paths = (
{
closed = 1;
nodes = (
"408 1910 LINE",
"408 2190 LINE",
"120 2190 LINE",
"120 1910 LINE {name = hr00;}"
);
},
{
closed = 1;
nodes = (
"120 0 LINE",
"408 0 LINE",
"408 1818 LINE",
"788 1818 LINE SMOOTH",
"1088 1818 OFFCURVE",
"1208 1670 OFFCURVE",
"1208 1446 CURVE SMOOTH",
"1208 1242 OFFCURVE",
"1068 1082 OFFCURVE",
"788 1082 CURVE SMOOTH",
"344 1082 LINE",
"344 854 LINE",
"952 854 LINE",
"1028 882 LINE",
"1320 962 OFFCURVE",
"1492 1170 OFFCURVE",
"1492 1446 CURVE SMOOTH",
"1492 1838 OFFCURVE",
"1244 2050 OFFCURVE",
"788 2050 CURVE SMOOTH",
"120 2050 LINE"
);
},
{
closed = 1;
nodes = (
"1848 -496 LINE",
"1848 -480 LINE",
"1096 912 LINE",
"796 912 LINE",
"1544 -496 LINE"
);
}
);
width = 1968;
},
{
background = {
paths = (
{
closed = 1;
nodes = (
"668 1864 LINE",
"668 2144 LINE",
"132 2144 LINE",
"132 1864 LINE"
);
},
{
closed = 1;
nodes = (
"128 0 LINE",
"668 0 LINE",
"668 1572 LINE",
"976 1572 LINE SMOOTH",
"1144 1572 OFFCURVE",
"1244 1484 OFFCURVE",
"1244 1332 CURVE SMOOTH",
"1244 1180 OFFCURVE",
"1148 1096 OFFCURVE",
"976 1096 CURVE SMOOTH",
"456 1096 LINE",
"460 668 LINE",
"1160 668 LINE",
"1344 780 LINE",
"1600 884 OFFCURVE",
"1780 1024 OFFCURVE",
"1780 1396 CURVE SMOOTH",
"1780 1792 OFFCURVE",
"1460 2004 OFFCURVE",
"976 2004 CURVE SMOOTH",
"128 2004 LINE {name = hr01;}"
);
},
{
closed = 1;
nodes = (
"2096 -472 LINE",
"2096 -452 LINE",
"1380 880 LINE",
"812 880 LINE",
"1520 -472 LINE"
);
}
);
};
layerId = "5C20EF92-B63D-42A8-8878-93C2863E0093";
paths = (
{
closed = 1;
nodes = (
"664 1908 LINE",
"664 2188 LINE",
"128 2188 LINE",
"128 1908 LINE"
);
},
{
closed = 1;
nodes = (
"128 0 LINE",
"668 0 LINE",
"668 1616 LINE",
"976 1616 LINE SMOOTH",
"1144 1616 OFFCURVE",
"1244 1528 OFFCURVE",
"1244 1376 CURVE SMOOTH",
"1244 1224 OFFCURVE",
"1148 1140 OFFCURVE",
"976 1140 CURVE SMOOTH",
"456 1140 LINE",
"460 712 LINE",
"1160 712 LINE",
"1344 824 LINE",
"1600 928 OFFCURVE",
"1780 1068 OFFCURVE",
"1780 1440 CURVE SMOOTH",
"1780 1836 OFFCURVE",
"1460 2048 OFFCURVE",
"976 2048 CURVE SMOOTH",
"128 2048 LINE {name = hr01;}"
);
},
{
closed = 1;
nodes = (
"2096 -472 LINE",
"2096 -452 LINE",
"1380 880 LINE",
"812 880 LINE",
"1520 -472 LINE"
);
}
);
width = 2224;
}
);
unicode = 01A6;
userData = {
interface.gridadjust.original = "{'width': 1939, 'leftMargin': 228, 'rightMargin': -18}";
"interface.width-adjustments" = (
-16
);
};
},
{
glyphname = Yhook;
lastChange = "2021-06-16 15:59:25 +0000";
layers = (
{
background = {
paths = (
{
closed = 1;
nodes = (
"828 996 LINE",
"828 1044 LINE",
"780 1044 LINE",
"780 996 LINE"
);
},
{
closed = 1;
nodes = (
"772 972 LINE",
"772 0 LINE",
"836 0 LINE",
"836 972 LINE",
"1474 1902 LINE SMOOTH",
"1544 2004 OFFCURVE",
"1653 2016 OFFCURVE",
"1720 1972 CURVE",
"1764 2014 LINE",
"1699 2087 OFFCURVE",
"1516 2081 OFFCURVE",
"1430 1956 CURVE SMOOTH",
"802 1040 LINE",
"116 2048 LINE",
"36 2048 LINE"
);
}
);
};
layerId = "B1F27B51-9973-4381-9301-4FE46FE1CA59";
paths = (
{
closed = 1;
nodes = (
"796 996 LINE",
"796 1044 LINE",
"748 1044 LINE",
"748 996 LINE"
);
},
{
closed = 1;
nodes = (
"740 972 LINE",
"740 0 LINE",
"804 0 LINE",
"804 972 LINE",
"1454 1918 LINE SMOOTH",
"1524 2019 OFFCURVE",
"1633 2031 OFFCURVE",
"1700 1988 CURVE",
"1744 2030 LINE",
"1679 2102 OFFCURVE",
"1495 2096 OFFCURVE",
"1410 1972 CURVE SMOOTH",
"770 1040 LINE",
"84 2048 LINE",
"4 2048 LINE"
);
}
);
width = 1690;
},
{
background = {
paths = (
{
closed = 1;
nodes = (
"964 1044 LINE",
"964 1092 LINE",
"916 1092 LINE",
"916 1044 LINE"
);
},
{
closed = 1;
nodes = (
"816 844 LINE",
"816 0 LINE",
"1064 0 LINE",
"1064 844 LINE",
"1572 1672 LINE",
"1612 1740 LINE SMOOTH",
"1682 1860 OFFCURVE",
"1772 1872 OFFCURVE",
"1868 1832 CURVE",
"1932 2032 LINE",
"1736 2124 OFFCURVE",
"1534 2064 OFFCURVE",
"1400 1844 CURVE SMOOTH",
"1356 1772 LINE",
"940 1072 LINE",
"360 2048 LINE",
"76 2048 LINE"
);
}
);
};
guideLines = (
{
angle = 238.6031;
position = "{1432, 1588}";
},
{
angle = 239.3277;
position = "{1240, 1724}";
}
);
layerId = "C698F293-3EC0-4A5A-A3A0-0FDB1F5CF265";
paths = (
{
closed = 1;
nodes = (
"932 1044 LINE",
"932 1092 LINE",
"884 1092 LINE",
"884 1044 LINE"
);
},
{
closed = 1;
nodes = (
"784 844 LINE",
"784 0 LINE",
"1032 0 LINE",
"1032 844 LINE",
"1580 1740 LINE SMOOTH",
"1652 1858 OFFCURVE",
"1740 1872 OFFCURVE",
"1836 1832 CURVE",
"1900 2032 LINE",
"1704 2124 OFFCURVE",
"1500 2066 OFFCURVE",
"1368 1844 CURVE SMOOTH",
"908 1072 LINE",
"328 2048 LINE",
"44 2048 LINE"
);
}
);
width = 1924;
},
{
background = {
paths = (
{
closed = 1;
nodes = (
"1924 1468 LINE SMOOTH",
"2010 1616 OFFCURVE",
"2074 1656 OFFCURVE",
"2236 1612 CURVE",
"2348 2020 LINE",
"2058 2120 OFFCURVE",
"1714 2096 OFFCURVE",
"1512 1744 CURVE SMOOTH",
"1432 1604 LINE",
"1888 1408 LINE"
);
},
{
closed = 1;
nodes = (
"1204 1168 LINE",
"1204 1216 LINE",
"1156 1216 LINE",
"1156 1168 LINE"
);
},
{
closed = 1;
nodes = (
"72 2048 LINE",
"904 756 LINE",
"904 0 LINE",
"1456 0 LINE",
"1456 756 LINE",
"1888 1408 LINE",
"1432 1604 LINE",
"1180 1196 LINE",
"668 2048 LINE"
);
}
);
};
guideLines = (
{
angle = 240.4178;
position = "{1036, 1336}";
},
{
angle = 238.4456;
position = "{1296, 988}";
}
);
layerId = "5C20EF92-B63D-42A8-8878-93C2863E0093";
paths = (
{
closed = 1;
nodes = (
"1204 1168 LINE",
"1204 1216 LINE",
"1156 1216 LINE",
"1156 1168 LINE"
);
},
{
closed = 1;
nodes = (
"904 756 LINE",
"904 0 LINE",
"1456 0 LINE",
"1456 756 LINE",
"1932 1486 LINE SMOOTH",
"2016 1614 OFFCURVE",
"2074 1656 OFFCURVE",
"2236 1612 CURVE",
"2348 2020 LINE",
"2058 2120 OFFCURVE",
"1722 2090 OFFCURVE",
"1522 1760 CURVE SMOOTH",
"1180 1196 LINE",
"668 2048 LINE",
"72 2048 LINE"
);
}
);
width = 2380;
}
);
leftKerningGroup = Y;
note = "!post:RemoveOverlap";
rightKerningGroup = Y;
unicode = 01B3;
userData = {
com.typemytype.robofont.guideline.magnetic.1p4TietnVi = 5;
com.typemytype.robofont.guideline.magnetic.a19mK3ffcr = 5;
interface.gridadjust.original = "{'width': 1843, 'leftMargin': 18, 'rightMargin': -41}";
"interface.width-adjustments" = (
-16
);
};
},
{
color = (219,235,247,1);
glyphname = Z;
lastChange = "2021-06-16 15:59:25 +0000";
layers = (
{
anchors = (
{
name = bottom;
position = "{820, 0}";
},
{
name = cross;
position = "{820, 1024}";
},
{
name = top;
position = "{820, 2304}";
}
);
guideLines = (
{
angle = 90;
position = "{76, 684}";
},
{
angle = 90;
position = "{1356, 684}";
}
);
layerId = "B1F27B51-9973-4381-9301-4FE46FE1CA59";
paths = (
{
closed = 1;
nodes = (
"1468 0 LINE",
"1468 64 LINE",
"256 64 LINE",
"1460 1984 LINE",
"1460 2048 LINE",
"188 2048 LINE",
"188 1984 LINE",
"1384 1984 LINE",
"180 64 LINE",
"180 0 LINE"
);
}
);
width = 1640;
},
{
anchors = (
{
name = bottom;
position = "{840, 0}";
},
{
name = cross;
position = "{868, 1056}";
},
{
name = top;
position = "{848, 2304}";
}
);
guideLines = (
{
angle = 90;
position = "{1528, 248}";
},
{
angle = 90;
position = "{104, 1280}";
},
{
angle = 90;
position = "{808, 2156}";
}
);
layerId = "C698F293-3EC0-4A5A-A3A0-0FDB1F5CF265";
paths = (
{
closed = 1;
nodes = (
"1560 0 LINE",
"1560 220 LINE",
"444 220 LINE",
"1548 1868 LINE",
"1548 2048 LINE",
"136 2048 LINE",
"136 1828 LINE",
"1252 1828 LINE",
"148 180 LINE",
"148 0 LINE"
);
}
);
width = 1696;
},
{
anchors = (
{
name = bottom;
position = "{980, 0}";
},
{
name = cross;
position = "{1020, 1084}";
},
{
name = top;
position = "{984, 2304}";
}
);
guideLines = (
{
position = "{-136, 1552}";
},
{
angle = 55.0453;
position = "{1544, 1788}";
},
{
angle = 55.0343;
position = "{-12, 276}";
},
{
angle = 90;
position = "{-16, 1664}";
},
{
angle = 90;
position = "{1536, 384}";
},
{
alignment = center;
angle = 90;
position = "{960, 800}";
}
);
layerId = "5C20EF92-B63D-42A8-8878-93C2863E0093";
paths = (
{
closed = 1;
nodes = (
"1812 0 LINE",
"1812 448 LINE",
"848 448 LINE",
"1816 1740 LINE",
"1816 2048 LINE",
"144 2048 LINE",
"144 1600 LINE",
"1108 1600 LINE",
"140 308 LINE",
"140 0 LINE"
);
}
);
width = 1956;
}
);
leftKerningGroup = Z;
rightKerningGroup = Z;
unicode = 005A;
userData = {
com.typemytype.robofont.guideline.magnetic.7L9fK9Z9Br = 5;
com.typemytype.robofont.guideline.magnetic.DPCAFAyemJ = 5;
com.typemytype.robofont.guideline.magnetic.VxRM18zW9m = 5;
"interface.width-adjustments" = (
-16
);
};
},
{
glyphname = mcapturn;
lastChange = "2021-06-16 15:59:25 +0000";
layers = (
{
layerId = "B1F27B51-9973-4381-9301-4FE46FE1CA59";
paths = (
{
closed = 1;
nodes = (
"2020 0 LINE",
"2076 0 LINE",
"2076 2048 LINE",
"2012 2048 LINE",
"2012 314 LINE"
);
},
{
closed = 1;
nodes = (
"2012 232 OFFCURVE",
"1824 44 OFFCURVE",
"1592 44 CURVE SMOOTH",
"1320 44 OFFCURVE",
"1172 232 OFFCURVE",
"1172 504 CURVE SMOOTH",
"1172 2048 LINE",
"1108 2048 LINE",
"1108 504 LINE SMOOTH",
"1108 196 OFFCURVE",
"1284 -20 OFFCURVE",
"1592 -20 CURVE SMOOTH",
"1860 -20 OFFCURVE",
"2076 196 OFFCURVE",
"2056 504 CURVE",
"2012 504 LINE"
);
},
{
closed = 1;
nodes = (
"1108 232 OFFCURVE",
"920 44 OFFCURVE",
"688 44 CURVE SMOOTH",
"416 44 OFFCURVE",
"268 232 OFFCURVE",
"268 504 CURVE SMOOTH",
"268 2048 LINE",
"204 2048 LINE",
"204 504 LINE SMOOTH",
"204 196 OFFCURVE",
"380 -20 OFFCURVE",
"688 -20 CURVE SMOOTH",
"956 -20 OFFCURVE",
"1172 196 OFFCURVE",
"1152 504 CURVE",
"1108 504 LINE"
);
}
);
width = 2280;
},
{
layerId = "C698F293-3EC0-4A5A-A3A0-0FDB1F5CF265";
paths = (
{
closed = 1;
nodes = (
"2024 0 LINE",
"2284 0 LINE",
"2284 2048 LINE",
"2012 2048 LINE",
"2012 292 LINE"
);
},
{
closed = 1;
nodes = (
"2032 416 OFFCURVE",
"1932 200 OFFCURVE",
"1636 200 CURVE SMOOTH",
"1508 200 OFFCURVE",
"1376 280 OFFCURVE",
"1376 608 CURVE",
"1376 2048 LINE",
"1104 2048 LINE",
"1104 608 LINE",
"1104 128 OFFCURVE",
"1300 -28 OFFCURVE",
"1592 -28 CURVE SMOOTH",
"2000 -28 OFFCURVE",
"2160 280 OFFCURVE",
"2160 696 CURVE",
"2032 692 LINE"
);
},
{
closed = 1;
nodes = (
"1128 416 OFFCURVE",
"1024 200 OFFCURVE",
"728 200 CURVE SMOOTH",
"600 200 OFFCURVE",
"472 280 OFFCURVE",
"472 608 CURVE SMOOTH",
"472 2048 LINE",
"196 2048 LINE",
"196 608 LINE SMOOTH",
"196 132 OFFCURVE",
"388 -28 OFFCURVE",
"684 -28 CURVE SMOOTH",
"1092 -28 OFFCURVE",
"1256 280 OFFCURVE",
"1256 696 CURVE",
"1128 692 LINE"
);
}
);
width = 2480;
},
{
layerId = "5C20EF92-B63D-42A8-8878-93C2863E0093";
paths = (
{
closed = 1;
nodes = (
"2108 0 LINE",
"2568 0 LINE",
"2568 2048 LINE",
"2048 2048 LINE",
"2048 392 LINE"
);
},
{
closed = 1;
nodes = (
"2116 516 OFFCURVE",
"2040 384 OFFCURVE",
"1832 384 CURVE SMOOTH",
"1704 384 OFFCURVE",
"1644 460 OFFCURVE",
"1644 568 CURVE",
"1644 2048 LINE",
"1132 2048 LINE",
"1132 568 LINE",
"1132 136 OFFCURVE",
"1336 -28 OFFCURVE",
"1656 -28 CURVE SMOOTH",
"2028 -28 OFFCURVE",
"2252 280 OFFCURVE",
"2252 696 CURVE",
"2116 692 LINE"
);
},
{
closed = 1;
nodes = (
"1200 512 OFFCURVE",
"1124 384 OFFCURVE",
"916 384 CURVE SMOOTH",
"788 384 OFFCURVE",
"728 460 OFFCURVE",
"728 568 CURVE SMOOTH",
"728 2048 LINE",
"216 2048 LINE",
"216 568 LINE SMOOTH",
"216 140 OFFCURVE",
"376 -28 OFFCURVE",
"740 -28 CURVE SMOOTH",
"1128 -28 OFFCURVE",
"1344 268 OFFCURVE",
"1344 696 CURVE",
"1200 692 LINE"
);
}
);
width = 2780;
}
);
unicode = 019C;
userData = {
interface.gridadjust.original = "{'width': 2558, 'leftMargin': 234, 'rightMargin': 234}";
"interface.width-adjustments" = (
-16
);
};
},
{
glyphname = uni01F6;
lastChange = "2021-06-16 15:59:25 +0000";
layers = (
{
layerId = "B1F27B51-9973-4381-9301-4FE46FE1CA59";
paths = (
{
closed = 1;
nodes = (
"2576 -32 OFFCURVE",
"2816 143 OFFCURVE",
"2816 608 CURVE SMOOTH",
"2816 1576 LINE",
"2752 1576 LINE",
"2752 608 LINE SMOOTH",
"2752 218 OFFCURVE",
"2580 31 OFFCURVE",
"2244 32 CURVE SMOOTH",
"1910 33 OFFCURVE",
"1720 218 OFFCURVE",
"1720 608 CURVE SMOOTH",
"1720 2048 LINE",
"1656 2048 LINE",
"1656 1056 LINE",
"352 1056 LINE",
"352 2048 LINE",
"288 2048 LINE",
"288 0 LINE",
"352 0 LINE",
"352 992 LINE",
"1656 992 LINE",
"1656 608 LINE SMOOTH",
"1656 162 OFFCURVE",
"1899 -32 OFFCURVE",
"2244 -32 CURVE SMOOTH"
);
}
);
width = 3056;
},
{
background = {
components = (
{
name = H;
}
);
};
layerId = "C698F293-3EC0-4A5A-A3A0-0FDB1F5CF265";
paths = (
{
closed = 1;
nodes = (
"2616 -28 OFFCURVE",
"2888 196 OFFCURVE",
"2888 648 CURVE SMOOTH",
"2888 1536 LINE",
"2640 1536 LINE",
"2640 648 LINE SMOOTH",
"2640 340 OFFCURVE",
"2496 200 OFFCURVE",
"2228 200 CURVE SMOOTH",
"1960 200 OFFCURVE",
"1804 340 OFFCURVE",
"1804 648 CURVE SMOOTH",
"1804 2048 LINE",
"1556 2048 LINE",
"1556 1136 LINE",
"464 1136 LINE",
"464 2048 LINE",
"216 2048 LINE",
"216 0 LINE",
"464 0 LINE",
"464 916 LINE",
"1556 916 LINE",
"1556 648 LINE SMOOTH",
"1556 204 OFFCURVE",
"1828 -28 OFFCURVE",
"2228 -28 CURVE SMOOTH"
);
}
);
width = 3072;
},
{
background = {
components = (
{
name = H;
}
);
};
layerId = "5C20EF92-B63D-42A8-8878-93C2863E0093";
paths = (
{
closed = 1;
nodes = (
"2736 -28 OFFCURVE",
"3040 256 OFFCURVE",
"3040 716 CURVE SMOOTH",
"3040 1468 LINE",
"2484 1468 LINE",
"2484 716 LINE SMOOTH",
"2484 536 OFFCURVE",
"2388 428 OFFCURVE",
"2232 428 CURVE SMOOTH",
"2076 428 OFFCURVE",
"1980 536 OFFCURVE",
"1980 716 CURVE SMOOTH",
"1980 2048 LINE",
"1424 2048 LINE",
"1424 1248 LINE",
"688 1248 LINE",
"688 2048 LINE",
"132 2048 LINE",
"132 0 LINE",
"688 0 LINE",
"688 800 LINE",
"1424 800 LINE",
"1424 716 LINE SMOOTH",
"1424 256 OFFCURVE",
"1732 -28 OFFCURVE",
"2232 -28 CURVE SMOOTH"
);
}
);
width = 3180;
}
);
leftKerningGroup = B;
leftMetricsKey = H;
rightKerningGroup = u;
rightMetricsKey = u;
unicode = 01F6;
userData = {
interface.gridadjust.original = "{'width': 3059, 'leftMargin': 228, 'rightMargin': 176}";
"interface.width-adjustments" = (
-16
);
};
},
{
glyphname = uni01F7;
lastChange = "2021-06-16 15:59:25 +0000";
layers = (
{
background = {
paths = (
{
closed = 1;
nodes = (
"76 2004 LINE",
"76 -574 LINE",
"140 -574 LINE",
"140 2004 LINE"
);
},
{
closed = 1;
nodes = (
"853 -19 OFFCURVE",
"1268 451 OFFCURVE",
"1268 1158 CURVE SMOOTH",
"1268 1180 LINE SMOOTH",
"1268 1757 OFFCURVE",
"1033 2034 OFFCURVE",
"588 2034 CURVE SMOOTH",
"391 2034 OFFCURVE",
"222 1988 OFFCURVE",
"94 1900 CURVE",
"124 1842 LINE",
"245 1925 OFFCURVE",
"408 1970 OFFCURVE",
"588 1970 CURVE SMOOTH",
"994 1970 OFFCURVE",
"1202 1723 OFFCURVE",
"1202 1184 CURVE SMOOTH",
"1202 1154 LINE SMOOTH",
"1202 485 OFFCURVE",
"820 51 OFFCURVE",
"96 -124 CURVE",
"96 -188 LINE"
);
}
);
};
layerId = "B1F27B51-9973-4381-9301-4FE46FE1CA59";
paths = (
{
closed = 1;
nodes = (
"44 2048 LINE",
"44 -576 LINE",
"108 -576 LINE",
"108 2048 LINE"
);
},
{
closed = 1;
nodes = (
"821 -19 OFFCURVE",
"1236 451 OFFCURVE",
"1236 1178 CURVE SMOOTH",
"1236 1200 LINE SMOOTH",
"1236 1799 OFFCURVE",
"1007 2076 OFFCURVE",
"550 2076 CURVE SMOOTH",
"365 2076 OFFCURVE",
"190 2030 OFFCURVE",
"62 1942 CURVE",
"92 1884 LINE",
"213 1967 OFFCURVE",
"376 2012 OFFCURVE",
"552 2012 CURVE SMOOTH",
"962 2012 OFFCURVE",
"1170 1765 OFFCURVE",
"1170 1204 CURVE SMOOTH",
"1170 1174 LINE SMOOTH",
"1170 485 OFFCURVE",
"788 51 OFFCURVE",
"64 -124 CURVE",
"64 -188 LINE"
);
}
);
width = 1284;
},
{
background = {
paths = (
{
closed = 1;
nodes = (
"156 2004 LINE",
"156 -572 LINE",
"444 -572 LINE",
"444 2004 LINE"
);
},
{
closed = 1;
nodes = (
"1040 -160 OFFCURVE",
"1620 424 OFFCURVE",
"1620 1124 CURVE SMOOTH",
"1620 1196 LINE SMOOTH",
"1620 1756 OFFCURVE",
"1308 2032 OFFCURVE",
"808 2032 CURVE SMOOTH",
"616 2032 OFFCURVE",
"464 1980 OFFCURVE",
"348 1892 CURVE",
"348 1352 LINE",
"392 1624 OFFCURVE",
"504 1800 OFFCURVE",
"808 1800 CURVE SMOOTH",
"1164 1800 OFFCURVE",
"1336 1616 OFFCURVE",
"1336 1200 CURVE SMOOTH",
"1336 1124 LINE SMOOTH",
"1336 656 OFFCURVE",
"1012 92 OFFCURVE",
"292 -20 CURVE",
"292 -248 LINE"
);
}
);
};
layerId = "C698F293-3EC0-4A5A-A3A0-0FDB1F5CF265";
paths = (
{
closed = 1;
nodes = (
"124 2048 LINE",
"124 -576 LINE",
"412 -576 LINE",
"412 2048 LINE"
);
},
{
closed = 1;
nodes = (
"1008 -160 OFFCURVE",
"1588 424 OFFCURVE",
"1588 1144 CURVE SMOOTH",
"1588 1216 LINE SMOOTH",
"1588 1800 OFFCURVE",
"1266 2076 OFFCURVE",
"782 2076 CURVE SMOOTH",
"574 2076 OFFCURVE",
"432 2024 OFFCURVE",
"316 1936 CURVE",
"316 1396 LINE",
"360 1668 OFFCURVE",
"460 1844 OFFCURVE",
"784 1844 CURVE SMOOTH",
"1120 1844 OFFCURVE",
"1304 1660 OFFCURVE",
"1304 1220 CURVE SMOOTH",
"1304 1144 LINE SMOOTH",
"1304 656 OFFCURVE",
"980 92 OFFCURVE",
"260 -20 CURVE",
"260 -248 LINE"
);
}
);
width = 1712;
},
{
background = {
paths = (
{
closed = 1;
nodes = (
"288 2004 LINE",
"288 -572 LINE",
"820 -572 LINE",
"820 2004 LINE"
);
},
{
closed = 1;
nodes = (
"1574 40 OFFCURVE",
"2046 492 OFFCURVE",
"2048 1044 CURVE SMOOTH",
"2048 1116 LINE SMOOTH",
"2046 1692 OFFCURVE",
"1686 2032 OFFCURVE",
"1152 2032 CURVE SMOOTH",
"934 2032 OFFCURVE",
"746 1952 OFFCURVE",
"668 1848 CURVE",
"668 1280 LINE",
"734 1456 OFFCURVE",
"966 1604 OFFCURVE",
"1152 1604 CURVE SMOOTH",
"1494 1604 OFFCURVE",
"1494 1304 OFFCURVE",
"1496 1120 CURVE SMOOTH",
"1496 1044 LINE SMOOTH",
"1494 644 OFFCURVE",
"1186 388 OFFCURVE",
"596 172 CURVE",
"596 -264 LINE"
);
}
);
};
layerId = "5C20EF92-B63D-42A8-8878-93C2863E0093";
paths = (
{
closed = 1;
nodes = (
"288 2048 LINE",
"288 -576 LINE",
"820 -576 LINE",
"820 2048 LINE"
);
},
{
closed = 1;
nodes = (
"1574 40 OFFCURVE",
"2046 492 OFFCURVE",
"2048 1064 CURVE SMOOTH",
"2048 1136 LINE SMOOTH",
"2048 1736 OFFCURVE",
"1678 2076 OFFCURVE",
"1170 2076 CURVE SMOOTH",
"926 2076 OFFCURVE",
"746 1996 OFFCURVE",
"668 1892 CURVE",
"668 1324 LINE",
"734 1500 OFFCURVE",
"956 1648 OFFCURVE",
"1174 1648 CURVE SMOOTH",
"1484 1648 OFFCURVE",
"1496 1348 OFFCURVE",
"1496 1140 CURVE SMOOTH",
"1496 1064 LINE SMOOTH",
"1494 644 OFFCURVE",
"1186 388 OFFCURVE",
"596 172 CURVE",
"596 -264 LINE"
);
}
);
width = 2328;
}
);
unicode = 01F7;
userData = {
interface.gridadjust.original = "{'width': 1856, 'leftMargin': 228, 'rightMargin': 163}";
"interface.width-adjustments" = (
-16
);
};
},
{
glyphname = uni0220;
lastChange = "2021-06-16 15:59:25 +0000";
layers = (
{
background = {
paths = (
{
closed = 1;
nodes = (
"1330 1260 LINE SMOOTH",
"1330 1837 OFFCURVE",
"1097 2034 OFFCURVE",
"652 2034 CURVE SMOOTH",
"455 2034 OFFCURVE",
"286 1988 OFFCURVE",
"158 1900 CURVE",
"188 1842 LINE",
"314 1929 OFFCURVE",
"463 1970 OFFCURVE",
"672 1970 CURVE SMOOTH",
"1058 1970 OFFCURVE",
"1266 1803 OFFCURVE",
"1266 1264 CURVE SMOOTH",
"1266 -576 LINE",
"1330 -576 LINE"
);
},
{
closed = 1;
nodes = (
"140 2004 LINE",
"140 0 LINE",
"204 0 LINE",
"204 2004 LINE"
);
}
);
};
layerId = "B1F27B51-9973-4381-9301-4FE46FE1CA59";
paths = (
{
closed = 1;
nodes = (
"1298 1302 LINE SMOOTH",
"1298 1879 OFFCURVE",
"1059 2076 OFFCURVE",
"626 2076 CURVE SMOOTH",
"417 2076 OFFCURVE",
"254 2030 OFFCURVE",
"126 1942 CURVE",
"156 1884 LINE",
"282 1971 OFFCURVE",
"435 2012 OFFCURVE",
"632 2012 CURVE SMOOTH",
"1030 2012 OFFCURVE",
"1234 1845 OFFCURVE",
"1234 1306 CURVE SMOOTH",
"1234 -576 LINE",
"1298 -576 LINE"
);
},
{
closed = 1;
nodes = (
"108 2048 LINE",
"108 0 LINE",
"172 0 LINE",
"172 2048 LINE"
);
}
);
width = 1396;
},
{
background = {
paths = (
{
closed = 1;
nodes = (
"1616 1356 LINE SMOOTH",
"1616 1808 OFFCURVE",
"1268 2032 OFFCURVE",
"888 2032 CURVE SMOOTH",
"676 2032 OFFCURVE",
"492 1964 OFFCURVE",
"368 1880 CURVE",
"368 1660 LINE",
"496 1748 OFFCURVE",
"660 1804 OFFCURVE",
"888 1804 CURVE SMOOTH",
"1160 1804 OFFCURVE",
"1340 1668 OFFCURVE",
"1340 1356 CURVE SMOOTH",
"1340 -572 LINE",
"1616 -572 LINE"
);
},
{
closed = 1;
nodes = (
"164 2004 LINE",
"164 0 LINE",
"436 0 LINE",
"436 2004 LINE"
);
}
);
};
layerId = "C698F293-3EC0-4A5A-A3A0-0FDB1F5CF265";
paths = (
{
closed = 1;
nodes = (
"1584 1400 LINE SMOOTH",
"1584 1852 OFFCURVE",
"1236 2076 OFFCURVE",
"856 2076 CURVE SMOOTH",
"644 2076 OFFCURVE",
"460 2008 OFFCURVE",
"336 1924 CURVE",
"336 1704 LINE",
"464 1792 OFFCURVE",
"636 1848 OFFCURVE",
"832 1848 CURVE SMOOTH",
"1136 1848 OFFCURVE",
"1308 1712 OFFCURVE",
"1308 1400 CURVE SMOOTH",
"1308 -572 LINE",
"1584 -572 LINE"
);
},
{
closed = 1;
nodes = (
"132 2048 LINE",
"132 0 LINE",
"404 0 LINE",
"404 2048 LINE"
);
}
);
width = 1712;
},
{
background = {
paths = (
{
closed = 1;
nodes = (
"1764 1452 LINE SMOOTH",
"1763 1808 OFFCURVE",
"1479 2032 OFFCURVE",
"1088 2032 CURVE SMOOTH",
"743 2032 OFFCURVE",
"487 1832 OFFCURVE",
"328 1632 CURVE",
"328 1140 LINE",
"551 1468 OFFCURVE",
"787 1624 OFFCURVE",
"1008 1624 CURVE SMOOTH",
"1203 1624 OFFCURVE",
"1239 1540 OFFCURVE",
"1240 1452 CURVE SMOOTH",
"1240 -572 LINE",
"1764 -572 LINE"
);
},
{
closed = 1;
nodes = (
"208 2004 LINE",
"208 0 LINE",
"728 0 LINE",
"728 2004 LINE"
);
}
);
};
layerId = "5C20EF92-B63D-42A8-8878-93C2863E0093";
paths = (
{
closed = 1;
nodes = (
"1764 1496 LINE SMOOTH",
"1764 1842 OFFCURVE",
"1484 2076 OFFCURVE",
"1100 2076 CURVE SMOOTH",
"799 2076 OFFCURVE",
"532 1932 OFFCURVE",
"328 1676 CURVE",
"328 1184 LINE",
"543 1500 OFFCURVE",
"775 1668 OFFCURVE",
"1020 1668 CURVE SMOOTH",
"1160 1668 OFFCURVE",
"1240 1613 OFFCURVE",
"1240 1496 CURVE SMOOTH",
"1240 -572 LINE",
"1764 -572 LINE"
);
},
{
closed = 1;
nodes = (
"208 2048 LINE",
"208 0 LINE",
"728 0 LINE",
"728 2048 LINE"
);
}
);
width = 1968;
}
);
unicode = 0220;
userData = {
interface.gridadjust.original = "{'width': 1866, 'leftMargin': 228, 'rightMargin': 186}";
"interface.width-adjustments" = (
-16
);
};
},
